<svg width="24" height="24" viewBox="0 0 24 24" fill="none" xmlns="http://www.w3.org/2000/svg">
<path d="M11.2785 3.02359L11.276 3.02375C8.94035 3.1638 6.65575 4.05352 4.83824 5.52979L4.83601 5.5316L4.836 5.53159C3.62604 6.50289 2.61415 7.71718 1.88112 9.08158L1.88104 9.08173C0.982228 10.7533 0.505469 12.6476 0.5 14.5469V19.7859C0.5 20.1704 0.688597 20.536 0.987246 20.7417L0.999008 20.7498L1.01029 20.7586C1.42925 21.084 2.09972 21.0643 2.50035 20.7109L2.50567 20.7062L2.51113 20.7017C2.77966 20.4781 2.94367 20.121 2.93974 19.7689L2.93968 19.7634H2.93971V14.5912C2.93971 14.209 3.039 13.8209 3.23232 13.4803C3.68331 12.6629 4.66815 12.2062 5.58184 12.4012C6.57893 12.5888 7.3554 13.5118 7.36266 14.537L7.36267 14.5388C7.3664 15.6017 7.36515 16.6656 7.36391 17.7282C7.36329 18.2588 7.36267 18.7891 7.36267 19.3187C7.36267 19.3845 7.3622 19.4457 7.36175 19.5029C7.35941 19.8018 7.35791 19.9944 7.42952 20.1796L7.43333 20.1894L7.43672 20.1994C7.59775 20.6744 8.09377 21.0183 8.57176 20.9919L8.59156 20.9908L8.61137 20.9913C9.07901 21.0026 9.55087 20.6673 9.71285 20.2014L9.7164 20.1912L9.72039 20.1811C9.7636 20.0722 9.78432 19.944 9.79091 19.7774C9.79421 19.694 9.79386 19.6072 9.79274 19.5103C9.79256 19.4954 9.79237 19.4802 9.79217 19.4647C9.79115 19.3841 9.79003 19.2957 9.79122 19.2083V14.5968C9.79122 13.9958 10.0405 13.4042 10.4741 12.988C10.9584 12.5156 11.6536 12.2904 12.3208 12.3907C13.3573 12.5264 14.1922 13.458 14.2141 14.5076L14.2142 14.5145L14.2142 14.5145C14.2205 15.418 14.2196 16.3291 14.2187 17.2376C14.2181 17.9167 14.2174 18.5944 14.2198 19.2663L14.2198 19.2741L14.2197 19.2741C14.2136 19.7775 14.2139 20.111 14.3753 20.3748L14.3822 20.3861L14.3884 20.3977C14.6394 20.8615 15.2377 21.1029 15.7585 20.9587L15.7606 20.9581C16.1498 20.8521 16.4814 20.5272 16.5952 20.1316L16.5982 20.1213L16.5983 20.1213C16.6507 19.953 16.6499 19.7782 16.6487 19.5136C16.6485 19.4716 16.6483 19.4274 16.6483 19.3806C16.6483 18.8512 16.6477 18.3212 16.6471 17.7906C16.6458 16.7274 16.6446 15.662 16.6483 14.5951L16.6483 14.5927C16.6556 13.7008 17.2459 12.8645 18.0804 12.5597C19.0742 12.1605 20.2699 12.6014 20.7819 13.5378C21.0977 14.0653 21.0822 14.6776 21.0717 15.0946L21.0713 15.1096C21.0713 15.6345 21.0706 16.1582 21.07 16.6811C21.0688 17.728 21.0675 18.772 21.0713 19.8169M11.2785 3.02359L20.5713 19.8196M11.2785 3.02359C13.268 2.89422 15.296 3.29881 17.0868 4.19324L17.0885 4.19408M11.2785 3.02359L17.0885 4.19408M21.0713 19.8169C21.0713 19.8172 21.0713 19.8175 21.0713 19.8179L20.5713 19.8196M21.0713 19.8169C21.0713 19.8166 21.0713 19.8163 21.0713 19.8161L20.5713 19.8196M21.0713 19.8169C21.0756 20.3627 21.5034 20.8767 22.0238 20.9758M20.5713 19.8196C20.5769 20.6019 21.1743 21.328 21.9393 21.4687M22.0238 20.9758C22.0216 20.9754 22.0193 20.9751 22.0171 20.9747L21.9393 21.4687M22.0238 20.9758C22.3173 21.021 22.5834 20.9983 22.7901 20.8994L22.8004 20.8945L22.8005 20.8946C23.1292 20.7465 23.3883 20.4267 23.4666 20.0677L23.4681 20.0607L23.4699 20.0538C23.5 19.9322 23.5 19.8044 23.4998 19.5966C23.4998 19.5831 23.4998 19.5693 23.4998 19.5551V14.4899C23.4998 13.1876 23.2648 11.8824 22.8253 10.6508M22.0238 20.9758C22.0258 20.9762 22.0278 20.9765 22.0298 20.9769L21.9393 21.4687M21.9393 21.4687L22.8253 10.6508M22.8253 10.6508C21.8302 7.86295 19.7249 5.49843 17.0885 4.19408M22.8253 10.6508L17.0885 4.19408" stroke="white"/>
</svg>
