<svg width="24" height="24" viewBox="0 0 24 24" fill="none" xmlns="http://www.w3.org/2000/svg">
<path d="M16.8651 20.6403C16.6551 20.6403 16.4841 20.4699 16.4841 20.2599V14.4783C16.4841 12.3879 15.4113 12.3879 15.0069 12.3879C13.8801 12.3879 13.3095 13.0911 13.3095 14.4783V20.2605C13.3095 20.4705 13.1391 20.6409 12.9291 20.6409H9.6597C9.4497 20.6409 9.2793 20.4705 9.2793 20.2605V9.2463C9.2793 9.0363 9.4497 8.8659 9.6597 8.8659H12.9297C13.1397 8.8659 13.3101 9.0363 13.3101 9.2463V9.6567L13.5069 9.4941C14.2809 8.8539 15.2043 8.5293 16.2513 8.5293C17.5455 8.5293 18.6351 8.9427 19.4019 9.7257C20.2119 10.5525 20.6397 11.7837 20.6397 13.2855V20.2605C20.6397 20.4705 20.4687 20.6409 20.2587 20.6409H16.8651V20.6403ZM15.0075 11.6259C15.8439 11.6259 17.2467 11.9967 17.2467 14.4783V19.8795H19.8777V13.2855C19.8777 10.7469 18.5559 9.2913 16.2513 9.2913C14.1933 9.2913 13.3017 10.8453 13.2645 10.9113C13.1973 11.0331 13.0701 11.1087 12.9315 11.1087C12.9003 11.1087 12.8685 11.1039 12.8361 11.0961C12.6669 11.0535 12.5487 10.9029 12.5487 10.7301V9.6279H10.0407V19.8801H12.5487V14.4783C12.5487 12.6921 13.4679 11.6259 15.0075 11.6259Z" fill="white"/>
<path d="M4.06801 20.6406C3.85801 20.6406 3.68701 20.4702 3.68701 20.2602V9.24661C3.68701 9.03661 3.85801 8.86621 4.06801 8.86621H7.47901C7.68901 8.86621 7.85941 9.03661 7.85941 9.24661V20.2602C7.85941 20.4702 7.68901 20.6406 7.47901 20.6406H4.06801ZM4.44901 19.8798H7.09801V9.62761H4.44901V19.8798Z" fill="white"/>
<path d="M5.75806 8.18375C4.43566 8.18375 3.35986 7.10195 3.35986 5.77235C3.35986 4.44215 4.43566 3.36035 5.75806 3.36035C7.07866 3.36035 8.15386 4.44275 8.15386 5.77295C8.15386 7.10195 7.07866 8.18375 5.75806 8.18375ZM5.75806 4.11995C4.85566 4.11995 4.12186 4.86095 4.12186 5.77235C4.12186 6.68315 4.85566 7.42295 5.75806 7.42295C6.65986 7.42295 7.39306 6.68315 7.39306 5.77235C7.39246 4.86155 6.65986 4.11995 5.75806 4.11995Z" fill="white"/>
</svg>
