<svg width="48" height="38" viewBox="0 0 48 38" fill="none" xmlns="http://www.w3.org/2000/svg">
<path d="M22.557 1.04717L22.552 1.0475C17.8807 1.32761 13.3115 3.10704 9.67647 6.05958L9.67201 6.0632L9.672 6.06319C7.25208 8.00578 5.2283 10.4344 3.76223 13.1632L3.76207 13.1635C1.96446 16.5067 1.01094 20.2952 1 24.0937V34.5717C1 35.3409 1.37719 36.072 1.97449 36.4835L1.99802 36.4997L2.02058 36.5172C2.85849 37.168 4.19945 37.1285 5.00069 36.4219L5.01135 36.4125L5.02227 36.4034C5.55931 35.9563 5.88734 35.2419 5.87949 34.5379L5.87936 34.5267H5.87943V24.1824C5.87943 23.4181 6.078 22.6417 6.46465 21.9605C7.36664 20.3259 9.33633 19.4124 11.1637 19.8025C13.1579 20.1775 14.7108 22.0236 14.7253 24.074L14.7253 24.0775C14.7328 26.2035 14.7303 28.3313 14.7278 30.4564C14.7266 31.5177 14.7253 32.5782 14.7253 33.6375C14.7253 33.769 14.7244 33.8913 14.7235 34.0059C14.7188 34.6036 14.7158 34.9888 14.859 35.3591L14.8667 35.3788L14.8734 35.3988C15.1955 36.3489 16.1875 37.0365 17.1435 36.9839L17.1831 36.9817L17.2227 36.9826C18.158 37.0053 19.1017 36.3345 19.4257 35.4027L19.4328 35.3823L19.4408 35.3622C19.5272 35.1444 19.5686 34.8881 19.5818 34.5547C19.5884 34.3881 19.5877 34.2145 19.5855 34.0205C19.5851 33.9908 19.5847 33.9604 19.5843 33.9294C19.5823 33.7681 19.5801 33.5915 19.5824 33.4166V24.1936C19.5824 22.9917 20.0808 21.8085 20.9479 20.9762C21.9166 20.0312 23.3071 19.5809 24.6416 19.7814C26.7145 20.0529 28.3845 21.916 28.4281 24.0152L28.4284 24.029H28.4283C28.4411 25.8361 28.4393 27.6583 28.4375 29.4753C28.4361 30.8336 28.4348 32.1888 28.4395 33.5326L28.4396 33.5405L28.4395 33.5483C28.4273 34.555 28.4278 35.222 28.7505 35.7497L28.7643 35.7722L28.7769 35.7955C29.2788 36.723 30.4754 37.2058 31.5169 36.9173L31.5213 36.9161C32.2997 36.7043 32.9628 36.0545 33.1904 35.2633L33.1934 35.2529L33.1966 35.2426C33.3014 34.906 33.2998 34.5564 33.2974 34.0272C33.297 33.9433 33.2966 33.8549 33.2966 33.7613C33.2966 32.7023 33.2954 31.6421 33.2941 30.5808C33.2917 28.4545 33.2892 26.3239 33.2966 24.1901L33.2966 24.1855C33.3112 22.4016 34.4918 20.7291 36.1607 20.1194C38.1484 19.3211 40.5398 20.2027 41.5638 22.0755C42.1955 23.1306 42.1644 24.3553 42.1433 25.1891L42.1425 25.2193C42.1425 26.2691 42.1413 27.3163 42.1401 28.3621C42.1376 30.456 42.1351 32.5439 42.1425 34.6337M22.557 1.04717L41.1425 34.6393M22.557 1.04717C26.536 0.788436 30.5919 1.59763 34.1737 3.38649L34.177 3.38815M22.557 1.04717L34.177 3.38815M42.1425 34.6337C42.1425 34.6344 42.1425 34.6351 42.1425 34.6357L41.1425 34.6393M42.1425 34.6337C42.1425 34.6332 42.1425 34.6327 42.1425 34.6321L41.1425 34.6393M42.1425 34.6337C42.1511 35.7253 43.0067 36.7535 44.0476 36.9516M41.1425 34.6393C41.1537 36.2039 42.3487 37.6559 43.8787 37.9373M44.0476 36.9516C44.0431 36.9509 44.0387 36.9502 44.0342 36.9495L43.8787 37.9373M44.0476 36.9516C44.6346 37.0421 45.1668 36.9966 45.5802 36.7988L45.5905 36.7939L45.6009 36.7892C46.2585 36.4929 46.7767 35.8535 46.9332 35.1354L46.9363 35.1215L46.9397 35.1077C47.0001 34.8643 46.9999 34.6089 46.9997 34.1931C46.9996 34.1662 46.9996 34.1386 46.9996 34.1102V23.9797C46.9996 21.3752 46.5296 18.7647 45.6507 16.3016M44.0476 36.9516C44.0516 36.9523 44.0556 36.9531 44.0596 36.9538L43.8787 37.9373M43.8787 37.9373L45.6507 16.3016M45.6507 16.3016C43.6604 10.7259 39.4498 5.99686 34.177 3.38815M45.6507 16.3016L34.177 3.38815" stroke="white" stroke-width="2"/>
</svg>
