<svg width="48" height="48" viewBox="0 0 48 48" fill="none" xmlns="http://www.w3.org/2000/svg">
<g clip-path="url(#clip0_124_14504)">
<mask id="path-1-inside-1_124_14504" fill="white">
<path d="M18.8073 23.6215L18.3907 23.2032C18.3206 23.1327 18.2313 23.0847 18.1338 23.0651C18.0364 23.0455 17.9354 23.0553 17.8436 23.0932C17.7517 23.1311 17.6732 23.1955 17.618 23.2781C17.5628 23.3607 17.5334 23.4578 17.5335 23.5572V29.5328C17.5336 29.5987 17.5468 29.6639 17.5721 29.7248C17.5975 29.7856 17.6346 29.8409 17.6813 29.8874C17.728 29.9339 17.7835 29.9707 17.8445 29.9957C17.9054 30.0208 17.9708 30.0335 18.0367 30.0333H24.0135C24.1132 30.0341 24.2108 30.0051 24.2939 29.9499C24.3769 29.8948 24.4415 29.8161 24.4795 29.724C24.5175 29.6318 24.527 29.5305 24.5069 29.4328C24.4868 29.3352 24.438 29.2459 24.3667 29.1762C24.2732 29.0823 24.2208 28.9552 24.2208 28.8227C24.2208 28.6902 24.2732 28.5631 24.3667 28.4691L30.725 22.0942C30.7715 22.0477 30.8083 21.9925 30.8335 21.9318C30.8587 21.871 30.8716 21.8059 30.8716 21.7402C30.8716 21.6744 30.8587 21.6093 30.8335 21.5486C30.8083 21.4879 30.7715 21.4327 30.725 21.3862L30.1455 20.8094C30.0746 20.7395 30.0261 20.6501 30.0063 20.5526C29.9865 20.455 29.9962 20.3538 30.0342 20.2618C30.0722 20.1698 30.1368 20.0912 30.2197 20.0361C30.3025 19.9809 30.4 19.9518 30.4995 19.9523H36.4738C36.6067 19.9523 36.7342 20.005 36.8284 20.0988C36.9225 20.1926 36.9757 20.3199 36.9761 20.4529V26.4284C36.9758 26.5276 36.9462 26.6245 36.8909 26.7068C36.8356 26.7892 36.7572 26.8533 36.6656 26.8912C36.5739 26.929 36.4731 26.9389 36.3758 26.9195C36.2785 26.9002 36.1892 26.8525 36.119 26.7824L35.7152 26.3804C35.6696 26.3327 35.6148 26.2948 35.5541 26.2688C35.4934 26.2429 35.4281 26.2295 35.3621 26.2295C35.2961 26.2295 35.2308 26.2429 35.1701 26.2688C35.1094 26.2948 35.0546 26.3327 35.009 26.3804L24.2947 37.0939C24.2002 37.1871 24.0729 37.2393 23.9403 37.2393C23.8076 37.2393 23.6803 37.1871 23.5858 37.0939L10.4715 23.9806C10.4247 23.9341 10.3875 23.8789 10.3621 23.818C10.3367 23.7571 10.3237 23.6917 10.3237 23.6258C10.3237 23.5598 10.3367 23.4945 10.3621 23.4336C10.3875 23.3727 10.4247 23.3174 10.4715 23.2709L28.6284 5.12309C28.7215 5.02863 28.7737 4.90132 28.7737 4.76868C28.7737 4.63605 28.7215 4.50874 28.6284 4.41428L24.3547 0.146015C24.2604 0.0524851 24.133 0 24.0002 0C23.8675 0 23.7401 0.0524851 23.6458 0.146015L0.145537 23.6472C0.0520006 23.7414 -0.000488281 23.8688 -0.000488281 24.0016C-0.000488281 24.1344 0.0520006 24.2618 0.145537 24.356L23.6458 47.8546C23.7401 47.9481 23.8675 48.0006 24.0002 48.0006C24.133 48.0006 24.2604 47.9481 24.3547 47.8546L47.8541 24.356C47.9475 24.2621 48 24.1349 48 24.0025C48 23.87 47.9475 23.7429 47.8541 23.6489L34.0284 9.82418C33.9343 9.7307 33.807 9.67824 33.6744 9.67824C33.5417 9.67824 33.4145 9.7307 33.3204 9.82418L19.5204 23.6232C19.4739 23.67 19.4187 23.7072 19.3578 23.7326C19.2968 23.758 19.2315 23.7711 19.1655 23.7711C19.0996 23.7711 19.0342 23.758 18.9733 23.7326C18.9124 23.7072 18.8571 23.67 18.8107 23.6232L18.8073 23.6215Z"/>
</mask>
<path d="M18.8073 23.6215L17.3902 25.0328L17.6209 25.2645L17.9134 25.4106L18.8073 23.6215ZM18.3907 23.2032L16.9719 24.6129L16.9736 24.6146L18.3907 23.2032ZM17.5335 23.5572H19.5335L19.5335 23.5548L17.5335 23.5572ZM17.5335 29.5328H15.5335L15.5335 29.5362L17.5335 29.5328ZM18.0367 30.0333V28.0333L18.0298 28.0333L18.0367 30.0333ZM24.0135 30.0333L24.0293 28.0334L24.0214 28.0333H24.0135V30.0333ZM24.3667 29.1762L22.9486 30.5865L22.9588 30.5968L22.9691 30.6069L24.3667 29.1762ZM24.2208 28.8227H22.2208H24.2208ZM24.3667 28.4691L22.9506 27.0568L22.9486 27.0588L24.3667 28.4691ZM30.725 22.0942L29.311 20.6797L29.3089 20.6818L30.725 22.0942ZM30.8716 21.7402H32.8716H30.8716ZM30.725 21.3862L32.139 19.9718L32.136 19.9688L30.725 21.3862ZM30.1455 20.8094L31.5566 19.392L31.5491 19.3847L30.1455 20.8094ZM30.4995 19.9523L30.4888 21.9523H30.4995V19.9523ZM36.4738 19.9523V21.9523H36.4738L36.4738 19.9523ZM36.9761 20.4529H38.9761L38.9761 20.446L36.9761 20.4529ZM36.9761 26.4284L38.9761 26.4343V26.4284H36.9761ZM36.119 26.7824L37.5319 25.3669L37.5301 25.3651L36.119 26.7824ZM35.7152 26.3804L34.2697 27.7626L34.2867 27.7804L34.3041 27.7977L35.7152 26.3804ZM35.009 26.3804L36.4231 27.7947L36.439 27.7788L36.4545 27.7626L35.009 26.3804ZM24.2947 37.0939L25.6987 38.5183L25.7038 38.5133L25.7088 38.5082L24.2947 37.0939ZM23.5858 37.0939L22.1717 38.5082L22.1767 38.5133L22.1818 38.5183L23.5858 37.0939ZM10.4715 23.9806L11.8857 22.5663L11.8796 22.5603L10.4715 23.9806ZM10.3237 23.6258H8.32366H10.3237ZM10.4715 23.2709L11.8797 24.6912L11.8854 24.6855L10.4715 23.2709ZM28.6284 5.12309L30.0423 6.53765L30.0475 6.53245L30.0526 6.52721L28.6284 5.12309ZM28.6284 4.41428L30.0526 3.01016L30.0472 3.00464L30.0417 2.99917L28.6284 4.41428ZM24.3547 0.146015L25.768 -1.26911L25.7635 -1.27358L24.3547 0.146015ZM24.0002 0V2V0ZM23.6458 0.146015L22.237 -1.27359L22.2316 -1.26817L23.6458 0.146015ZM0.145537 23.6472L-1.26871 22.233L-1.27396 22.2383L0.145537 23.6472ZM-0.000488281 24.0016H-2.00049H-0.000488281ZM0.145537 24.356L-1.27397 25.7649L-1.26863 25.7703L0.145537 24.356ZM23.6458 47.8546L22.2316 49.2689L22.237 49.2742L23.6458 47.8546ZM24.3547 47.8546L25.7635 49.2742L25.7689 49.2688L24.3547 47.8546ZM47.8541 24.356L49.2683 25.7702L49.2722 25.7663L47.8541 24.356ZM47.8541 23.6489L49.2722 22.2386L49.2683 22.2346L47.8541 23.6489ZM34.0284 9.82418L35.4426 8.40991L35.4379 8.40527L34.0284 9.82418ZM33.6744 9.67824V11.6782V9.67824ZM33.3204 9.82418L31.9109 8.40527L31.9062 8.40992L33.3204 9.82418ZM19.5204 23.6232L18.1062 22.2089L18.1002 22.215L19.5204 23.6232ZM18.8107 23.6232L20.2309 22.215L19.999 21.9812L19.7045 21.834L18.8107 23.6232ZM20.2243 22.2101L19.8077 21.7919L16.9736 24.6146L17.3902 25.0328L20.2243 22.2101ZM19.8094 21.7936C19.4601 21.4419 19.0141 21.2021 18.5282 21.1043L17.7395 25.0258C17.4484 24.9672 17.1812 24.8235 16.9719 24.6129L19.8094 21.7936ZM18.5282 21.1043C18.0423 21.0066 17.5383 21.0554 17.0802 21.2446L18.607 24.9418C18.3325 25.0551 18.0306 25.0843 17.7395 25.0258L18.5282 21.1043ZM17.0802 21.2446C16.622 21.4338 16.2304 21.7548 15.955 22.167L19.281 24.3892C19.116 24.6361 18.8814 24.8284 18.607 24.9418L17.0802 21.2446ZM15.955 22.167C15.6797 22.5792 15.533 23.0639 15.5335 23.5596L19.5335 23.5548C19.5339 23.8518 19.446 24.1422 19.281 24.3892L15.955 22.167ZM15.5335 23.5572V29.5328H19.5335V23.5572H15.5335ZM15.5335 29.5362C15.5341 29.8651 15.5995 30.1906 15.726 30.4941L19.4182 28.9554C19.494 29.1373 19.5332 29.3323 19.5335 29.5294L15.5335 29.5362ZM15.726 30.4941C15.8525 30.7977 16.0376 31.0733 16.2708 31.3052L19.0918 28.4695C19.2315 28.6084 19.3424 28.7736 19.4182 28.9554L15.726 30.4941ZM16.2708 31.3052C16.5039 31.5372 16.7805 31.7208 17.0847 31.8458L18.6043 28.1457C18.7865 28.2205 18.9522 28.3305 19.0918 28.4695L16.2708 31.3052ZM17.0847 31.8458C17.3889 31.9707 17.7147 32.0344 18.0435 32.0333L18.0298 28.0333C18.2268 28.0326 18.422 28.0708 18.6043 28.1457L17.0847 31.8458ZM18.0367 32.0333H24.0135V28.0333H18.0367V32.0333ZM23.9978 32.0332C24.4963 32.0372 24.9846 31.892 25.4 31.6162L23.1877 28.2837C23.437 28.1182 23.7301 28.031 24.0293 28.0334L23.9978 32.0332ZM25.4 31.6162C25.8153 31.3405 26.1388 30.9469 26.3287 30.4859L22.6303 28.9621C22.7443 28.6854 22.9384 28.4491 23.1877 28.2837L25.4 31.6162ZM26.3287 30.4859C26.5186 30.0249 26.5664 29.5177 26.4658 29.0294L22.548 29.8363C22.4877 29.5432 22.5163 29.2388 22.6303 28.9621L26.3287 30.4859ZM26.4658 29.0294C26.3652 28.541 26.1209 28.094 25.7643 27.7456L22.9691 30.6069C22.755 30.3978 22.6084 30.1294 22.548 29.8363L26.4658 29.0294ZM25.7848 27.7659C26.064 28.0467 26.2208 28.4266 26.2208 28.8227H22.2208C22.2208 29.4837 22.4825 30.1178 22.9486 30.5865L25.7848 27.7659ZM26.2208 28.8227C26.2208 29.2187 26.064 29.5986 25.7848 29.8794L22.9486 27.0588C22.4825 27.5275 22.2208 28.1617 22.2208 28.8227H26.2208ZM25.7827 29.8815L32.141 23.5065L29.3089 20.6818L22.9506 27.0568L25.7827 29.8815ZM32.139 23.5086C32.3712 23.2764 32.5555 23.0007 32.6812 22.6973L28.9858 21.1662C29.0612 20.9843 29.1717 20.819 29.311 20.6797L32.139 23.5086ZM32.6812 22.6973C32.8069 22.3938 32.8716 22.0686 32.8716 21.7402H28.8716C28.8716 21.5432 28.9104 21.3482 28.9858 21.1662L32.6812 22.6973ZM32.8716 21.7402C32.8716 21.4117 32.8069 21.0865 32.6812 20.7831L28.9858 22.3141C28.9104 22.1322 28.8716 21.9371 28.8716 21.7402H32.8716ZM32.6812 20.7831C32.5555 20.4796 32.3712 20.204 32.139 19.9718L29.311 22.8006C29.1717 22.6614 29.0612 22.4961 28.9858 22.3141L32.6812 20.7831ZM32.136 19.9688L31.5566 19.392L28.7345 22.2268L29.3139 22.8036L32.136 19.9688ZM31.5491 19.3847C31.7616 19.5939 31.9068 19.8618 31.9662 20.1541L28.0464 20.9511C28.1455 21.4384 28.3877 21.8852 28.7419 22.2341L31.5491 19.3847ZM31.9662 20.1541C32.0256 20.4463 31.9966 20.7497 31.8827 21.0253L28.1857 19.4983C27.9958 19.9579 27.9473 20.4637 28.0464 20.9511L31.9662 20.1541ZM31.8827 21.0253C31.7689 21.3009 31.5754 21.5363 31.3271 21.7014L29.1122 18.3707C28.6981 18.6461 28.3755 19.0386 28.1857 19.4983L31.8827 21.0253ZM31.3271 21.7014C31.0789 21.8665 30.787 21.9539 30.4888 21.9523L30.5103 17.9523C30.013 17.9497 29.5262 18.0953 29.1122 18.3707L31.3271 21.7014ZM30.4995 21.9523H36.4738V17.9523H30.4995V21.9523ZM36.4738 21.9523C36.0775 21.9523 35.6974 21.7952 35.4166 21.5155L38.2401 18.6821C37.7711 18.2147 37.1359 17.9523 36.4738 17.9523L36.4738 21.9523ZM35.4166 21.5155C35.1359 21.2357 34.9775 20.8561 34.9761 20.4597L38.9761 20.446C38.9738 19.7838 38.7092 19.1495 38.2401 18.6821L35.4166 21.5155ZM34.9761 20.4529V26.4284H38.9761V20.4529H34.9761ZM34.9761 26.4225C34.977 26.1267 35.0654 25.8379 35.2302 25.5923L38.5516 27.8213C38.8269 27.4111 38.9746 26.9285 38.9761 26.4343L34.9761 26.4225ZM35.2302 25.5923C35.395 25.3467 35.6288 25.1555 35.9022 25.0426L37.429 28.7397C37.8856 28.5511 38.2762 28.2316 38.5516 27.8213L35.2302 25.5923ZM35.9022 25.0426C36.1755 24.9297 36.4761 24.9003 36.7661 24.958L35.9855 28.8811C36.47 28.9775 36.9723 28.9283 37.429 28.7397L35.9022 25.0426ZM36.7661 24.958C37.0561 25.0157 37.3226 25.158 37.5319 25.3669L34.706 28.1979C35.0557 28.547 35.5009 28.7847 35.9855 28.8811L36.7661 24.958ZM37.5301 25.3651L37.1264 24.9632L34.3041 27.7977L34.7078 28.1997L37.5301 25.3651ZM37.1608 24.9983C36.9285 24.7553 36.6493 24.5619 36.3401 24.4297L34.7681 28.1079C34.5803 28.0276 34.4108 27.9102 34.2697 27.7626L37.1608 24.9983ZM36.3401 24.4297C36.031 24.2976 35.6983 24.2295 35.3621 24.2295V28.2295C35.1579 28.2295 34.9559 28.1881 34.7681 28.1079L36.3401 24.4297ZM35.3621 24.2295C35.0259 24.2295 34.6932 24.2976 34.3841 24.4297L35.9561 28.1079C35.7683 28.1881 35.5663 28.2295 35.3621 28.2295V24.2295ZM34.3841 24.4297C34.0749 24.5619 33.7957 24.7553 33.5634 24.9983L36.4545 27.7626C36.3134 27.9102 36.1439 28.0276 35.9561 28.1079L34.3841 24.4297ZM33.5948 24.9662L22.8805 35.6797L25.7088 38.5082L36.4231 27.7947L33.5948 24.9662ZM22.8907 35.6696C23.1704 35.3938 23.5475 35.2393 23.9403 35.2393V39.2393C24.5983 39.2393 25.23 38.9803 25.6987 38.5183L22.8907 35.6696ZM23.9403 35.2393C24.333 35.2393 24.7101 35.3938 24.9898 35.6696L22.1818 38.5183C22.6505 38.9803 23.2822 39.2393 23.9403 39.2393V35.2393ZM25 35.6797L11.8857 22.5663L9.05737 25.3949L22.1717 38.5082L25 35.6797ZM11.8796 22.5603C12.0203 22.6998 12.132 22.8657 12.2082 23.0486L8.51601 24.5873C8.64298 24.892 8.82903 25.1685 9.06343 25.4009L11.8796 22.5603ZM12.2082 23.0486C12.2844 23.2315 12.3237 23.4276 12.3237 23.6258H8.32366C8.32366 23.9558 8.38904 24.2827 8.51601 24.5873L12.2082 23.0486ZM12.3237 23.6258C12.3237 23.8239 12.2844 24.0201 12.2082 24.2029L8.51601 22.6642C8.38904 22.9689 8.32366 23.2957 8.32366 23.6258H12.3237ZM12.2082 24.2029C12.132 24.3858 12.0203 24.5517 11.8796 24.6912L9.06343 21.8506C8.82903 22.083 8.64298 22.3595 8.51601 22.6642L12.2082 24.2029ZM11.8854 24.6855L30.0423 6.53765L27.2145 3.70852L9.05767 21.8564L11.8854 24.6855ZM30.0526 6.52721C30.5147 6.05855 30.7737 5.42685 30.7737 4.76868H26.7737C26.7737 4.37579 26.9284 3.99871 27.2042 3.71896L30.0526 6.52721ZM30.7737 4.76868C30.7737 4.11052 30.5147 3.47882 30.0526 3.01016L27.2042 5.81841C26.9284 5.53866 26.7737 5.16158 26.7737 4.76868H30.7737ZM30.0417 2.99917L25.768 -1.2691L22.9414 1.56113L27.2151 5.8294L30.0417 2.99917ZM25.7635 -1.27358C25.2946 -1.73891 24.6608 -2 24.0002 -2V2C23.6053 2 23.2263 1.84388 22.9459 1.56561L25.7635 -1.27358ZM24.0002 -2C23.3397 -2 22.7059 -1.73891 22.237 -1.27358L25.0546 1.56561C24.7742 1.84388 24.3952 2 24.0002 2V-2ZM22.2316 -1.26817L-1.2687 22.233L1.55978 25.0614L25.0601 1.5602L22.2316 -1.26817ZM-1.27396 22.2383C-1.73932 22.7071 -2.00049 23.341 -2.00049 24.0016H1.99951C1.99951 24.3967 1.84332 24.7757 1.56503 25.0561L-1.27396 22.2383ZM-2.00049 24.0016C-2.00049 24.6622 -1.73932 25.2961 -1.27396 25.7649L1.56503 22.9471C1.84332 23.2275 1.99951 23.6065 1.99951 24.0016H-2.00049ZM-1.26863 25.7703L22.2317 49.2689L25.06 46.4403L1.5597 22.9417L-1.26863 25.7703ZM22.237 49.2742C22.7059 49.7395 23.3397 50.0006 24.0002 50.0006V46.0006C24.3952 46.0006 24.7742 46.1567 25.0546 46.435L22.237 49.2742ZM24.0002 50.0006C24.6608 50.0006 25.2946 49.7395 25.7635 49.2742L22.9459 46.435C23.2263 46.1567 23.6053 46.0006 24.0002 46.0006V50.0006ZM25.7689 49.2688L49.2683 25.7702L46.4399 22.9418L22.9405 46.4404L25.7689 49.2688ZM49.2722 25.7663C49.7383 25.2976 50 24.6635 50 24.0025H46C46 23.6064 46.1568 23.2265 46.436 22.9457L49.2722 25.7663ZM50 24.0025C50 23.3414 49.7383 22.7073 49.2722 22.2386L46.436 25.0592C46.1568 24.7784 46 24.3985 46 24.0025H50ZM49.2683 22.2346L35.4426 8.40992L32.6142 11.2384L46.4399 25.0632L49.2683 22.2346ZM35.4379 8.40527C34.9691 7.93958 34.3351 7.67824 33.6744 7.67824V11.6782C33.2789 11.6782 32.8995 11.5218 32.6189 11.2431L35.4379 8.40527ZM33.6744 7.67824C33.0136 7.67824 32.3797 7.93958 31.9109 8.40527L34.7299 11.2431C34.4493 11.5218 34.0699 11.6782 33.6744 11.6782V7.67824ZM31.9062 8.40992L18.1062 22.2089L20.9346 25.0375L34.7346 11.2384L31.9062 8.40992ZM18.1002 22.215C18.2397 22.0743 18.4057 21.9627 18.5885 21.8865L20.127 25.5788C20.4317 25.4518 20.7082 25.2658 20.9406 25.0314L18.1002 22.215ZM18.5885 21.8865C18.7713 21.8103 18.9674 21.7711 19.1655 21.7711V25.7711C19.4956 25.7711 19.8224 25.7057 20.127 25.5788L18.5885 21.8865ZM19.1655 21.7711C19.3636 21.7711 19.5598 21.8103 19.7426 21.8865L18.2041 25.5788C18.5087 25.7057 18.8355 25.7711 19.1655 25.7711V21.7711ZM19.7426 21.8865C19.9254 21.9627 20.0914 22.0743 20.2309 22.215L17.3905 25.0314C17.6229 25.2658 17.8994 25.4518 18.2041 25.5788L19.7426 21.8865ZM19.7045 21.834L19.7011 21.8323L17.9134 25.4106L17.9168 25.4123L19.7045 21.834Z" fill="white" mask="url(#path-1-inside-1_124_14504)"/>
</g>
<defs>
<clipPath id="clip0_124_14504">
<rect width="48" height="48" fill="white"/>
</clipPath>
</defs>
</svg>
