<svg width="34" height="34" viewBox="0 0 34 34" fill="none" xmlns="http://www.w3.org/2000/svg">
<path d="M17 33.5C14.2 33.5 11.5 32.675 8.9 31.025C6.3 29.375 4.25 27.4875 2.75 25.3625V30.5H0.5V21.5H9.5V23.75H4.3625C5.6375 25.675 7.45625 27.4062 9.81875 28.9437C12.1813 30.4812 14.575 31.25 17 31.25C18.95 31.25 20.7938 30.875 22.5312 30.125C24.2687 29.375 25.7812 28.3562 27.0687 27.0687C28.3562 25.7812 29.375 24.2687 30.125 22.5312C30.875 20.7938 31.25 18.95 31.25 17H33.5C33.5 19.275 33.0688 21.4125 32.2063 23.4125C31.3438 25.4125 30.1625 27.1625 28.6625 28.6625C27.1625 30.1625 25.4125 31.3438 23.4125 32.2063C21.4125 33.0688 19.275 33.5 17 33.5ZM15.9125 27.7625V25.7375C14.7875 25.4375 13.8438 24.9562 13.0812 24.2937C12.3187 23.6312 11.675 22.725 11.15 21.575L13.0625 20.9375C13.3625 21.8875 13.8938 22.6375 14.6562 23.1875C15.4187 23.7375 16.2875 24.0125 17.2625 24.0125C18.2625 24.0125 19.0938 23.7687 19.7562 23.2812C20.4187 22.7938 20.75 22.15 20.75 21.35C20.75 20.525 20.4375 19.8312 19.8125 19.2687C19.1875 18.7062 18.0375 18.075 16.3625 17.375C14.8625 16.75 13.7375 16.075 12.9875 15.35C12.2375 14.625 11.8625 13.65 11.8625 12.425C11.8625 11.325 12.2375 10.3875 12.9875 9.6125C13.7375 8.8375 14.7375 8.3625 15.9875 8.1875V6.275H18.05V8.1875C19 8.2875 19.825 8.5875 20.525 9.0875C21.225 9.5875 21.7875 10.275 22.2125 11.15L20.4125 12.0125C20.0375 11.3125 19.575 10.7875 19.025 10.4375C18.475 10.0875 17.825 9.9125 17.075 9.9125C16.1 9.9125 15.3312 10.1375 14.7687 10.5875C14.2062 11.0375 13.925 11.65 13.925 12.425C13.925 13.225 14.25 13.8625 14.9 14.3375C15.55 14.8125 16.6 15.35 18.05 15.95C19.775 16.675 21 17.4375 21.725 18.2375C22.45 19.0375 22.8125 20.075 22.8125 21.35C22.8125 21.975 22.7 22.55 22.475 23.075C22.25 23.6 21.9312 24.05 21.5187 24.425C21.1062 24.8 20.6 25.1063 20 25.3438C19.4 25.5812 18.725 25.7375 17.975 25.8125V27.7625H15.9125ZM0.5 17C0.5 14.725 0.93125 12.5875 1.79375 10.5875C2.65625 8.5875 3.8375 6.8375 5.3375 5.3375C6.8375 3.8375 8.5875 2.65625 10.5875 1.79375C12.5875 0.93125 14.725 0.5 17 0.5C19.8 0.5 22.5 1.325 25.1 2.975C27.7 4.625 29.75 6.5125 31.25 8.6375V3.5H33.5V12.5H24.5V10.25H29.6375C28.3625 8.325 26.55 6.59375 24.2 5.05625C21.85 3.51875 19.45 2.75 17 2.75C15.05 2.75 13.2063 3.125 11.4688 3.875C9.73125 4.625 8.21875 5.64375 6.93125 6.93125C5.64375 8.21875 4.625 9.73125 3.875 11.4688C3.125 13.2063 2.75 15.05 2.75 17H0.5Z" fill="#04FFF0"/>
</svg>
