<svg width="89" height="89" viewBox="0 0 89 89" fill="none" xmlns="http://www.w3.org/2000/svg">
<path d="M3.56 0H0V3.56H3.56V0Z" fill="white"/>
<path d="M7.12 0H3.56V3.56H7.12V0Z" fill="white"/>
<path d="M10.68 0H7.12V3.56H10.68V0Z" fill="white"/>
<path d="M14.24 0H10.68V3.56H14.24V0Z" fill="white"/>
<path d="M17.8 0H14.24V3.56H17.8V0Z" fill="white"/>
<path d="M21.36 0H17.8V3.56H21.36V0Z" fill="white"/>
<path d="M24.92 0H21.36V3.56H24.92V0Z" fill="white"/>
<path d="M32.04 0H28.48V3.56H32.04V0Z" fill="white"/>
<path d="M39.16 0H35.6V3.56H39.16V0Z" fill="white"/>
<path d="M42.72 0H39.16V3.56H42.72V0Z" fill="white"/>
<path d="M53.4 0H49.84V3.56H53.4V0Z" fill="white"/>
<path d="M60.52 0H56.96V3.56H60.52V0Z" fill="white"/>
<path d="M67.64 0H64.08V3.56H67.64V0Z" fill="white"/>
<path d="M71.2 0H67.64V3.56H71.2V0Z" fill="white"/>
<path d="M74.76 0H71.2V3.56H74.76V0Z" fill="white"/>
<path d="M78.32 0H74.76V3.56H78.32V0Z" fill="white"/>
<path d="M81.88 0H78.32V3.56H81.88V0Z" fill="white"/>
<path d="M85.44 0H81.88V3.56H85.44V0Z" fill="white"/>
<path d="M89 0H85.44V3.56H89V0Z" fill="white"/>
<path d="M3.56 3.56H0V7.12H3.56V3.56Z" fill="white"/>
<path d="M24.92 3.56H21.36L21.36 7.12H24.92V3.56Z" fill="white"/>
<path d="M35.6 3.56H32.04V7.12H35.6V3.56Z" fill="white"/>
<path d="M39.16 3.56H35.6V7.12H39.16V3.56Z" fill="white"/>
<path d="M42.72 3.56H39.16V7.12H42.72V3.56Z" fill="white"/>
<path d="M46.28 3.56H42.72V7.12H46.28V3.56Z" fill="white"/>
<path d="M49.84 3.56H46.28V7.12H49.84V3.56Z" fill="white"/>
<path d="M53.4 3.56H49.84V7.12H53.4V3.56Z" fill="white"/>
<path d="M60.52 3.56H56.96V7.12H60.52V3.56Z" fill="white"/>
<path d="M67.64 3.56H64.08V7.12H67.64V3.56Z" fill="white"/>
<path d="M89 3.56H85.44V7.12H89V3.56Z" fill="white"/>
<path d="M3.56 7.12H0V10.68H3.56V7.12Z" fill="white"/>
<path d="M10.68 7.12H7.12V10.68H10.68V7.12Z" fill="white"/>
<path d="M14.24 7.12H10.68V10.68H14.24V7.12Z" fill="white"/>
<path d="M17.8 7.12H14.24V10.68H17.8V7.12Z" fill="white"/>
<path d="M24.92 7.12H21.36V10.68H24.92V7.12Z" fill="white"/>
<path d="M32.04 7.12H28.48V10.68H32.04V7.12Z" fill="white"/>
<path d="M35.6 7.12H32.04V10.68H35.6V7.12Z" fill="white"/>
<path d="M39.16 7.12H35.6V10.68H39.16V7.12Z" fill="white"/>
<path d="M42.72 7.12H39.16V10.68H42.72V7.12Z" fill="white"/>
<path d="M46.28 7.12H42.72V10.68H46.28V7.12Z" fill="white"/>
<path d="M49.84 7.12H46.28V10.68H49.84V7.12Z" fill="white"/>
<path d="M60.52 7.12H56.96V10.68H60.52V7.12Z" fill="white"/>
<path d="M67.64 7.12H64.08V10.68H67.64V7.12Z" fill="white"/>
<path d="M74.76 7.12H71.2V10.68H74.76V7.12Z" fill="white"/>
<path d="M78.32 7.12H74.76V10.68H78.32V7.12Z" fill="white"/>
<path d="M81.88 7.12H78.32V10.68H81.88V7.12Z" fill="white"/>
<path d="M89 7.12H85.44V10.68H89V7.12Z" fill="white"/>
<path d="M3.56 10.68H0V14.24H3.56V10.68Z" fill="white"/>
<path d="M10.68 10.68H7.12V14.24H10.68V10.68Z" fill="white"/>
<path d="M14.24 10.68H10.68V14.24H14.24V10.68Z" fill="white"/>
<path d="M17.8 10.68H14.24V14.24H17.8V10.68Z" fill="white"/>
<path d="M24.92 10.68H21.36V14.24H24.92V10.68Z" fill="white"/>
<path d="M35.6 10.68H32.04V14.24H35.6V10.68Z" fill="white"/>
<path d="M39.16 10.68H35.6V14.24H39.16V10.68Z" fill="white"/>
<path d="M49.84 10.68H46.28V14.24H49.84V10.68Z" fill="white"/>
<path d="M56.96 10.68H53.4V14.24H56.96V10.68Z" fill="white"/>
<path d="M60.52 10.68H56.96V14.24H60.52V10.68Z" fill="white"/>
<path d="M67.64 10.68H64.08V14.24H67.64V10.68Z" fill="white"/>
<path d="M74.76 10.68H71.2V14.24H74.76V10.68Z" fill="white"/>
<path d="M78.32 10.68H74.76V14.24H78.32V10.68Z" fill="white"/>
<path d="M81.88 10.68H78.32V14.24H81.88V10.68Z" fill="white"/>
<path d="M89 10.68H85.44V14.24H89V10.68Z" fill="white"/>
<path d="M3.56 14.24H0V17.8H3.56V14.24Z" fill="white"/>
<path d="M10.68 14.24H7.12V17.8H10.68V14.24Z" fill="white"/>
<path d="M14.24 14.24H10.68V17.8H14.24V14.24Z" fill="white"/>
<path d="M17.8 14.24H14.24V17.8H17.8V14.24Z" fill="white"/>
<path d="M24.92 14.24H21.36V17.8H24.92V14.24Z" fill="white"/>
<path d="M35.6 14.24H32.04V17.8H35.6V14.24Z" fill="white"/>
<path d="M39.16 14.24H35.6V17.8H39.16V14.24Z" fill="white"/>
<path d="M42.72 14.24H39.16V17.8H42.72V14.24Z" fill="white"/>
<path d="M46.28 14.24H42.72V17.8H46.28V14.24Z" fill="white"/>
<path d="M49.84 14.24H46.28V17.8H49.84V14.24Z" fill="white"/>
<path d="M53.4 14.24H49.84V17.8H53.4L53.4 14.24Z" fill="white"/>
<path d="M60.52 14.24H56.96V17.8H60.52V14.24Z" fill="white"/>
<path d="M67.64 14.24H64.08V17.8H67.64V14.24Z" fill="white"/>
<path d="M74.76 14.24H71.2V17.8H74.76V14.24Z" fill="white"/>
<path d="M78.32 14.24H74.76V17.8H78.32V14.24Z" fill="white"/>
<path d="M81.88 14.24H78.32V17.8H81.88V14.24Z" fill="white"/>
<path d="M89 14.24H85.44V17.8H89V14.24Z" fill="white"/>
<path d="M3.56 17.8H0V21.36H3.56V17.8Z" fill="white"/>
<path d="M24.92 17.8H21.36V21.36H24.92V17.8Z" fill="white"/>
<path d="M35.6 17.8H32.04V21.36H35.6V17.8Z" fill="white"/>
<path d="M39.16 17.8H35.6V21.36H39.16V17.8Z" fill="white"/>
<path d="M49.84 17.8H46.28V21.36H49.84V17.8Z" fill="white"/>
<path d="M56.96 17.8H53.4L53.4 21.36H56.96V17.8Z" fill="white"/>
<path d="M60.52 17.8H56.96V21.36H60.52V17.8Z" fill="white"/>
<path d="M67.64 17.8H64.08V21.36H67.64V17.8Z" fill="white"/>
<path d="M89 17.8H85.44V21.36H89V17.8Z" fill="white"/>
<path d="M3.56 21.36H0V24.92H3.56V21.36Z" fill="white"/>
<path d="M7.12 21.36L3.56 21.36V24.92H7.12V21.36Z" fill="white"/>
<path d="M10.68 21.36H7.12V24.92H10.68V21.36Z" fill="white"/>
<path d="M14.24 21.36H10.68V24.92H14.24V21.36Z" fill="white"/>
<path d="M17.8 21.36H14.24V24.92H17.8V21.36Z" fill="white"/>
<path d="M21.36 21.36L17.8 21.36V24.92H21.36L21.36 21.36Z" fill="white"/>
<path d="M24.92 21.36H21.36L21.36 24.92H24.92V21.36Z" fill="white"/>
<path d="M32.04 21.36L28.48 21.36V24.92H32.04V21.36Z" fill="white"/>
<path d="M39.16 21.36H35.6V24.92H39.16V21.36Z" fill="white"/>
<path d="M46.28 21.36L42.72 21.36V24.92H46.28V21.36Z" fill="white"/>
<path d="M53.4 21.36H49.84V24.92H53.4L53.4 21.36Z" fill="white"/>
<path d="M60.52 21.36H56.96V24.92H60.52V21.36Z" fill="white"/>
<path d="M67.64 21.36H64.08V24.92H67.64V21.36Z" fill="white"/>
<path d="M71.2 21.36L67.64 21.36V24.92H71.2V21.36Z" fill="white"/>
<path d="M74.76 21.36H71.2V24.92H74.76V21.36Z" fill="white"/>
<path d="M78.32 21.36H74.76V24.92H78.32V21.36Z" fill="white"/>
<path d="M81.88 21.36H78.32V24.92H81.88V21.36Z" fill="white"/>
<path d="M85.44 21.36L81.88 21.36V24.92H85.44V21.36Z" fill="white"/>
<path d="M89 21.36H85.44V24.92H89V21.36Z" fill="white"/>
<path d="M32.04 24.92H28.48V28.48H32.04V24.92Z" fill="white"/>
<path d="M35.6 24.92H32.04V28.48H35.6V24.92Z" fill="white"/>
<path d="M46.28 24.92H42.72V28.48H46.28V24.92Z" fill="white"/>
<path d="M3.56 28.48H0V32.04H3.56V28.48Z" fill="white"/>
<path d="M10.68 28.48H7.12V32.04H10.68V28.48Z" fill="white"/>
<path d="M21.36 28.48H17.8V32.04H21.36V28.48Z" fill="white"/>
<path d="M24.92 28.48H21.36V32.04H24.92V28.48Z" fill="white"/>
<path d="M39.16 28.48H35.6V32.04H39.16V28.48Z" fill="white"/>
<path d="M42.72 28.48H39.16V32.04H42.72V28.48Z" fill="white"/>
<path d="M49.84 28.48H46.28V32.04H49.84V28.48Z" fill="white"/>
<path d="M53.4 28.48H49.84V32.04H53.4V28.48Z" fill="white"/>
<path d="M64.08 28.48H60.52V32.04H64.08V28.48Z" fill="white"/>
<path d="M67.64 28.48H64.08V32.04H67.64V28.48Z" fill="white"/>
<path d="M81.88 28.48H78.32V32.04H81.88V28.48Z" fill="white"/>
<path d="M89 28.48H85.44V32.04H89V28.48Z" fill="white"/>
<path d="M7.12 32.04H3.56V35.6H7.12V32.04Z" fill="white"/>
<path d="M14.24 32.04H10.68V35.6H14.24V32.04Z" fill="white"/>
<path d="M21.36 32.04H17.8V35.6H21.36V32.04Z" fill="white"/>
<path d="M35.6 32.04H32.04V35.6H35.6V32.04Z" fill="white"/>
<path d="M42.72 32.04H39.16V35.6H42.72V32.04Z" fill="white"/>
<path d="M49.84 32.04H46.28V35.6H49.84V32.04Z" fill="white"/>
<path d="M56.96 32.04H53.4L53.4 35.6H56.96V32.04Z" fill="white"/>
<path d="M78.32 32.04H74.76V35.6H78.32V32.04Z" fill="white"/>
<path d="M89 32.04H85.44V35.6H89V32.04Z" fill="white"/>
<path d="M7.12 35.6H3.56V39.16H7.12V35.6Z" fill="white"/>
<path d="M17.8 35.6H14.24V39.16H17.8V35.6Z" fill="white"/>
<path d="M21.36 35.6H17.8V39.16H21.36V35.6Z" fill="white"/>
<path d="M24.92 35.6H21.36V39.16H24.92V35.6Z" fill="white"/>
<path d="M32.04 35.6H28.48V39.16H32.04V35.6Z" fill="white"/>
<path d="M42.72 35.6H39.16V39.16H42.72V35.6Z" fill="white"/>
<path d="M46.28 35.6H42.72V39.16H46.28V35.6Z" fill="white"/>
<path d="M49.84 35.6H46.28V39.16H49.84V35.6Z" fill="white"/>
<path d="M53.4 35.6H49.84V39.16H53.4L53.4 35.6Z" fill="white"/>
<path d="M60.52 35.6H56.96V39.16H60.52V35.6Z" fill="white"/>
<path d="M67.64 35.6H64.08V39.16H67.64V35.6Z" fill="white"/>
<path d="M71.2 35.6H67.64V39.16H71.2V35.6Z" fill="white"/>
<path d="M81.88 35.6H78.32V39.16H81.88V35.6Z" fill="white"/>
<path d="M85.44 35.6H81.88V39.16H85.44V35.6Z" fill="white"/>
<path d="M7.12 39.16H3.56V42.72H7.12V39.16Z" fill="white"/>
<path d="M10.68 39.16H7.12V42.72H10.68V39.16Z" fill="white"/>
<path d="M14.24 39.16H10.68V42.72H14.24V39.16Z" fill="white"/>
<path d="M21.36 39.16H17.8V42.72H21.36V39.16Z" fill="white"/>
<path d="M28.48 39.16H24.92V42.72H28.48V39.16Z" fill="white"/>
<path d="M39.16 39.16H35.6V42.72H39.16V39.16Z" fill="white"/>
<path d="M42.72 39.16H39.16V42.72H42.72V39.16Z" fill="white"/>
<path d="M56.96 39.16H53.4L53.4 42.72H56.96V39.16Z" fill="white"/>
<path d="M67.64 39.16H64.08V42.72H67.64V39.16Z" fill="white"/>
<path d="M74.76 39.16H71.2V42.72H74.76V39.16Z" fill="white"/>
<path d="M85.44 39.16H81.88V42.72H85.44V39.16Z" fill="white"/>
<path d="M7.12 42.72H3.56V46.28H7.12V42.72Z" fill="white"/>
<path d="M21.36 42.72H17.8V46.28H21.36V42.72Z" fill="white"/>
<path d="M24.92 42.72H21.36V46.28H24.92V42.72Z" fill="white"/>
<path d="M28.48 42.72H24.92V46.28H28.48V42.72Z" fill="white"/>
<path d="M35.6 42.72H32.04V46.28H35.6V42.72Z" fill="white"/>
<path d="M42.72 42.72H39.16V46.28H42.72V42.72Z" fill="white"/>
<path d="M46.28 42.72H42.72V46.28H46.28V42.72Z" fill="white"/>
<path d="M49.84 42.72H46.28V46.28H49.84V42.72Z" fill="white"/>
<path d="M53.4 42.72H49.84V46.28H53.4L53.4 42.72Z" fill="white"/>
<path d="M56.96 42.72H53.4L53.4 46.28H56.96V42.72Z" fill="white"/>
<path d="M74.76 42.72H71.2V46.28H74.76V42.72Z" fill="white"/>
<path d="M78.32 42.72H74.76V46.28H78.32V42.72Z" fill="white"/>
<path d="M81.88 42.72H78.32V46.28H81.88V42.72Z" fill="white"/>
<path d="M85.44 42.72H81.88V46.28H85.44V42.72Z" fill="white"/>
<path d="M89 42.72H85.44V46.28H89V42.72Z" fill="white"/>
<path d="M7.12 46.28H3.56V49.84H7.12V46.28Z" fill="white"/>
<path d="M10.68 46.28H7.12V49.84H10.68V46.28Z" fill="white"/>
<path d="M14.24 46.28H10.68V49.84H14.24V46.28Z" fill="white"/>
<path d="M17.8 46.28H14.24V49.84H17.8V46.28Z" fill="white"/>
<path d="M21.36 46.28H17.8V49.84H21.36V46.28Z" fill="white"/>
<path d="M39.16 46.28H35.6V49.84H39.16V46.28Z" fill="white"/>
<path d="M49.84 46.28H46.28V49.84H49.84V46.28Z" fill="white"/>
<path d="M64.08 46.28H60.52V49.84H64.08V46.28Z" fill="white"/>
<path d="M67.64 46.28H64.08V49.84H67.64V46.28Z" fill="white"/>
<path d="M78.32 46.28H74.76V49.84H78.32V46.28Z" fill="white"/>
<path d="M89 46.28H85.44V49.84H89V46.28Z" fill="white"/>
<path d="M3.56 49.84H0V53.4H3.56V49.84Z" fill="white"/>
<path d="M7.12 49.84H3.56V53.4H7.12V49.84Z" fill="white"/>
<path d="M10.68 49.84H7.12V53.4H10.68V49.84Z" fill="white"/>
<path d="M14.24 49.84H10.68V53.4H14.24V49.84Z" fill="white"/>
<path d="M17.8 49.84H14.24V53.4H17.8V49.84Z" fill="white"/>
<path d="M21.36 49.84H17.8V53.4H21.36V49.84Z" fill="white"/>
<path d="M24.92 49.84H21.36V53.4H24.92V49.84Z" fill="white"/>
<path d="M28.48 49.84H24.92V53.4H28.48V49.84Z" fill="white"/>
<path d="M42.72 49.84H39.16V53.4H42.72V49.84Z" fill="white"/>
<path d="M46.28 49.84H42.72V53.4H46.28V49.84Z" fill="white"/>
<path d="M67.64 49.84H64.08V53.4H67.64V49.84Z" fill="white"/>
<path d="M71.2 49.84H67.64V53.4H71.2V49.84Z" fill="white"/>
<path d="M85.44 49.84H81.88V53.4H85.44V49.84Z" fill="white"/>
<path d="M89 49.84H85.44V53.4H89V49.84Z" fill="white"/>
<path d="M10.68 53.4H7.12V56.96H10.68V53.4Z" fill="white"/>
<path d="M35.6 53.4H32.04V56.96H35.6V53.4Z" fill="white"/>
<path d="M39.16 53.4L35.6 53.4V56.96H39.16V53.4Z" fill="white"/>
<path d="M42.72 53.4H39.16V56.96H42.72V53.4Z" fill="white"/>
<path d="M46.28 53.4H42.72V56.96H46.28V53.4Z" fill="white"/>
<path d="M49.84 53.4L46.28 53.4V56.96H49.84V53.4Z" fill="white"/>
<path d="M53.4 53.4H49.84V56.96H53.4V53.4Z" fill="white"/>
<path d="M64.08 53.4L60.52 53.4V56.96H64.08V53.4Z" fill="white"/>
<path d="M71.2 53.4H67.64V56.96H71.2V53.4Z" fill="white"/>
<path d="M74.76 53.4L71.2 53.4V56.96H74.76V53.4Z" fill="white"/>
<path d="M78.32 53.4H74.76V56.96H78.32V53.4Z" fill="white"/>
<path d="M7.12 56.96H3.56V60.52H7.12V56.96Z" fill="white"/>
<path d="M10.68 56.96H7.12V60.52H10.68V56.96Z" fill="white"/>
<path d="M24.92 56.96H21.36V60.52H24.92V56.96Z" fill="white"/>
<path d="M32.04 56.96H28.48V60.52H32.04V56.96Z" fill="white"/>
<path d="M35.6 56.96H32.04V60.52H35.6V56.96Z" fill="white"/>
<path d="M46.28 56.96H42.72V60.52H46.28V56.96Z" fill="white"/>
<path d="M49.84 56.96H46.28V60.52H49.84V56.96Z" fill="white"/>
<path d="M53.4 56.96H49.84V60.52H53.4V56.96Z" fill="white"/>
<path d="M60.52 56.96H56.96V60.52H60.52V56.96Z" fill="white"/>
<path d="M64.08 56.96H60.52V60.52H64.08V56.96Z" fill="white"/>
<path d="M67.64 56.96H64.08V60.52H67.64V56.96Z" fill="white"/>
<path d="M71.2 56.96H67.64V60.52H71.2V56.96Z" fill="white"/>
<path d="M74.76 56.96H71.2V60.52H74.76V56.96Z" fill="white"/>
<path d="M81.88 56.96H78.32V60.52H81.88V56.96Z" fill="white"/>
<path d="M85.44 56.96H81.88V60.52H85.44V56.96Z" fill="white"/>
<path d="M89 56.96H85.44V60.52H89V56.96Z" fill="white"/>
<path d="M42.72 60.52H39.16V64.08H42.72V60.52Z" fill="white"/>
<path d="M49.84 60.52H46.28V64.08H49.84V60.52Z" fill="white"/>
<path d="M60.52 60.52H56.96V64.08H60.52V60.52Z" fill="white"/>
<path d="M74.76 60.52H71.2V64.08H74.76V60.52Z" fill="white"/>
<path d="M78.32 60.52H74.76V64.08H78.32V60.52Z" fill="white"/>
<path d="M3.56 64.08H0V67.64H3.56V64.08Z" fill="white"/>
<path d="M7.12 64.08H3.56V67.64H7.12V64.08Z" fill="white"/>
<path d="M10.68 64.08H7.12V67.64H10.68V64.08Z" fill="white"/>
<path d="M14.24 64.08H10.68V67.64H14.24V64.08Z" fill="white"/>
<path d="M17.8 64.08H14.24V67.64H17.8V64.08Z" fill="white"/>
<path d="M21.36 64.08H17.8V67.64H21.36V64.08Z" fill="white"/>
<path d="M24.92 64.08H21.36V67.64H24.92V64.08Z" fill="white"/>
<path d="M35.6 64.08H32.04V67.64H35.6V64.08Z" fill="white"/>
<path d="M39.16 64.08H35.6V67.64H39.16V64.08Z" fill="white"/>
<path d="M46.28 64.08H42.72V67.64H46.28V64.08Z" fill="white"/>
<path d="M49.84 64.08H46.28V67.64H49.84V64.08Z" fill="white"/>
<path d="M53.4 64.08H49.84V67.64H53.4V64.08Z" fill="white"/>
<path d="M60.52 64.08H56.96V67.64H60.52V64.08Z" fill="white"/>
<path d="M67.64 64.08H64.08V67.64H67.64V64.08Z" fill="white"/>
<path d="M74.76 64.08H71.2V67.64H74.76V64.08Z" fill="white"/>
<path d="M3.56 67.64H0V71.2H3.56V67.64Z" fill="white"/>
<path d="M24.92 67.64H21.36L21.36 71.2H24.92V67.64Z" fill="white"/>
<path d="M32.04 67.64H28.48V71.2H32.04V67.64Z" fill="white"/>
<path d="M35.6 67.64H32.04V71.2H35.6V67.64Z" fill="white"/>
<path d="M39.16 67.64H35.6V71.2H39.16V67.64Z" fill="white"/>
<path d="M42.72 67.64H39.16V71.2H42.72V67.64Z" fill="white"/>
<path d="M46.28 67.64H42.72V71.2H46.28V67.64Z" fill="white"/>
<path d="M49.84 67.64H46.28V71.2H49.84V67.64Z" fill="white"/>
<path d="M56.96 67.64H53.4L53.4 71.2H56.96V67.64Z" fill="white"/>
<path d="M60.52 67.64H56.96V71.2H60.52V67.64Z" fill="white"/>
<path d="M74.76 67.64H71.2V71.2H74.76V67.64Z" fill="white"/>
<path d="M81.88 67.64H78.32V71.2H81.88V67.64Z" fill="white"/>
<path d="M85.44 67.64H81.88V71.2H85.44V67.64Z" fill="white"/>
<path d="M3.56 71.2H0V74.76H3.56V71.2Z" fill="white"/>
<path d="M10.68 71.2H7.12V74.76H10.68V71.2Z" fill="white"/>
<path d="M14.24 71.2H10.68V74.76H14.24V71.2Z" fill="white"/>
<path d="M17.8 71.2H14.24V74.76H17.8V71.2Z" fill="white"/>
<path d="M24.92 71.2H21.36V74.76H24.92V71.2Z" fill="white"/>
<path d="M39.16 71.2H35.6V74.76H39.16V71.2Z" fill="white"/>
<path d="M42.72 71.2H39.16V74.76H42.72V71.2Z" fill="white"/>
<path d="M56.96 71.2H53.4V74.76H56.96V71.2Z" fill="white"/>
<path d="M60.52 71.2H56.96V74.76H60.52V71.2Z" fill="white"/>
<path d="M64.08 71.2H60.52V74.76H64.08V71.2Z" fill="white"/>
<path d="M67.64 71.2H64.08V74.76H67.64V71.2Z" fill="white"/>
<path d="M71.2 71.2H67.64V74.76H71.2V71.2Z" fill="white"/>
<path d="M74.76 71.2H71.2V74.76H74.76V71.2Z" fill="white"/>
<path d="M78.32 71.2H74.76V74.76H78.32V71.2Z" fill="white"/>
<path d="M81.88 71.2H78.32V74.76H81.88V71.2Z" fill="white"/>
<path d="M85.44 71.2H81.88V74.76H85.44V71.2Z" fill="white"/>
<path d="M3.56 74.76H0V78.32H3.56V74.76Z" fill="white"/>
<path d="M10.68 74.76H7.12V78.32H10.68V74.76Z" fill="white"/>
<path d="M14.24 74.76H10.68V78.32H14.24V74.76Z" fill="white"/>
<path d="M17.8 74.76H14.24V78.32H17.8V74.76Z" fill="white"/>
<path d="M24.92 74.76H21.36V78.32H24.92V74.76Z" fill="white"/>
<path d="M35.6 74.76H32.04V78.32H35.6V74.76Z" fill="white"/>
<path d="M39.16 74.76H35.6V78.32H39.16V74.76Z" fill="white"/>
<path d="M42.72 74.76H39.16V78.32H42.72V74.76Z" fill="white"/>
<path d="M53.4 74.76H49.84V78.32H53.4L53.4 74.76Z" fill="white"/>
<path d="M56.96 74.76H53.4L53.4 78.32H56.96V74.76Z" fill="white"/>
<path d="M81.88 74.76H78.32V78.32H81.88V74.76Z" fill="white"/>
<path d="M89 74.76H85.44V78.32H89V74.76Z" fill="white"/>
<path d="M3.56 78.32H0V81.88H3.56V78.32Z" fill="white"/>
<path d="M10.68 78.32H7.12V81.88H10.68V78.32Z" fill="white"/>
<path d="M14.24 78.32H10.68V81.88H14.24V78.32Z" fill="white"/>
<path d="M17.8 78.32H14.24V81.88H17.8V78.32Z" fill="white"/>
<path d="M24.92 78.32H21.36V81.88H24.92V78.32Z" fill="white"/>
<path d="M32.04 78.32H28.48V81.88H32.04V78.32Z" fill="white"/>
<path d="M39.16 78.32H35.6V81.88H39.16V78.32Z" fill="white"/>
<path d="M53.4 78.32H49.84V81.88H53.4V78.32Z" fill="white"/>
<path d="M78.32 78.32H74.76V81.88H78.32V78.32Z" fill="white"/>
<path d="M3.56 81.88H0V85.44H3.56V81.88Z" fill="white"/>
<path d="M24.92 81.88H21.36V85.44H24.92V81.88Z" fill="white"/>
<path d="M35.6 81.88H32.04V85.44H35.6V81.88Z" fill="white"/>
<path d="M49.84 81.88H46.28V85.44H49.84V81.88Z" fill="white"/>
<path d="M60.52 81.88H56.96V85.44H60.52V81.88Z" fill="white"/>
<path d="M71.2 81.88H67.64V85.44H71.2V81.88Z" fill="white"/>
<path d="M78.32 81.88H74.76V85.44H78.32V81.88Z" fill="white"/>
<path d="M81.88 81.88H78.32V85.44H81.88V81.88Z" fill="white"/>
<path d="M3.56 85.44H0V89H3.56V85.44Z" fill="white"/>
<path d="M7.12 85.44H3.56V89H7.12V85.44Z" fill="white"/>
<path d="M10.68 85.44H7.12V89H10.68V85.44Z" fill="white"/>
<path d="M14.24 85.44H10.68V89H14.24V85.44Z" fill="white"/>
<path d="M17.8 85.44H14.24V89H17.8V85.44Z" fill="white"/>
<path d="M21.36 85.44H17.8V89H21.36L21.36 85.44Z" fill="white"/>
<path d="M24.92 85.44H21.36L21.36 89H24.92V85.44Z" fill="white"/>
<path d="M32.04 85.44H28.48V89H32.04V85.44Z" fill="white"/>
<path d="M35.6 85.44H32.04V89H35.6V85.44Z" fill="white"/>
<path d="M39.16 85.44H35.6V89H39.16V85.44Z" fill="white"/>
<path d="M46.28 85.44H42.72V89H46.28V85.44Z" fill="white"/>
<path d="M49.84 85.44H46.28V89H49.84V85.44Z" fill="white"/>
<path d="M53.4 85.44H49.84V89H53.4V85.44Z" fill="white"/>
<path d="M64.08 85.44H60.52V89H64.08V85.44Z" fill="white"/>
<path d="M67.64 85.44H64.08V89H67.64V85.44Z" fill="white"/>
<path d="M71.2 85.44H67.64V89H71.2V85.44Z" fill="white"/>
<path d="M74.76 85.44H71.2V89H74.76V85.44Z" fill="white"/>
<path d="M81.88 85.44H78.32V89H81.88V85.44Z" fill="white"/>
<path d="M89 85.44H85.44V89H89V85.44Z" fill="white"/>
</svg>
