<svg width="12" height="14" viewBox="0 0 12 14" fill="none" xmlns="http://www.w3.org/2000/svg">
<path d="M1 13.6497C0.733333 13.6497 0.5 13.5497 0.3 13.3497C0.1 13.1497 0 12.9164 0 12.6497V2.59974H1V12.6497H8.9V13.6497H1ZM3 11.6497C2.73333 11.6497 2.5 11.5497 2.3 11.3497C2.1 11.1497 2 10.9164 2 10.6497V1.31641C2 1.04974 2.1 0.816406 2.3 0.616406C2.5 0.416406 2.73333 0.316406 3 0.316406H10.3333C10.6 0.316406 10.8333 0.416406 11.0333 0.616406C11.2333 0.816406 11.3333 1.04974 11.3333 1.31641V10.6497C11.3333 10.9164 11.2333 11.1497 11.0333 11.3497C10.8333 11.5497 10.6 11.6497 10.3333 11.6497H3ZM3 10.6497H10.3333V1.31641H3V10.6497Z" fill="white"/>
</svg>
