<svg width="64" height="64" viewBox="0 0 64 64" fill="none" xmlns="http://www.w3.org/2000/svg">
<path d="M0 32C0 14.3269 14.3269 0 32 0C49.6731 0 64 14.3269 64 32C64 49.6731 49.6731 64 32 64C14.3269 64 0 49.6731 0 32Z" fill="#627EEA"/>
<path d="M32.0357 9.45415V9.47663C32.0582 9.58902 32.0582 9.72389 32.0582 9.85876V26.0656C32.0357 26.1555 31.9683 26.178 31.9008 26.2229C31.4285 26.4477 30.9786 26.65 30.5063 26.8523C29.854 27.1445 29.1793 27.4592 28.527 27.7514L26.1653 28.8304C25.5131 29.1226 24.8608 29.4148 24.231 29.7071C23.4663 30.0667 22.6791 30.4039 21.9144 30.7635C21.2621 31.0558 20.6098 31.3704 19.9351 31.6627C19.3953 31.9099 18.8555 32.1347 18.3381 32.382C18.2932 32.4044 18.2482 32.4269 18.2032 32.4269C18.1807 32.4269 18.1807 32.4269 18.1582 32.4044L18.7655 31.3929C19.9351 29.4598 21.0822 27.5491 22.2517 25.616C23.4888 23.548 24.7483 21.48 25.9854 19.412C27.1325 17.5014 28.3021 15.5907 29.4492 13.6801C30.2814 12.2864 31.1361 10.8928 31.9683 9.49911C31.9908 9.45415 32.0132 9.43168 32.0132 9.38672H32.0357C32.0132 9.4092 32.0357 9.43168 32.0357 9.45415Z" fill="white"/>
<path d="M45.8453 32.4038L45.8678 32.4263L42.5615 34.3819L32.1702 40.5185C32.1252 40.541 32.0802 40.5634 32.0577 40.5859C31.9902 40.5859 31.9902 40.5185 31.9902 40.496V40.2937V26.4021C31.9902 26.3347 31.9902 26.2448 32.0127 26.1774C32.0352 26.0875 32.1027 26.1099 32.1702 26.1324C32.4626 26.2673 32.7775 26.4021 33.0698 26.537C33.947 26.9416 34.8242 27.3462 35.7014 27.7284C36.4661 28.0655 37.2084 28.4252 37.9731 28.7624C38.7378 29.0995 39.5025 29.4592 40.2673 29.7964C40.9195 30.0886 41.5943 30.4033 42.2466 30.6955C42.8988 30.9877 43.5736 31.3024 44.2259 31.5946C44.7432 31.8194 45.2605 32.0667 45.7778 32.2914C45.7778 32.3589 45.8003 32.3814 45.8453 32.4038Z" fill="#8197EE"/>
<path d="M32.0338 54.5462C32.0338 54.5687 32.0113 54.5912 32.0113 54.6137H31.9888C31.9888 54.5687 31.9438 54.5462 31.9213 54.5013C30.5268 52.5457 29.1323 50.5676 27.7378 48.612C26.3208 46.6114 24.8813 44.5884 23.4644 42.5878C22.0923 40.6547 20.6978 38.6991 19.3258 36.7659C18.966 36.2489 18.6061 35.7544 18.2462 35.2374C18.2237 35.1925 18.2012 35.17 18.1562 35.1025C18.2237 35.1025 18.2687 35.1475 18.2912 35.17C20.248 36.3164 22.1823 37.4628 24.1391 38.6091C26.3883 39.9354 28.615 41.2616 30.8642 42.5878L32.0113 43.2621C32.0563 43.3071 32.0563 43.3521 32.0563 43.397V54.2315C32.0563 54.3439 32.0563 54.4563 32.0338 54.5462Z" fill="white"/>
<path d="M18.1348 32.4492V32.4267C18.8545 32.112 19.5518 31.7749 20.2715 31.4602C21.1937 31.0331 22.1158 30.6285 23.038 30.2014C23.7353 29.8867 24.455 29.5495 25.1523 29.2348C26.1869 28.7628 27.199 28.3132 28.2336 27.8412C28.9309 27.5265 29.6281 27.2118 30.3479 26.8746C30.8427 26.6498 31.36 26.425 31.8549 26.2003C31.8998 26.1778 31.9673 26.1553 31.9898 26.1104C32.0123 26.1104 32.0123 26.1328 31.9898 26.1553V40.429C31.9898 40.4964 31.9673 40.5639 32.0123 40.6088C31.9673 40.6763 31.9223 40.6088 31.8998 40.5863C31.6974 40.474 31.495 40.3616 31.2926 40.2267C26.9516 37.6642 22.5882 35.0792 18.2472 32.5167C18.2247 32.4942 18.1797 32.4717 18.1348 32.4492Z" fill="#C0CBF6"/>
<path d="M45.8012 35.1025H45.8237C45.8237 35.1475 45.7788 35.1925 45.7563 35.2374C41.6177 41.0593 37.4792 46.9036 33.3407 52.7255C32.9134 53.3324 32.4635 53.9393 32.0362 54.5462C32.0137 54.5238 32.0137 54.5013 32.0137 54.4788V54.3439V43.442V43.2397C32.9583 42.6777 33.8805 42.1382 34.8252 41.5763C38.4689 39.4184 42.1126 37.2829 45.7338 35.125C45.7563 35.1475 45.7788 35.125 45.8012 35.1025Z" fill="#C0CBF6"/>
<path d="M32.0118 26.1545V26.1095V25.9746V9.65541C32.0118 9.58798 31.9893 9.54302 32.0343 9.47559C36.6001 17.0508 41.166 24.6035 45.7094 32.1786C45.7544 32.2461 45.8218 32.336 45.8443 32.4259C45.5295 32.3135 45.2371 32.1561 44.9447 32.0213C44.5848 31.8639 44.2024 31.6841 43.8426 31.5268C43.6176 31.4144 43.3702 31.3244 43.1453 31.2121C42.7629 31.0322 42.3806 30.8749 41.9982 30.6951C41.7733 30.6051 41.5484 30.4928 41.3235 30.3804L39.839 29.706C39.5916 29.5936 39.3442 29.4812 39.0743 29.3688L37.9946 28.8968C37.7697 28.8069 37.5448 28.6945 37.3199 28.5821L35.8354 27.9078C35.588 27.7954 35.3406 27.683 35.0707 27.5706L33.9911 27.0985C33.7437 26.9861 33.5187 26.8738 33.2713 26.7614C32.844 26.5591 32.4166 26.3568 31.9668 26.1769C32.0343 26.1545 32.0118 26.1545 32.0118 26.1545Z" fill="#C0CBF6"/>
<path d="M32 63C14.8792 63 1 49.1208 1 32H-1C-1 50.2254 13.7746 65 32 65V63ZM63 32C63 49.1208 49.1208 63 32 63V65C50.2254 65 65 50.2254 65 32H63ZM32 1C49.1208 1 63 14.8792 63 32H65C65 13.7746 50.2254 -1 32 -1V1ZM32 -1C13.7746 -1 -1 13.7746 -1 32H1C1 14.8792 14.8792 1 32 1V-1Z" fill="black" fill-opacity="0.08"/>
</svg>
