<svg width="62" height="24" viewBox="0 0 62 24" fill="none" xmlns="http://www.w3.org/2000/svg">
<rect x="0.5" y="0.5" width="61" height="23" rx="7.5" stroke="url(#paint0_linear_747_8342)"/>
<path d="M18.9588 16V7.27273H22.0696C22.7486 7.27273 23.3111 7.39631 23.7571 7.64347C24.2031 7.89062 24.5369 8.22869 24.7585 8.65767C24.9801 9.08381 25.0909 9.56392 25.0909 10.098C25.0909 10.6349 24.9787 11.1179 24.7543 11.5469C24.5327 11.973 24.1974 12.3111 23.7486 12.5611C23.3026 12.8082 22.7415 12.9318 22.0653 12.9318H19.9261V11.8153H21.946C22.375 11.8153 22.723 11.7415 22.9901 11.5938C23.2571 11.4432 23.4531 11.2386 23.5781 10.9801C23.7031 10.7216 23.7656 10.4276 23.7656 10.098C23.7656 9.76847 23.7031 9.47585 23.5781 9.22017C23.4531 8.96449 23.2557 8.7642 22.9858 8.61932C22.7188 8.47443 22.3665 8.40199 21.929 8.40199H20.2756V16H18.9588ZM28.3786 16.1449C27.9638 16.1449 27.5888 16.0682 27.2536 15.9148C26.9183 15.7585 26.6527 15.5327 26.4567 15.2372C26.2635 14.9418 26.1669 14.5795 26.1669 14.1506C26.1669 13.7812 26.2379 13.4773 26.38 13.2386C26.522 13 26.7138 12.8111 26.9553 12.6719C27.1967 12.5327 27.4666 12.4276 27.7649 12.3565C28.0632 12.2855 28.3672 12.2315 28.6768 12.1946C29.0689 12.1491 29.3871 12.1122 29.6314 12.0838C29.8757 12.0526 30.0533 12.0028 30.1641 11.9347C30.2749 11.8665 30.3303 11.7557 30.3303 11.6023V11.5724C30.3303 11.2003 30.2251 10.9119 30.0149 10.7074C29.8075 10.5028 29.4979 10.4006 29.0859 10.4006C28.657 10.4006 28.3189 10.4957 28.0717 10.6861C27.8274 10.8736 27.6584 11.0824 27.5646 11.3125L26.3672 11.0398C26.5092 10.642 26.7166 10.321 26.9893 10.0767C27.2649 9.82955 27.5817 9.65057 27.9396 9.53977C28.2976 9.42614 28.674 9.36932 29.0689 9.36932C29.3303 9.36932 29.6072 9.40057 29.8999 9.46307C30.1953 9.52273 30.4709 9.63352 30.7266 9.79545C30.9851 9.95739 31.1967 10.1889 31.3615 10.4901C31.5263 10.7884 31.6087 11.1761 31.6087 11.6534V16H30.3643V15.1051H30.3132C30.2308 15.2699 30.1072 15.4318 29.9425 15.5909C29.7777 15.75 29.5661 15.8821 29.3075 15.9872C29.049 16.0923 28.7393 16.1449 28.3786 16.1449ZM28.6555 15.1222C29.0078 15.1222 29.3089 15.0526 29.5589 14.9134C29.8118 14.7741 30.0036 14.5923 30.1342 14.3679C30.2678 14.1406 30.3345 13.8977 30.3345 13.6392V12.7955C30.2891 12.8409 30.201 12.8835 30.0703 12.9233C29.9425 12.9602 29.7962 12.9929 29.6314 13.0213C29.4666 13.0469 29.3061 13.071 29.1499 13.0938C28.9936 13.1136 28.8629 13.1307 28.7578 13.1449C28.5107 13.1761 28.2848 13.2287 28.0803 13.3026C27.8786 13.3764 27.7166 13.483 27.5945 13.6222C27.4751 13.7585 27.4155 13.9403 27.4155 14.1676C27.4155 14.483 27.532 14.7216 27.7649 14.8835C27.9979 15.0426 28.2947 15.1222 28.6555 15.1222ZM38.2106 11.0526L37.0558 11.2571C37.0075 11.1094 36.9308 10.9687 36.8256 10.8352C36.7234 10.7017 36.5842 10.5923 36.408 10.5071C36.2319 10.4219 36.0117 10.3793 35.7475 10.3793C35.3867 10.3793 35.0856 10.4602 34.8441 10.6222C34.6026 10.7812 34.4819 10.9872 34.4819 11.2401C34.4819 11.4588 34.5629 11.6349 34.7248 11.7685C34.8867 11.902 35.1481 12.0114 35.5089 12.0966L36.5487 12.3352C37.1509 12.4744 37.5998 12.6889 37.8952 12.9787C38.1907 13.2685 38.3384 13.6449 38.3384 14.108C38.3384 14.5 38.2248 14.8494 37.9975 15.1562C37.7731 15.4602 37.4592 15.6989 37.0558 15.8722C36.6552 16.0455 36.1907 16.1321 35.6623 16.1321C34.9293 16.1321 34.3313 15.9759 33.8683 15.6634C33.4052 15.348 33.1211 14.9006 33.016 14.321L34.2475 14.1335C34.3242 14.4545 34.4819 14.6974 34.7205 14.8622C34.9592 15.0241 35.2702 15.1051 35.6538 15.1051C36.0714 15.1051 36.4052 15.0185 36.6552 14.8452C36.9052 14.669 37.0302 14.4545 37.0302 14.2017C37.0302 13.9972 36.9535 13.8253 36.8001 13.6861C36.6495 13.5469 36.418 13.4418 36.1055 13.3707L34.9975 13.1278C34.3867 12.9886 33.935 12.767 33.6424 12.4631C33.3526 12.1591 33.2077 11.7741 33.2077 11.3082C33.2077 10.9219 33.3157 10.5838 33.5316 10.294C33.7475 10.0043 34.0458 9.77841 34.4265 9.61648C34.8072 9.4517 35.2433 9.36932 35.7347 9.36932C36.4421 9.36932 36.9989 9.52273 37.4052 9.82955C37.8114 10.1335 38.0799 10.5412 38.2106 11.0526ZM42.7947 9.45455V10.4773H39.2195V9.45455H42.7947ZM40.1783 7.88636H41.4524V14.0781C41.4524 14.3253 41.4893 14.5114 41.5632 14.6364C41.6371 14.7585 41.7322 14.8423 41.8487 14.8878C41.968 14.9304 42.0973 14.9517 42.2365 14.9517C42.3388 14.9517 42.4283 14.9446 42.505 14.9304C42.5817 14.9162 42.6413 14.9048 42.6839 14.8963L42.9141 15.9489C42.8402 15.9773 42.7351 16.0057 42.5987 16.0341C42.4624 16.0653 42.2919 16.0824 42.0874 16.0852C41.7521 16.0909 41.4396 16.0312 41.1499 15.9062C40.8601 15.7812 40.6257 15.5881 40.4467 15.3267C40.2678 15.0653 40.1783 14.7372 40.1783 14.3423V7.88636Z" fill="white"/>
<defs>
<linearGradient id="paint0_linear_747_8342" x1="1.02358" y1="24" x2="62.7579" y2="21.4997" gradientUnits="userSpaceOnUse">
<stop stop-color="#E700FF"/>
<stop offset="1" stop-color="#04FFF0"/>
</linearGradient>
</defs>
</svg>
