<svg width="28" height="28" viewBox="0 0 28 28" fill="none" xmlns="http://www.w3.org/2000/svg">
<g clip-path="url(#clip0_122_12993)">
<path d="M15.4481 0C14.9552 0 14.47 0.0366897 13.9921 0.101379C13.4997 0.0357241 13.0145 0 12.5516 0C8.99749 0 5.79245 1.72345 3.54328 4.47228C3.52059 4.49255 3.50369 4.51669 3.48535 4.54131C2.76845 5.42959 2.15245 6.42359 1.65425 7.49917C1.64169 7.52235 1.63107 7.54455 1.62238 7.56965C1.27914 8.32131 0.992383 9.11159 0.772728 9.93469C0.751004 9.98103 0.741349 10.0317 0.735073 10.0848C0.415487 11.3279 0.241211 12.641 0.241211 14C0.241211 16.1266 0.662176 18.1426 1.41142 19.9495C1.41818 19.9683 1.42445 19.9862 1.43314 20.0036C1.88259 21.0753 2.4479 22.0717 3.11121 22.9726C3.12762 22.9948 3.14114 23.0189 3.16142 23.0382C3.83245 23.9386 4.60197 24.7404 5.45018 25.4245C5.47383 25.451 5.5028 25.4699 5.53176 25.4906C7.52411 27.0702 9.94369 28 12.5516 28C13.0145 28 13.4997 27.9643 13.9921 27.8986C14.47 27.9633 14.9552 28 15.4481 28C22.2362 28 27.7585 21.7198 27.7585 14C27.7585 6.28021 22.2362 0 15.4481 0ZM10.34 1.26724C10.1865 1.34738 10.0349 1.43041 9.8848 1.51731C9.79356 1.56993 9.70135 1.62159 9.61156 1.67662C9.47928 1.75821 9.3499 1.84414 9.22052 1.93103H8.29073C8.99652 1.60083 9.73369 1.34014 10.5013 1.17841C10.4467 1.20593 10.3946 1.23876 10.34 1.26724ZM5.48397 22.2069H3.75231C3.32652 21.6054 2.94852 20.959 2.62025 20.2759H4.44894C4.52473 20.4472 4.60294 20.6167 4.68452 20.7837C4.71928 20.8552 4.75597 20.9252 4.79169 20.9957C4.89114 21.1907 4.99445 21.3823 5.10162 21.5711C5.14073 21.6406 5.17887 21.7106 5.21894 21.7792C5.30438 21.9245 5.39369 22.0659 5.48397 22.2069ZM2.39818 8.2069H4.24569C4.16073 8.41834 4.08059 8.63221 4.0048 8.84848C3.98404 8.90786 3.96328 8.96676 3.943 9.02614C3.87349 9.23372 3.8088 9.44324 3.74749 9.65517H1.86135C2.01535 9.15745 2.19494 8.67469 2.39818 8.2069ZM1.20673 14C1.20673 13.6746 1.22411 13.3541 1.24438 13.0345H3.16914C3.16866 13.0422 3.16866 13.0499 3.16818 13.0577C3.15031 13.3695 3.13776 13.6828 3.13776 14C3.13776 14.1617 3.14356 14.322 3.14838 14.4828H1.22556C1.22025 14.3215 1.20673 14.1627 1.20673 14ZM3.20342 15.4483C3.22176 15.6515 3.24542 15.8533 3.27149 16.0541C3.27342 16.0686 3.27438 16.0836 3.27631 16.0986C3.31204 16.367 3.35549 16.633 3.40425 16.8966H1.50025C1.40611 16.4225 1.33176 15.9402 1.28397 15.4483H3.20342ZM3.50273 10.6207C3.49018 10.6781 3.47956 10.7361 3.46749 10.7935C3.45445 10.8568 3.44142 10.9195 3.42887 10.9828C3.36997 11.2859 3.31735 11.5915 3.27631 11.9014C3.27438 11.9159 3.27342 11.9309 3.27149 11.9459C3.26618 11.9869 3.2628 12.0279 3.25749 12.069H1.34142C1.40514 11.5775 1.48576 11.0928 1.59631 10.6207H3.50273ZM3.61811 17.8621C3.63307 17.9214 3.64707 17.9813 3.663 18.0407C3.66831 18.0614 3.67314 18.0827 3.67894 18.1034C3.75859 18.3979 3.8479 18.6876 3.94397 18.9734C3.96376 19.0328 3.985 19.0917 4.00576 19.151C4.02411 19.2041 4.04197 19.2572 4.06128 19.3099H2.20025C2.01728 18.8411 1.8599 18.3574 1.72569 17.8616H3.61811V17.8621ZM5.21894 6.22035C5.17887 6.2889 5.14073 6.3589 5.10162 6.42841C4.99445 6.61717 4.89114 6.80931 4.79169 7.00386C4.75597 7.07434 4.71928 7.14434 4.68452 7.21579C4.68018 7.22448 4.67583 7.23269 4.67149 7.24138H2.86211C3.22756 6.55248 3.64852 5.908 4.11535 5.31034H5.80645C5.74756 5.39483 5.68818 5.47834 5.63121 5.56428C5.4888 5.77814 5.35073 5.99683 5.21894 6.22035ZM6.62859 2.89655H7.96245C7.84321 3.00083 7.72397 3.10607 7.60763 3.21517C7.50962 3.30786 7.41452 3.40393 7.31894 3.49952C7.22431 3.59462 7.13066 3.69069 7.03894 3.78917C6.94914 3.88524 6.85887 3.98035 6.77149 4.07883C6.69473 4.16572 6.62135 4.25552 6.54652 4.34483H4.95245C5.47094 3.80559 6.03045 3.31945 6.62859 2.89655ZM4.50107 23.1724H6.1579C6.21245 23.2439 6.26652 23.3158 6.32252 23.3858C6.46831 23.5688 6.61797 23.7474 6.77197 23.9212C6.85935 24.0201 6.94963 24.1152 7.03942 24.2108C7.13162 24.3088 7.2248 24.4054 7.31942 24.5005C7.35852 24.5401 7.39618 24.5821 7.43576 24.6207H5.98363C5.45356 24.1867 4.95776 23.702 4.50107 23.1724ZM10.5013 26.8216C9.39431 26.5884 8.34818 26.1607 7.37783 25.5862H8.54562C8.60597 25.6326 8.66776 25.6765 8.72859 25.7219C8.83142 25.7981 8.93328 25.8749 9.03804 25.9478C9.22583 26.0786 9.417 26.2041 9.61107 26.3234C9.70135 26.3789 9.79307 26.4301 9.88431 26.4827C10.0345 26.5696 10.186 26.6531 10.3396 26.7328C10.3946 26.7612 10.4467 26.7941 10.5013 26.8216ZM15.4481 27.0345C15.0648 27.0345 14.6858 27.0118 14.3117 26.9688L14.12 26.9418C14.0964 26.9384 14.0727 26.935 14.0491 26.9317C13.8811 26.908 13.7145 26.88 13.5489 26.8481C13.5369 26.8457 13.5253 26.8433 13.5137 26.8409C13.352 26.809 13.1917 26.7738 13.0329 26.7342C13.0116 26.7289 12.9909 26.7231 12.9701 26.7173C12.8209 26.6792 12.6727 26.6386 12.526 26.5937C12.4864 26.5817 12.4478 26.5677 12.4087 26.5551C12.2807 26.5146 12.1533 26.473 12.0278 26.4272C11.9385 26.3948 11.8506 26.3586 11.7627 26.3239C11.6874 26.2944 11.6116 26.2664 11.5373 26.235C8.94197 25.1363 6.78983 22.9774 5.48059 20.2179C5.469 20.1928 5.4579 20.1677 5.44631 20.1426C5.37583 19.992 5.30728 19.8394 5.24211 19.685C5.21652 19.6246 5.19287 19.5633 5.16825 19.5025C5.119 19.3818 5.07073 19.2606 5.02487 19.138C4.9959 19.0603 4.96838 18.9816 4.94038 18.9029C4.90225 18.7952 4.86459 18.6871 4.82838 18.5775C4.79942 18.4892 4.7719 18.4003 4.74487 18.311C4.71349 18.2087 4.68307 18.1059 4.65363 18.0021C4.62707 17.9079 4.60197 17.8133 4.57735 17.7187C4.5508 17.6173 4.52569 17.515 4.50156 17.4121C4.47838 17.3151 4.45618 17.2176 4.43542 17.1191C4.41321 17.0163 4.39294 16.9125 4.37314 16.8087C4.35431 16.7102 4.33549 16.6112 4.31811 16.5123C4.29976 16.4051 4.28383 16.297 4.2679 16.1883C4.25342 16.0913 4.23894 15.9948 4.22638 15.8968C4.21142 15.7809 4.19983 15.6636 4.18776 15.5468C4.17811 15.4555 4.16749 15.3648 4.15976 15.273C4.14818 15.1388 4.14045 15.0037 4.13273 14.868C4.12838 14.7917 4.12211 14.7164 4.11873 14.6401C4.10859 14.4292 4.10328 14.2153 4.10328 14C4.10328 13.7847 4.10859 13.5708 4.11728 13.3579C4.12066 13.2817 4.12694 13.2059 4.13128 13.1301C4.139 12.9949 4.14673 12.8592 4.15831 12.725C4.16604 12.6333 4.17666 12.5426 4.18631 12.4513C4.19838 12.3345 4.21045 12.2172 4.22494 12.1013C4.23749 12.0038 4.25245 11.9068 4.26645 11.8097C4.28238 11.7016 4.2988 11.5934 4.31666 11.4858C4.33356 11.3863 4.35238 11.2879 4.37169 11.1894C4.39149 11.0856 4.41176 10.9818 4.43397 10.879C4.45521 10.781 4.47742 10.6834 4.50011 10.5859C4.52425 10.4831 4.54983 10.3812 4.5759 10.2794C4.60052 10.1843 4.62563 10.0901 4.65218 9.996C4.68114 9.89221 4.71204 9.78938 4.74342 9.68703C4.77142 9.59917 4.79845 9.50986 4.82742 9.422C4.86314 9.3129 4.9008 9.20476 4.93942 9.09662C4.96742 9.01793 4.99445 8.93924 5.0239 8.86152C5.06976 8.7389 5.11852 8.61772 5.16728 8.49703C5.1919 8.43621 5.21556 8.3749 5.24114 8.31455C5.30631 8.16007 5.37487 8.008 5.44535 7.8569C5.45694 7.83179 5.46804 7.80621 5.47962 7.78159C6.78887 5.02165 8.94149 2.86276 11.5363 1.76448C11.6107 1.7331 11.6865 1.70559 11.7618 1.67566C11.8501 1.6409 11.938 1.60469 12.0268 1.57234C12.1528 1.52697 12.2802 1.48497 12.4077 1.44441C12.4468 1.43186 12.4859 1.41786 12.525 1.40579C12.6718 1.3609 12.82 1.32034 12.9691 1.28221C12.9904 1.2769 13.0111 1.27062 13.0319 1.26531C13.1907 1.22572 13.351 1.19048 13.5127 1.15862C13.5248 1.15621 13.5364 1.15379 13.548 1.15138C13.7136 1.11952 13.8801 1.09152 14.0481 1.06786C14.0718 1.06448 14.0954 1.06062 14.1191 1.05772L14.3107 1.03069C14.6858 0.988207 15.0648 0.965517 15.4481 0.965517C21.7037 0.965517 26.7929 6.81269 26.7929 14C26.7929 21.1873 21.7037 27.0345 15.4481 27.0345Z" fill="white"/>
<path d="M15.448 4.09149C15.7405 4.09149 16.0365 4.10887 16.3256 4.14218C16.3449 4.1446 16.3638 4.14556 16.3821 4.14556C16.624 4.14556 16.8325 3.96453 16.861 3.7188C16.8919 3.45425 16.7022 3.21432 16.4376 3.18342C16.1127 3.14529 15.782 3.12598 15.4393 3.12598C15.4373 3.12598 15.4354 3.12598 15.4335 3.12598L15.4272 3.60874V3.12598C15.1602 3.12598 14.9546 3.34177 14.9546 3.60874C14.9551 3.8757 15.181 4.09149 15.448 4.09149Z" fill="white"/>
<path d="M18.8978 4.9199C19.1643 5.0541 19.4274 5.20569 19.6799 5.37031C19.761 5.42341 19.8522 5.449 19.943 5.449C20.1004 5.449 20.2548 5.37176 20.348 5.22983C20.4938 5.00679 20.4306 4.70748 20.207 4.56169C19.9246 4.37728 19.6306 4.20783 19.3323 4.05769C19.0933 3.93748 18.8037 4.03355 18.6839 4.27155C18.5642 4.50955 18.6598 4.79969 18.8978 4.9199Z" fill="white"/>
<path d="M23.72 11.2442C23.7745 11.4634 23.9715 11.6097 24.1878 11.6097C24.2269 11.6097 24.266 11.6048 24.3055 11.5952C24.5643 11.5305 24.7212 11.2683 24.6565 11.0096C24.5759 10.6886 24.4808 10.3666 24.3731 10.0528C24.2862 9.80076 24.012 9.66607 23.7595 9.75297C23.5075 9.83938 23.3729 10.1141 23.4593 10.3666C23.5582 10.6538 23.6456 10.9492 23.72 11.2442Z" fill="white"/>
<path d="M21.7348 20.7673C21.5431 21.0029 21.3389 21.2308 21.127 21.4451C20.9396 21.6348 20.9416 21.9404 21.1318 22.1277C21.2254 22.2204 21.3481 22.2672 21.4707 22.2672C21.5952 22.2672 21.7198 22.2194 21.8144 22.1239C22.0471 21.8878 22.2721 21.6368 22.4835 21.3775C22.652 21.1704 22.6206 20.8663 22.4135 20.6983C22.2064 20.5303 21.9028 20.5607 21.7348 20.7673Z" fill="white"/>
<path d="M23.0421 7.37486C22.8552 7.09921 22.6534 6.82935 22.4425 6.57252C22.2725 6.36686 21.9694 6.33693 21.7627 6.50638C21.5571 6.67583 21.5276 6.97997 21.6966 7.1861C21.8887 7.41976 22.0727 7.66548 22.2426 7.91652C22.3358 8.05459 22.4883 8.12845 22.6428 8.12845C22.736 8.12845 22.8301 8.10141 22.9132 8.04541C23.1338 7.89576 23.1917 7.59548 23.0421 7.37486Z" fill="white"/>
<path d="M18.9502 23.0537C18.6823 23.1913 18.4052 23.3144 18.1266 23.4192C17.877 23.5128 17.751 23.7914 17.8452 24.041C17.9176 24.2346 18.1015 24.3538 18.297 24.3538C18.3535 24.3538 18.411 24.3437 18.4675 24.3224C18.7803 24.2046 19.0917 24.0666 19.3919 23.9126C19.629 23.7909 19.7226 23.4998 19.601 23.2628C19.4793 23.0257 19.1882 22.9311 18.9502 23.0537Z" fill="white"/>
<path d="M15.4479 23.9083C15.1482 23.9083 14.8459 23.8904 14.5515 23.8552C14.2792 23.8281 14.046 24.013 14.0146 24.2776C13.9833 24.5421 14.172 24.7825 14.4366 24.8144C14.7697 24.854 15.1105 24.8743 15.4484 24.8743H15.4895C15.7564 24.8743 15.9515 24.658 15.9515 24.3915C15.9515 24.125 15.7149 23.9083 15.4479 23.9083Z" fill="white"/>
<path d="M24.0906 17.2739C23.8386 17.1875 23.5639 17.3246 23.4789 17.5771C23.3814 17.8658 23.2704 18.153 23.1492 18.4316C23.0425 18.6759 23.155 18.9607 23.3993 19.0669C23.462 19.0944 23.5277 19.107 23.5914 19.107C23.7782 19.107 23.9554 18.9984 24.0346 18.8168C24.1664 18.5132 24.2871 18.1999 24.3933 17.8851C24.4792 17.6331 24.3435 17.3594 24.0906 17.2739Z" fill="white"/>
<path d="M24.5405 13.502C24.2735 13.502 24.0577 13.7337 24.0577 14.0002C24.0577 14.298 24.0466 14.5968 24.0239 14.888C24.0032 15.154 24.2021 15.3862 24.4681 15.4064C24.4806 15.4074 24.4937 15.4079 24.5057 15.4079C24.7558 15.4079 24.9668 15.2157 24.9866 14.9623C25.0112 14.6466 25.0233 14.3226 25.0233 14.0002V13.9693C25.0233 13.7023 24.8075 13.502 24.5405 13.502Z" fill="white"/>
<path d="M6.83905 14.0004C6.83905 13.6996 6.85112 13.394 6.87478 13.0928C6.89554 12.8268 6.69712 12.5946 6.43112 12.5733C6.16995 12.556 5.9334 12.751 5.91216 13.0165C5.88657 13.3429 5.87354 13.674 5.87354 13.9999V14.01C5.87354 14.2765 6.08933 14.4875 6.35629 14.4875C6.62326 14.4875 6.83905 14.2669 6.83905 14.0004Z" fill="white"/>
<path d="M7.1711 16.7365C7.10641 16.4778 6.84379 16.3199 6.586 16.3846C6.32724 16.4488 6.16986 16.711 6.23407 16.9697C6.31421 17.2912 6.40931 17.6132 6.51648 17.927C6.58503 18.1279 6.77234 18.2539 6.97317 18.2539C7.02483 18.2539 7.07745 18.2452 7.1291 18.2278C7.3811 18.1414 7.51628 17.8672 7.42986 17.6147C7.33186 17.3274 7.24497 17.032 7.1711 16.7365Z" fill="white"/>
<path d="M11.7451 4.9901C11.8185 4.9901 11.8938 4.9732 11.9638 4.93748C12.2332 4.80037 12.5108 4.67775 12.7888 4.57396C13.0384 4.48079 13.1649 4.20223 13.0717 3.95265C12.9786 3.70258 12.7015 3.57561 12.4504 3.66975C12.1386 3.78658 11.8272 3.92368 11.5255 4.07768C11.2879 4.19837 11.1933 4.48948 11.3145 4.72699C11.3999 4.89403 11.5694 4.9901 11.7451 4.9901Z" fill="white"/>
<path d="M7.50685 8.91373C7.26113 8.80463 6.97775 8.91759 6.87106 9.16187C6.73878 9.46408 6.61713 9.77739 6.50995 10.0931C6.42451 10.3456 6.56016 10.6198 6.81216 10.7057C6.86333 10.7231 6.91596 10.7313 6.96713 10.7313C7.16844 10.7313 7.35623 10.6044 7.4243 10.4035C7.5223 10.1139 7.63382 9.82663 7.75547 9.55001C7.86216 9.30573 7.75113 9.0209 7.50685 8.91373Z" fill="white"/>
<path d="M11.9811 23.0717C11.7147 22.9366 11.4516 22.784 11.2 22.6189C10.977 22.4726 10.6782 22.5359 10.5314 22.7584C10.3856 22.9815 10.4479 23.2808 10.6709 23.4266C10.9524 23.611 11.2459 23.7809 11.5447 23.9325C11.6147 23.9682 11.6891 23.9846 11.7625 23.9846C11.9387 23.9846 12.1086 23.8881 12.1936 23.7206C12.3142 23.4831 12.2196 23.1924 11.9811 23.0717Z" fill="white"/>
<path d="M8.642 20.0671C8.49234 19.846 8.19255 19.7881 7.97145 19.9373C7.75083 20.0869 7.69289 20.3867 7.84207 20.6078C8.03131 20.8873 8.23214 21.1577 8.43972 21.4111C8.53531 21.5275 8.67338 21.5878 8.81338 21.5878C8.92103 21.5878 9.02917 21.5521 9.11896 21.4782C9.32558 21.3088 9.35503 21.0051 9.18655 20.7985C8.99827 20.5682 8.81483 20.322 8.642 20.0671Z" fill="white"/>
<path d="M9.09794 5.86055C8.86525 6.09517 8.63932 6.34621 8.4269 6.60593C8.25794 6.81255 8.28883 7.11669 8.49545 7.28517C8.58525 7.35855 8.69338 7.39428 8.80056 7.39428C8.94056 7.39428 9.07959 7.33393 9.17469 7.2171C9.36732 6.98103 9.57201 6.75365 9.78345 6.54076C9.97125 6.35152 9.97028 6.04593 9.78056 5.85814C9.59132 5.67034 9.28573 5.67083 9.09794 5.86055Z" fill="white"/>
<path d="M18.7803 13.0753C19.5359 12.5408 19.9182 11.7583 19.9182 10.7431C19.9182 9.88133 19.6257 9.15092 19.0478 8.57354C18.4699 7.99616 17.713 7.70312 16.7981 7.70312H11.9208C11.6288 7.70312 11.4395 7.89237 11.4395 8.18443C11.4395 8.4765 11.6283 8.66575 11.9208 8.66575L13.0389 8.6643L13.0399 15.6691H11.5863C11.3208 15.6691 11.1035 15.8864 11.1035 16.1519C11.1035 16.4174 11.3208 16.6346 11.5863 16.6346H13.0399V18.4175H11.9203C11.6283 18.4175 11.439 18.6067 11.439 18.8988C11.439 19.1908 11.6278 19.3801 11.9203 19.3801H17.4378C18.4709 19.3801 19.2853 19.0813 19.8579 18.4913C20.4285 17.9033 20.7177 17.142 20.7177 16.2282C20.7177 14.5858 20.0669 13.5281 18.7803 13.0753ZM14.0001 8.66623H16.7981C17.473 8.66623 17.9901 8.85499 18.3787 9.24264C18.7668 9.63126 18.9556 10.1116 18.9556 10.7112C18.9556 11.3127 18.7634 11.8046 18.3676 12.215C17.9746 12.6229 17.487 12.8208 16.8783 12.8208L14.001 12.8223L14.0001 8.66864C14.0001 8.66864 13.9798 8.66623 14.0001 8.66623ZM19.1463 17.8092C18.7364 18.2191 18.1779 18.418 17.4378 18.418L14.001 18.4199L14.0006 16.6351H15.9311C16.1966 16.6351 16.4139 16.4179 16.4139 16.1524C16.4139 15.8868 16.1966 15.6696 15.9311 15.6696H14.0006L14.0001 13.7864C14.0001 13.7864 13.9793 13.7835 13.9996 13.7835H17.4378C18.1779 13.7835 18.7364 13.9824 19.1463 14.3922C19.5561 14.8026 19.755 15.3611 19.755 16.1007C19.755 16.8403 19.5561 17.3993 19.1463 17.8092Z" fill="white"/>
</g>
<defs>
<clipPath id="clip0_122_12993">
<rect width="28" height="28" fill="white"/>
</clipPath>
</defs>
</svg>
