<svg width="48" height="48" viewBox="0 0 48 48" fill="none" xmlns="http://www.w3.org/2000/svg">
<g clip-path="url(#clip0_124_14505)">
<path d="M24.7138 10.1337L24.0073 9.42741L23.3003 10.1332L14.7047 18.7138L10.7034 14.7136L24.0065 1.41434L37.2969 14.7133L33.2958 18.7133L24.7138 10.1337ZM23.2998 37.8663L24.0068 38.5731L24.7138 37.8663L33.2958 29.2867L37.2969 33.2867L24.0068 46.5853L10.7167 33.2867L14.7178 29.2867L23.2998 37.8663ZM5.41606 19.9995L9.42869 24.0009L5.42793 28.0005L1.4153 23.9991L5.41606 19.9995ZM46.5856 24L42.5848 27.9996L38.5841 24L42.5848 20.0004L46.5856 24ZM24.0059 19.9995L28.0076 24L24.0059 28.0005L19.9942 24L24.0059 19.9995Z" stroke="white" stroke-width="2"/>
</g>
<defs>
<clipPath id="clip0_124_14505">
<rect width="48" height="48" fill="white"/>
</clipPath>
</defs>
</svg>
