<svg width="24" height="24" viewBox="0 0 24 24" fill="none" xmlns="http://www.w3.org/2000/svg">
<g clip-path="url(#clip0_123_13887)">
<path d="M12.3569 5.06685L12.0037 4.71371L11.6502 5.06659L7.35235 9.35689L5.35171 7.35682L12.0032 0.70717L18.6485 7.35666L16.6479 9.35663L12.3569 5.06685ZM11.6499 18.9331L12.0034 19.2866L12.3569 18.9331L16.6479 14.6434L18.6485 16.6433L12.0034 23.2927L5.35836 16.6433L7.35891 14.6434L11.6499 18.9331ZM2.70803 9.99974L4.71434 12.0004L2.71396 14.0003L0.707652 11.9996L2.70803 9.99974ZM23.2928 12L21.2924 13.9998L19.292 12L21.2924 10.0002L23.2928 12ZM12.003 9.99974L14.0038 12L12.003 14.0003L9.9971 12L12.003 9.99974Z" stroke="white"/>
</g>
<defs>
<clipPath id="clip0_123_13887">
<rect width="24" height="24" fill="white"/>
</clipPath>
</defs>
</svg>
