<svg width="64" height="64" viewBox="0 0 64 64" fill="none" xmlns="http://www.w3.org/2000/svg">
<g clip-path="url(#clip0_13447_117371)">
<path d="M32 66C50.7777 66 66 50.7777 66 32C66 13.2223 50.7777 -2 32 -2C13.2223 -2 -2 13.2223 -2 32C-2 50.7777 13.2223 66 32 66Z" fill="#05102B"/>
<path d="M32.0003 50.9991C31.9982 50.9687 31.9977 50.9388 31.9982 50.9084C33.2369 50.9078 34.4755 50.9073 35.7141 50.9062C35.7151 50.9372 35.7146 50.9682 35.7126 50.9991C34.4755 50.9991 33.2379 50.9991 32.0003 50.9991Z" fill="#F2F4F4"/>
<path d="M36.0804 21.1986C36.6382 21.0884 37.1669 21.2211 37.6895 21.4C37.6467 21.8177 37.6783 22.229 37.7844 22.6346C37.9018 24.193 38.0177 25.7518 38.1381 27.3096C38.155 27.53 38.085 27.8815 38.4387 27.8144C38.7276 27.7593 39.1792 27.9398 39.2589 27.3852C39.415 26.2991 40.1953 25.4349 40.2964 24.3168C40.3301 23.9416 40.599 23.8157 40.9864 23.9799C41.4906 24.1935 41.9336 24.5109 42.4057 24.7785C43.1079 25.1768 43.7438 25.6794 44.3853 26.1569C44.4945 26.031 44.4292 25.9633 44.4027 25.8951C44.146 25.2319 43.6116 24.7843 43.1881 24.2507C42.7777 23.7333 42.7997 23.695 43.3702 23.4385C44.4971 22.9327 45.6704 22.5234 46.6232 21.6634C47.0208 21.3045 47.2152 20.7804 47.6516 20.4687C48.0828 20.5621 48.4232 20.22 48.8325 20.209C48.4411 21.3161 47.7297 22.1991 46.959 23.0418C46.8641 23.1452 46.6549 23.238 46.8003 23.4164C46.9014 23.5402 47.0402 23.4364 47.156 23.3535C47.403 23.1772 47.6587 23.0129 47.9338 22.8288C47.9399 22.9164 47.9644 22.982 47.945 23.0271C47.7516 23.4768 47.6495 23.9663 47.3694 24.3792C47.18 24.6578 47.0917 24.9601 47.3714 25.2381C47.6041 25.4695 47.55 25.6894 47.3862 25.9234C47.1729 26.2282 46.981 26.5509 46.7478 26.839C46.4921 27.1554 46.2073 27.4287 46.61 27.8448C46.9223 28.1675 46.2017 28.5547 46.6493 28.9015C46.8554 29.0616 46.959 29.3166 47.0223 29.5611C47.1167 29.9273 47.2275 29.8864 47.4776 29.6823C48.1701 29.1167 48.8948 28.592 49.5904 28.03C49.8701 27.8044 50.3044 27.8191 50.4682 27.423C50.5014 27.403 50.5341 27.3836 50.5672 27.3637C50.7198 27.4938 50.903 27.5394 51.0929 27.5662C51.812 27.6669 52.1126 28.2929 51.7298 28.9272C51.6048 29.135 51.5053 29.3397 51.4899 29.5826C51.4195 30.6781 50.805 31.4594 50.0217 32.0932C49.2541 32.7134 48.8065 33.4086 48.9219 34.4669C49.0219 35.3867 49.0306 36.3207 49.0229 37.2473C49.0193 37.6833 49.4414 37.7216 49.5552 38.0217C48.9657 38.898 48.3768 39.7747 47.7766 40.6672C48.1359 40.8257 48.3962 40.6247 48.6743 40.5911C48.6958 40.6132 48.7172 40.6347 48.7386 40.6567C48.4717 41.5744 48.0451 42.4176 47.0274 42.5105C46.4073 42.5671 46.1384 42.883 45.9036 43.3484C45.305 44.5368 44.4517 45.5001 43.381 46.2384C42.2454 47.0212 41.0716 47.7453 39.907 48.483C37.8084 49.8126 35.5404 50.3058 33.0938 49.9364C32.4727 49.8425 31.8434 49.407 31.2152 49.9243C31.1922 49.8803 31.1601 49.8708 31.1177 49.896C30.6513 49.4374 30.0735 49.2249 29.456 49.1C29.0253 48.8356 28.5854 48.5848 28.1658 48.303C27.4825 47.8439 26.8854 47.2621 26.1597 46.8575C25.2477 46.3491 24.2708 45.9325 23.5002 45.1979C22.6132 44.3526 21.5134 43.8217 20.582 43.0399C20.3411 42.8373 20.1222 42.5813 19.8354 42.4275C19.0178 41.9879 18.2012 41.5455 17.3847 41.1043C16.9172 40.7737 16.4186 40.4804 15.9919 40.1016C15.625 39.7758 15.329 39.3676 14.8503 39.1923C14.4052 38.8397 14.3169 38.3596 14.3833 37.8223C14.4603 37.2006 14.2001 36.8097 13.6305 36.5877C13.3845 36.4917 13.16 36.3207 12.9482 36.1528C12.5343 35.8248 12.445 34.8316 12.7859 34.4171C12.9221 34.2513 13.0763 34.0986 13.235 33.9548C13.6356 33.5923 13.9173 33.2806 13.6132 32.6221C13.3779 32.1132 13.5774 31.418 13.9153 30.9951C14.4302 30.3507 14.6665 29.7594 14.3185 28.9661C14.221 28.7436 14.2531 28.4613 14.2261 28.2069C14.3522 28.3333 14.4787 28.4592 14.6048 28.5852C15.1238 29.4645 15.257 29.5044 15.973 28.9089C16.3083 28.6303 16.4201 28.1953 16.5957 27.8091C17.0841 27.1354 17.0642 26.9434 16.4349 26.4554C16.2063 26.2781 15.9899 26.1254 16.3293 25.8421C16.4502 25.7413 16.4109 25.5839 16.3476 25.4564C16.1328 25.0262 16.1542 24.5639 16.2257 24.1174C16.2741 23.8173 16.2058 23.3125 16.8003 23.5004C16.9555 23.5492 16.9279 23.3923 16.9294 23.3141C16.9376 22.9841 17.1422 23.0344 17.3311 23.0995C17.6041 23.1934 17.8807 23.2889 18.1354 23.4243C18.8279 23.7931 18.9499 24.0508 18.8366 24.8441C18.7759 25.2728 18.8708 25.6668 19.0765 26.1291C19.2515 25.7146 19.3949 25.3546 19.5547 25.0031C19.6812 24.7234 19.7568 24.3016 20.114 24.3304C20.4585 24.3582 20.3952 24.7948 20.4968 25.0598C20.509 25.0918 20.5458 25.1138 20.5784 25.1479C20.9291 24.1436 21.3766 23.2071 22.1988 22.5166C23.0195 21.8277 23.8707 21.7768 24.7485 22.3786C24.9088 22.4882 25.0583 22.6031 25.2492 22.6446C25.5676 22.8986 25.8861 23.1525 26.2051 23.4059C27.2564 24.2412 28.1842 25.2193 29.1825 26.1165C29.7352 26.945 30.4119 27.6643 31.0779 28.3936C31.2249 28.5542 31.403 28.6177 31.6026 28.5526C31.8572 28.4692 31.8041 28.2341 31.7786 28.0489C31.6551 27.1428 31.426 26.2686 30.9779 25.4674C30.9774 25.4291 30.9667 25.394 30.9457 25.362C30.9197 25.31 30.8937 25.2581 30.8682 25.2061C30.8727 25.1757 30.8656 25.149 30.8462 25.1253C30.8539 25.0235 30.8202 24.9438 30.7293 24.895L30.7253 24.8871C30.7309 24.789 30.7054 24.7051 30.6211 24.6484C30.5267 24.4333 30.4568 24.2014 30.3338 24.0051C29.826 23.1976 29.4601 22.3009 28.8711 21.5448C28.7522 21.3922 28.6869 21.209 28.8528 21.0758C29.0217 20.9404 29.1258 21.1561 29.2034 21.2494C29.4096 21.4976 29.5913 21.676 29.9 21.3943C30.1057 21.2069 30.2205 21.3948 30.3716 21.5281C31.1351 22.2018 31.6944 23.0575 32.3492 23.8273C32.3512 23.9789 32.4564 24.0749 32.5324 24.1877C33.3811 25.4444 34.0175 26.8138 34.5529 28.2352C34.7499 28.7583 35.051 28.9015 35.4429 28.5164C35.7578 28.2063 36.0967 27.9251 36.4121 27.6171C36.702 27.3343 36.7928 27.0058 36.7648 26.605C36.7347 26.1716 36.7877 25.7298 36.7367 25.3006C36.6157 24.2879 36.7535 23.2412 36.3667 22.2631C36.356 22.1446 36.3779 22.0003 36.1891 22.0186L36.2018 22.0118C36.3437 21.7133 36.1932 21.4588 36.0804 21.1986ZM23.2935 27.1501L23.2915 27.1475C22.8689 27.1764 22.8689 27.6008 22.6739 27.8427C22.4474 27.9807 22.3876 28.1948 22.3529 28.4975C22.6347 28.348 22.8597 28.2541 23.0052 28.0374C23.0297 28.0368 23.0501 28.0279 23.0664 28.009C24.278 27.4419 25.4799 26.8605 26.8629 26.8762C27.213 26.8804 27.4963 26.6448 27.4707 26.2235C27.4457 25.8164 27.1661 25.6343 26.8063 25.6133C26.4051 25.5902 25.9958 25.5451 25.6054 25.7056C24.7342 25.9008 23.9121 26.1826 23.4058 27.0221L23.4099 27.03C23.3114 27.01 23.2767 27.0536 23.2935 27.1501ZM28.1112 43.7151C27.6662 43.4838 27.6586 44.074 27.2329 44.0809C27.5973 44.2986 27.8387 44.4429 28.0801 44.5877C28.0867 44.6722 28.1419 44.6869 28.2097 44.6837C28.9594 45.2362 29.7719 45.6623 30.6462 45.964C30.6834 45.976 30.7207 45.9881 30.7579 46.0002C31.7312 46.5081 32.7907 46.708 33.8481 46.9173C36.6841 47.4793 39.1869 46.7589 41.3814 44.8537C41.5003 44.7504 41.6851 44.6806 41.6453 44.4597L41.6478 44.4592C41.906 44.5342 42.002 44.2928 42.1347 44.1669C42.8288 43.5042 43.4315 42.7586 43.9352 41.9328C44.1526 41.5765 44.3986 41.2307 44.5104 40.7674C44.2118 40.8509 44.0863 41.0649 43.9158 41.2145C42.5047 42.4548 40.942 43.2634 39.0175 42.9953C38.6995 42.9512 38.5755 43.1301 38.4163 43.3353C37.7651 44.1748 37.2909 44.2996 36.3697 43.8956C36.3315 43.8841 36.2927 43.8731 36.2544 43.8615C35.8369 43.3295 34.9438 43.0661 35.3776 42.0246C34.782 42.3698 34.338 42.7917 33.7812 43.0157C33.7307 43.033 33.6807 43.0504 33.6302 43.0682C33.0167 43.2204 32.39 43.3615 31.7664 43.3248C31.2341 43.2933 30.9411 43.4817 30.7814 43.9696C30.6446 44.106 30.5073 44.2419 30.3706 44.3783C29.678 44.5971 29.0952 44.2451 28.493 43.9969C28.3909 43.8663 28.272 43.7613 28.1112 43.7151ZM50.604 28.8517C49.9905 28.8989 49.6042 29.3638 49.1587 29.7048C48.4156 30.2731 47.7006 30.8801 46.9713 31.4678C46.7233 31.6677 46.4523 31.8141 46.1236 31.7984C45.7286 31.7795 45.5627 31.4982 45.7204 31.1325C45.8373 30.8618 45.9552 30.5895 46.0419 30.3082C46.1246 30.0396 46.1394 29.6954 45.8985 29.5632C45.6362 29.4189 45.4652 29.7258 45.3213 29.9284C44.9207 30.4929 44.6767 30.5239 44.1465 30.0574C44.3705 29.9918 44.593 29.9268 44.8156 29.8617C44.9564 29.8523 45.0963 29.8407 45.2075 29.6545C45.008 29.6676 44.8447 29.6786 44.6808 29.6891C44.3037 29.7138 43.9265 29.7389 43.5494 29.7636L43.5458 29.7374L43.5407 29.7636C41.8264 29.8738 40.1147 29.9987 38.3509 30.6661C38.723 30.7479 38.9552 30.6304 39.1695 30.749C39.1236 30.9552 38.8383 30.8723 38.7995 31.09C39.3339 31.5234 40.0203 31.1509 40.6337 31.4421C40.4919 31.5649 40.3929 31.6535 40.2908 31.7375C38.9215 32.863 37.5165 33.9428 36.2064 35.1438C35.9431 35.3851 35.8568 35.6375 36.038 35.9807C36.2258 36.3369 36.5101 36.3569 36.828 36.2666C37.1429 36.1769 37.4497 36.0578 37.7584 35.9518C38.1039 35.861 38.4494 35.7697 38.7949 35.679C40.1484 35.35 41.5284 35.191 42.9227 35.0194C42.8293 34.8421 42.62 34.9958 42.5481 34.8353C42.7752 34.7613 42.6047 34.276 43.0339 34.3683C43.1727 34.3982 43.4141 34.3961 43.5979 34.1836C42.1097 34.0981 40.6766 34.2439 39.1553 34.4496C40.7384 32.6688 42.593 31.526 44.6956 30.5417C44.4849 31.6856 43.8928 32.8362 45.477 33.299C44.9273 34.1296 44.3935 34.946 43.9633 35.8254C44.2205 35.8862 44.442 35.9718 44.6681 35.9843C44.9396 35.9996 45.2208 36.0851 45.4474 35.7692C46.7595 33.9396 48.1895 32.2192 49.9206 30.7847C50.013 30.7081 50.0354 30.6078 50.0564 30.4593C50.1355 29.8958 49.9951 29.231 50.5866 28.8407C50.6045 28.8113 50.6223 28.7814 50.6402 28.752C50.6142 28.7593 50.5882 28.7672 50.5616 28.7746C50.5749 28.8008 50.5897 28.826 50.604 28.8517ZM45.2555 37.7394C45.3035 37.5227 45.5362 37.4865 45.7199 37.306C45.4295 37.2872 45.255 37.2011 45.182 36.9744C44.7829 36.9403 44.3833 36.8737 43.9847 36.8774C42.3649 36.8921 40.744 36.848 39.1277 37.0416C37.1736 37.2761 35.2072 37.2793 33.2418 37.2898C32.9606 37.2913 32.6911 37.1339 32.3941 37.2913C32.0001 37.5002 31.7261 37.7268 31.4734 38.1702C30.6885 39.5459 29.7393 40.8215 28.8742 42.1505C28.4751 42.7639 28.5639 42.947 29.2677 43.1705C29.355 43.1983 29.4606 43.2398 29.5091 43.3106C29.7704 43.69 29.946 43.479 30.123 43.2319C30.3752 42.8804 30.637 42.5362 30.8773 42.1767C31.3127 41.5251 31.8021 41.1263 32.6774 41.2082C33.6302 41.2979 34.5702 40.9778 35.4817 40.6704C35.6695 40.6069 35.8885 40.5135 35.9278 40.2532C35.9712 39.9615 35.715 39.9048 35.5598 39.7805C35.101 39.4122 34.5713 39.4872 34.0568 39.5837C33.6235 39.6651 33.1969 39.6923 32.7463 39.6525C32.9912 39.2275 33.1857 38.793 33.7215 38.7537C35.1924 38.6456 36.6622 38.8985 38.2356 38.6802C37.5206 39.8618 36.8495 40.9217 36.359 42.086C36.2238 42.4066 36.2238 42.6338 36.5167 42.8463C37.1965 43.34 37.1822 43.3961 37.8539 42.4963C38.7459 41.301 39.5492 40.0355 40.3939 38.803C40.4903 38.6624 40.548 38.4771 40.7532 38.443C41.339 38.3449 41.9208 38.208 42.5103 38.1487C43.4223 38.0569 44.3394 38.0233 45.2529 37.9467C45.3576 37.9378 45.3744 37.8124 45.2555 37.7394ZM29.1978 29.156C28.8579 29.1544 28.792 28.8554 28.6752 28.5705C28.5741 28.7399 28.4853 28.8491 28.4374 28.975C28.2363 29.506 27.9168 29.7762 27.3136 29.7306C26.9201 29.7012 26.5123 29.8339 26.1153 29.9142C25.831 29.9719 25.8371 29.9835 25.5054 29.6623C25.3033 29.4666 25.5779 29.3795 25.5906 29.2305C25.5988 29.1371 25.6651 29.05 25.5927 28.9477C25.3574 28.9682 25.2186 29.1613 25.1088 29.3234C24.8399 29.7201 24.5005 29.8339 24.0396 29.8386C23.3144 29.846 22.6408 30.1031 22.0166 30.4898C20.8989 31.1813 20.1717 32.2144 19.597 33.385C19.5169 33.5482 19.5164 33.7869 19.2469 33.7985C18.4574 33.8321 17.6684 33.8751 16.7615 33.9202C17.1274 33.5776 17.4046 33.3341 17.6643 33.0723C18.2176 32.5156 18.7616 31.9421 19.1 31.217C19.5302 30.2946 19.0591 29.5322 18.0747 29.4902C17.2877 29.4567 16.5855 29.686 15.9623 30.1739C15.3626 30.643 14.8931 30.9819 14.7895 32.0827C15.6597 31.4988 16.5191 30.9394 17.5919 30.7568C17.4811 31.0832 17.2668 31.259 17.0841 31.4515C16.0057 32.5896 14.9171 33.7177 13.8418 34.8589C13.7372 34.9696 13.4743 35.043 13.6851 35.318C14.048 35.7913 14.7191 36.0384 15.2703 35.817C15.9746 35.5342 16.7044 35.351 17.4326 35.1548C18.0548 34.9869 18.6901 34.85 19.2418 34.4575C19.5052 35.9828 20.0135 36.3747 21.516 36.232C22.8995 36.1003 23.9789 35.351 24.9675 34.4229C25.1522 34.2497 25.3028 34.0362 25.5431 33.9318C25.686 33.8698 25.8519 33.7791 25.982 33.8819C26.1515 34.0168 25.9718 34.1726 25.9244 34.2996C25.7182 34.8484 25.4875 35.3878 25.2226 36.0358C25.6304 35.8296 25.6769 35.467 26.0203 35.3531C26.6746 35.1359 27.2319 34.7435 27.5009 34.0367C27.6233 33.7145 27.8142 33.777 28.0444 33.9265C28.5256 34.2382 28.9074 34.6564 29.2815 35.0861C29.6326 35.4901 29.8944 35.902 30.5701 35.9445C31.1453 35.9807 31.5449 35.9885 31.8654 35.4649C31.9874 35.266 32.193 35.1223 32.3186 34.925C32.6666 34.3777 33.1734 34.1752 33.7787 34.0928C34.1951 34.0356 34.3865 34.0645 34.2824 34.5797C34.1972 35.0026 34.1982 35.4476 34.1967 35.8831C34.1962 36.0688 34.1324 36.4141 34.4738 36.3296C34.7739 36.2551 35.2546 36.5699 35.3501 35.9471C35.443 35.34 35.5858 34.7408 35.6798 34.1338C35.7201 33.8735 35.8272 33.7555 36.0794 33.7303C36.729 33.6647 37.221 33.2465 37.8401 32.9102C37.5997 32.9102 37.3261 32.9527 37.3093 32.9034C37.1297 32.3734 36.725 32.6305 36.4361 32.6541C35.9742 32.6914 35.8272 32.5644 35.9819 32.1079C36.1268 31.6808 36.2993 31.2637 36.4448 30.8361C36.6632 30.1923 36.9046 29.5537 36.9689 28.847C36.679 29.2006 36.2835 29.443 35.9201 29.5453C35.2863 29.7237 34.8096 30.0768 34.3625 30.5192C33.5939 31.28 32.9514 32.1515 32.3339 33.0398C32.0848 33.3976 31.8077 33.6264 31.3749 33.7093C30.8345 33.8126 30.7891 34.011 31.1667 34.4066C31.2667 34.511 31.1912 34.5839 31.1478 34.6605C31.0417 34.8479 30.9268 35.0299 30.7947 35.2493C30.5441 34.9302 30.3236 34.6312 30.0843 34.3489C29.8475 34.0692 29.5953 33.8032 29.3437 33.5372C29.2151 33.4013 29.1376 33.236 29.3621 33.1767C30.0633 32.9905 30.5186 32.406 31.1284 32.0733C31.8174 31.6976 31.848 30.9615 31.2045 30.5097C30.8023 30.2274 30.3553 30.005 29.8806 29.9341C29.3886 29.8607 29.1335 29.6697 29.1932 29.1429C29.2146 29.1518 29.2355 29.1607 29.257 29.1697C29.2529 29.1628 29.2493 29.1497 29.2447 29.1497C29.2284 29.1502 29.2131 29.1539 29.1978 29.156ZM26.8884 40.7034C26.9803 39.9169 27.0665 39.2526 27.1288 38.5868C27.1462 38.4016 27.1997 38.1985 27.0466 38.0233C26.6475 37.5658 25.4074 37.3659 24.971 37.7505C23.5395 39.0118 22.4014 40.5376 21.3287 42.118C21.2169 42.2822 21.196 42.4139 21.3526 42.585C21.8829 43.1637 22.8434 43.0755 23.2813 42.4564C23.8023 41.7203 24.3928 41.0366 25.0231 40.2422C25.1063 40.8467 24.9588 41.2669 24.9134 41.6961C24.8562 42.2371 24.9501 42.6673 25.4987 42.9108C26.2811 43.2576 26.968 43.2261 27.3789 42.841C28.8405 41.471 29.8577 39.7464 30.9789 38.1062C31.2137 37.763 31.2611 37.2363 30.9289 37.0453C30.7247 36.9277 30.2624 36.658 29.8791 37.1266C29.2345 37.9152 28.5777 38.6944 27.9418 39.4919C27.6417 39.8713 27.4008 40.3088 26.8884 40.7034ZM41.2043 27.455C40.9757 27.4744 40.7384 27.4628 40.5199 27.5221C40.2877 27.5851 40.1142 27.7572 40.105 28.0311C40.0958 28.305 40.2479 28.4786 40.4857 28.5621C40.6475 28.6187 40.8205 28.6492 40.9915 28.6696C41.754 28.7614 42.5185 28.7803 43.2835 28.7027C43.408 28.6901 43.5882 28.763 43.6438 28.6019C43.7076 28.4162 43.5274 28.3191 43.409 28.2399C42.7394 27.7929 42.0326 27.4466 41.2043 27.455Z" fill="#05102B"/>
<path d="M25.247 22.6463C25.0561 22.6043 24.9061 22.4899 24.7464 22.3803C23.8685 21.779 23.0178 21.8293 22.1966 22.5183C21.3745 23.2082 20.9269 24.1453 20.5763 25.1496C20.5436 25.1155 20.5069 25.0934 20.4946 25.0614C20.393 24.7965 20.4568 24.3599 20.1118 24.3321C19.7551 24.3033 19.6796 24.7246 19.5525 25.0048C19.3933 25.3568 19.2494 25.7162 19.0743 26.1308C18.8686 25.6685 18.7737 25.2739 18.8344 24.8458C18.9472 24.053 18.8252 23.7948 18.1332 23.426C17.8785 23.2906 17.6019 23.1951 17.3289 23.1012C17.1401 23.0361 16.9354 22.9858 16.9273 23.3158C16.9252 23.394 16.9528 23.5508 16.7981 23.502C16.2041 23.3142 16.272 23.819 16.2235 24.1191C16.1515 24.5656 16.1306 25.0279 16.3454 25.4581C16.4092 25.5856 16.448 25.743 16.3271 25.8437C15.9872 26.1266 16.2036 26.2798 16.4327 26.4571C17.062 26.9445 17.0819 27.1366 16.5935 27.8103C16.4414 27.6791 16.2914 27.3921 16.078 27.5978C15.6386 28.0207 15.0553 28.197 14.6026 28.5863C14.4765 28.4604 14.35 28.3339 14.2239 28.208C13.6794 27.0532 13.071 25.9277 12.7357 24.6789C12.4229 23.5131 12.2167 22.3399 12.1493 21.1226C12.0661 19.6325 12.0983 18.1607 12.2713 16.6811C12.454 15.1149 13.6095 14.5566 14.9476 15.3756C16.3521 16.2356 17.6606 17.2588 19.0345 18.1743C20.6549 19.2542 22.3661 20.1729 24.1222 20.9914C24.7984 21.3067 25.5272 21.0087 26.2259 20.8812C27.1363 20.7154 28.0453 20.5375 28.9777 20.5995C28.9869 20.6168 29.0017 20.6341 29.0027 20.6519C29.0037 20.6661 28.9899 20.6913 28.9787 20.6944C28.5587 20.8041 28.1325 20.6818 27.6906 20.8293C26.9827 21.0649 26.3682 21.4295 25.7461 21.8257C25.4124 22.0387 25.0949 22.163 25.247 22.6463Z" fill="#4ADEB2"/>
<path d="M25.2462 22.6452C25.0941 22.162 25.4115 22.0376 25.7453 21.8246C26.3674 21.4279 26.9819 21.0638 27.6897 20.8282C28.1317 20.6813 28.5578 20.803 28.9779 20.6934C28.9891 20.6902 29.0029 20.665 29.0019 20.6509C29.0008 20.633 28.986 20.6157 28.9768 20.5984C29.3193 20.5527 29.6607 20.4908 30.0047 20.4656C30.4717 20.4315 30.7518 20.2909 30.5457 19.7311C30.4967 19.5978 30.5385 19.4299 30.5385 19.1523C30.8218 19.4986 31.0295 19.7725 31.2576 20.0265C31.5276 20.3277 31.8011 20.6335 32.0813 20.0107C32.1844 19.7809 32.3564 19.7017 32.5355 20.0023C32.8086 20.4593 33.1862 20.527 33.6165 20.2211C33.7956 20.0936 33.9512 20.0438 34.1207 20.2427C34.1773 20.3088 34.2947 20.3717 34.3718 20.3586C35.1363 20.2285 35.5272 20.8838 36.0789 21.1981C36.1917 21.4584 36.3422 21.7134 36.1983 22.013C35.3884 22.0423 34.7025 22.4847 34.0707 22.8918C33.5108 23.2528 32.9688 23.6059 32.3462 23.8284C31.6909 23.0587 31.1321 22.2024 30.3686 21.5292C30.2175 21.3959 30.1027 21.2081 29.897 21.3954C29.5882 21.6766 29.4066 21.4982 29.2004 21.2506C29.1228 21.1572 29.0192 20.941 28.8498 21.0769C28.6839 21.2102 28.7492 21.3933 28.8681 21.546C29.4571 22.3021 29.823 23.1988 30.3308 24.0063C30.4543 24.2025 30.5237 24.4339 30.6181 24.6495C30.6089 24.7492 30.6304 24.8347 30.7222 24.8883L30.7263 24.8961C30.7217 24.9964 30.7503 25.0787 30.8432 25.1265C30.8626 25.1501 30.8697 25.1768 30.8651 25.2073C30.8912 25.2592 30.9172 25.3112 30.9427 25.3631C30.9636 25.3951 30.9744 25.4303 30.9749 25.4686C30.9274 25.5767 30.9647 25.8516 30.8167 25.7608C30.2956 25.4418 29.9235 25.6076 29.5551 26.0132C29.4801 26.0961 29.307 26.0851 29.1795 26.1171C28.1812 25.2204 27.2539 24.2418 26.2021 23.4065C25.8831 23.1531 25.5651 22.8992 25.2462 22.6452Z" fill="#26AAB9"/>
<path d="M50.4655 27.4226C50.3017 27.8187 49.8679 27.804 49.5877 28.0296C48.8916 28.5916 48.1674 29.1163 47.4749 29.6819C47.2248 29.886 47.1141 29.9269 47.0196 29.5607C46.9569 29.3162 46.8533 29.0612 46.6466 28.9012C46.199 28.5538 46.9201 28.1671 46.6073 27.8444C46.2046 27.4283 46.4894 27.155 46.7451 26.8386C46.9778 26.5505 47.1702 26.2279 47.3835 25.923C47.5468 25.689 47.6009 25.4691 47.3687 25.2378C47.0885 24.9591 47.1773 24.6569 47.3667 24.3788C47.6474 23.9659 47.7489 23.4764 47.9424 23.0267C47.9618 22.9816 47.9378 22.916 47.9311 22.8284C47.6561 23.0131 47.4004 23.1768 47.1534 23.3531C47.0375 23.436 46.8987 23.5399 46.7976 23.416C46.6522 23.2376 46.8614 23.1453 46.9564 23.0414C47.727 22.1987 48.4384 21.3157 48.8299 20.2086C49.0723 19.9646 49.3295 19.7343 49.5541 19.474C49.919 19.0511 50.167 19.2059 50.3201 19.6398C50.5406 20.2626 50.7595 20.8902 50.8059 21.5612C50.809 21.6011 50.8116 21.641 50.8146 21.6809C50.8162 21.7491 50.8177 21.8173 50.8192 21.8855C50.7973 22.3698 50.7192 22.8562 50.8779 23.3326C50.8769 23.6175 50.8759 23.9024 50.8748 24.1873C50.6773 24.4838 50.8815 24.8437 50.7156 25.1585C50.5217 25.5269 50.5482 25.9267 50.6916 26.3165C50.6758 26.4456 50.6595 26.5741 50.6437 26.7027C50.5319 26.7861 50.5508 26.9021 50.5702 27.018C50.564 27.0668 50.5579 27.1162 50.5518 27.1649C50.4467 27.1067 50.3252 27.0464 50.2685 27.2048C50.2068 27.3748 50.3701 27.3769 50.4655 27.4226Z" fill="#0675BC"/>
<path d="M47.6503 20.468C47.214 20.7791 47.0196 21.3038 46.622 21.6627C45.6692 22.5227 44.4959 22.9319 43.369 23.4377C42.7984 23.6938 42.7765 23.7326 43.1868 24.25C43.6104 24.7836 44.1447 25.2311 44.4014 25.8943C44.428 25.9625 44.4933 26.0302 44.3841 26.1562C43.7426 25.6787 43.1067 25.176 42.4044 24.7778C41.9324 24.5102 41.4894 24.1933 40.9852 23.9792C40.5983 23.8155 40.3293 23.9414 40.2952 24.3161C40.1941 25.4342 39.4138 26.2978 39.2576 27.3845C39.178 27.9391 38.7268 27.7586 38.4375 27.8137C38.0843 27.8808 38.1542 27.5293 38.1369 27.3089C38.0164 25.7506 37.9006 24.1922 37.7832 22.6339C37.9292 22.4707 38.0292 22.3007 38.2777 22.2058C38.5145 22.1155 38.9305 22.1129 38.9514 21.6758C41.7216 22.4125 44.157 21.509 46.4878 20.064C47.2706 19.5786 48.0755 19.1295 48.9068 18.7129C48.5567 19.3651 47.9566 19.8042 47.6503 20.468Z" fill="#0675BC"/>
<path d="M48.6723 40.5914C48.3941 40.625 48.1339 40.8259 47.7746 40.6675C48.3747 39.7744 48.9637 38.8982 49.5531 38.022C49.8425 37.9837 49.7629 38.2056 49.7313 38.3315C49.5838 38.9208 49.6812 39.5179 49.644 40.1087C49.6118 40.6181 49.7083 41.2436 48.932 41.3396C48.7677 41.36 48.7157 41.603 48.6365 41.7609C47.9241 43.1833 47.0805 44.4982 45.8214 45.4878C45.3422 45.8645 44.7997 46.1237 44.2781 46.4191C42.7348 47.2933 41.3523 48.4129 39.934 49.4697C38.653 50.4236 37.2169 50.7274 35.7144 50.9068C34.4758 50.9073 33.2372 50.9078 31.9986 50.9089C31.5908 50.8423 31.1937 50.741 30.8309 50.529C30.7783 50.4283 30.6962 50.4015 30.592 50.4293L30.5844 50.4262C30.5252 49.9041 31.0942 50.2111 31.2131 49.9241C31.8414 49.4067 32.4706 49.8422 33.0917 49.9361C35.5384 50.306 37.8064 49.8123 39.9049 48.4827C41.0696 47.745 42.2434 47.0209 43.3789 46.2381C44.4496 45.4999 45.3024 44.5365 45.9016 43.3481C46.1363 42.8827 46.4053 42.5663 47.0254 42.5102C48.043 42.4173 48.4697 41.5741 48.7366 40.6564C48.7524 40.6192 48.7682 40.5814 48.784 40.5442C48.7468 40.5604 48.7095 40.5756 48.6723 40.5914Z" fill="#0675BC"/>
<path d="M31.2127 49.9251C31.0938 50.2121 30.5253 49.9052 30.5839 50.4272C29.9822 50.3968 29.5541 50.0017 29.1039 49.6669C27.2906 48.3169 25.4381 47.023 23.4793 45.9112C22.3862 45.2905 21.169 44.9049 20.1534 44.1252C20.1381 44.0989 20.1156 44.0863 20.0855 44.0874C20.0855 44.0874 20.0401 44.0659 20.0406 44.0659C19.8809 43.8308 19.7369 43.5721 19.42 43.8959C19.2858 44.0333 19.0852 43.9399 18.9173 43.9709C18.9173 43.9709 18.8811 43.951 18.8811 43.9515C18.8729 43.717 18.7116 43.7285 18.5529 43.7358L18.5361 43.7185C18.5708 43.4383 18.434 43.3465 18.1829 43.3801C18.0461 43.2977 18.0063 43.154 17.9614 43.0133C17.9803 42.6051 17.5047 42.3312 17.671 41.8832C17.397 41.8123 17.3806 40.9303 16.8606 41.615C16.7662 41.7394 16.6024 41.7362 16.5105 41.6035C16.4278 41.4839 16.5324 41.402 16.6248 41.3149C16.8463 41.1056 17.1071 41.0882 17.3822 41.104C18.1992 41.5453 19.0153 41.9876 19.8329 42.4273C20.1197 42.5815 20.3386 42.8376 20.5795 43.0396C21.5109 43.8219 22.6112 44.3524 23.4977 45.1976C24.2683 45.9322 25.2452 46.3483 26.1572 46.8572C26.8829 47.2618 27.48 47.8436 28.1634 48.3028C28.5829 48.585 29.0228 48.8353 29.4535 49.0998C29.944 49.5053 30.5207 49.7205 31.1152 49.8957C31.1576 49.8716 31.1897 49.881 31.2127 49.9251Z" fill="#26AAB9"/>
<path d="M17.3826 41.1034C17.1075 41.0876 16.8467 41.105 16.6252 41.3143C16.5333 41.4014 16.4287 41.4833 16.5109 41.6029C16.6027 41.7356 16.7666 41.7388 16.861 41.6144C17.3805 40.9297 17.3974 41.8112 17.6714 41.8825C17.505 42.3306 17.9802 42.605 17.9618 43.0127C17.4933 42.5888 17.1024 42.0657 16.4553 41.8747C16.2996 41.8285 16.194 41.6039 16.0653 41.4617C15.6785 40.7518 15.0809 40.1904 14.7257 39.4585C14.6425 39.3095 14.6823 39.2197 14.8482 39.1914C15.3269 39.3667 15.6229 39.7754 15.9898 40.1007C16.4165 40.4795 16.9151 40.7728 17.3826 41.1034Z" fill="#4ADEB2"/>
<path d="M38.9514 21.6754C38.931 22.1125 38.5146 22.1151 38.2778 22.2053C38.0292 22.3003 37.9292 22.4708 37.7833 22.6335C37.6776 22.2279 37.6455 21.816 37.6883 21.3989C38.1344 21.3732 38.5559 21.4608 38.9514 21.6754Z" fill="#26AAB9"/>
<path d="M14.7246 39.459C15.0798 40.1909 15.6774 40.7523 16.0643 41.4623C15.4146 40.9376 14.7496 40.4244 14.7246 39.459Z" fill="#05102B"/>
<path d="M50.6926 26.3167C50.5492 25.9269 50.5227 25.527 50.7166 25.1587C50.883 24.8434 50.6783 24.484 50.8759 24.1875C50.9371 24.9084 50.9182 25.622 50.6926 26.3167Z" fill="#26AAB9"/>
<path d="M18.918 43.9696C19.0859 43.9387 19.2864 44.0321 19.4207 43.8946C19.7376 43.5703 19.8815 43.829 20.0413 44.0646C19.6605 44.1176 19.2732 44.2482 18.918 43.9696Z" fill="#4ADEB2"/>
<path d="M50.8783 23.3338C50.7201 22.8574 50.7977 22.371 50.8196 21.8867C50.9564 22.3642 50.913 22.849 50.8783 23.3338Z" fill="#26AAB9"/>
<path d="M50.4668 27.4232C50.3713 27.377 50.208 27.3754 50.2692 27.2049C50.3264 27.0464 50.4479 27.1068 50.5525 27.165C50.5571 27.2311 50.5617 27.2978 50.5658 27.3639C50.5331 27.3838 50.4999 27.4038 50.4668 27.4232Z" fill="#26AAB9"/>
<path d="M18.1836 43.3798C18.4342 43.3457 18.571 43.4375 18.5368 43.7183C18.3765 43.6521 18.2739 43.5225 18.1836 43.3798Z" fill="#4ADEB2"/>
<path d="M18.5527 43.7353C18.7115 43.728 18.8732 43.7165 18.8809 43.951C18.7268 43.951 18.6145 43.8838 18.5527 43.7353Z" fill="#4ADEB2"/>
<path d="M50.5714 27.0185C50.552 26.9025 50.5331 26.7866 50.6449 26.7031C50.6729 26.8217 50.6643 26.9303 50.5714 27.0185Z" fill="#26AAB9"/>
<path d="M30.5938 50.4302C30.6974 50.4024 30.7795 50.4292 30.8326 50.5299C30.7341 50.5436 30.6473 50.5284 30.5938 50.4302Z" fill="#26AAB9"/>
<path d="M20.0859 44.086C20.116 44.0849 20.1385 44.0975 20.1538 44.1238C20.1538 44.1233 20.1058 44.1327 20.1058 44.1327L20.0859 44.086Z" fill="#4ADEB2"/>
<path d="M50.8153 21.6821C50.8123 21.6423 50.8097 21.6019 50.8066 21.5625C50.8194 21.5903 50.8352 21.6165 50.8424 21.6454C50.8444 21.6543 50.825 21.6695 50.8153 21.6821Z" fill="#26AAB9"/>
<path d="M29.1911 29.1401C29.1324 29.6701 29.3881 29.8616 29.8801 29.9345C30.3547 30.0053 30.8017 30.2278 31.2039 30.5101C31.8475 30.9619 31.8173 31.6975 31.1279 32.0737C30.518 32.4063 30.0628 32.9908 29.3615 33.1771C29.1375 33.2364 29.2151 33.4017 29.3432 33.5376C29.5948 33.8036 29.8469 34.0696 30.0837 34.3493C30.3225 34.6315 30.5435 34.9301 30.7941 35.2496C30.9268 35.0303 31.0411 34.8482 31.1473 34.6609C31.1906 34.5843 31.2662 34.5119 31.1661 34.407C30.7885 34.0114 30.8339 33.813 31.3744 33.7097C31.8071 33.6268 32.0843 33.3985 32.3333 33.0402C32.9513 32.1524 33.5934 31.2803 34.362 30.5195C34.809 30.0772 35.2857 29.7241 35.9196 29.5457C36.2829 29.4434 36.6784 29.201 36.9683 28.8473C36.9045 29.5541 36.6631 30.1927 36.4442 30.8365C36.2993 31.2636 36.1262 31.6807 35.9813 32.1083C35.8267 32.5648 35.9737 32.6918 36.4355 32.6545C36.7244 32.6309 37.1291 32.3738 37.3087 32.9037C37.3256 32.9531 37.5986 32.9106 37.8395 32.9106C37.221 33.2469 36.7285 33.6651 36.0788 33.7306C35.8267 33.7558 35.7195 33.8739 35.6792 34.1341C35.5853 34.7412 35.4424 35.3404 35.3495 35.9475C35.2541 36.5698 34.7733 36.2555 34.4732 36.33C34.1318 36.4144 34.1951 36.0687 34.1961 35.8835C34.1981 35.448 34.1966 35.003 34.2818 34.5801C34.3859 34.0649 34.1946 34.0365 33.7781 34.0932C33.1728 34.1761 32.6661 34.3786 32.318 34.9254C32.1925 35.1227 31.9868 35.2664 31.8648 35.4653C31.5443 35.9884 31.1447 35.981 30.5695 35.9448C29.8938 35.9023 29.632 35.4899 29.2809 35.0864C28.9073 34.6567 28.5251 34.2385 28.0438 33.9269C27.8136 33.7773 27.6228 33.7149 27.5003 34.0371C27.2313 34.7438 26.6745 35.1358 26.0198 35.3535C25.6763 35.4674 25.6293 35.8299 25.2221 36.0361C25.4869 35.3881 25.7176 34.8488 25.9238 34.2999C25.9713 34.173 26.1509 34.0171 25.9815 33.8823C25.8518 33.7794 25.686 33.8702 25.5426 33.9321C25.3022 34.0365 25.1516 34.2496 24.9669 34.4232C23.9783 35.3514 22.8989 36.1007 21.5154 36.2324C20.0129 36.3751 19.5046 35.9831 19.2413 34.4579C18.6896 34.8498 18.0542 34.9873 17.4321 35.1552C16.7043 35.3509 15.9745 35.534 15.2702 35.8168C14.7185 36.0382 14.0479 35.7906 13.6851 35.3178C13.4743 35.0429 13.7371 34.9694 13.8417 34.8587C14.917 33.7175 16.0056 32.5894 17.084 31.4514C17.2667 31.2588 17.4811 31.0831 17.5918 30.7567C16.5196 30.9393 15.6601 31.4991 14.7895 32.0826C14.8931 30.9823 15.3626 30.6434 15.9622 30.1738C16.5854 29.6863 17.2876 29.4565 18.0746 29.4901C19.0591 29.5321 19.5301 30.295 19.0999 31.2169C18.7615 31.942 18.2175 32.5155 17.6643 33.0722C17.4045 33.334 17.1274 33.5774 16.7615 33.9201C17.6678 33.8749 18.4574 33.8319 19.2469 33.7983C19.5158 33.7868 19.5168 33.5481 19.597 33.3849C20.1716 32.2143 20.8989 31.1812 22.0166 30.4896C22.6407 30.1035 23.3144 29.8458 24.0396 29.8385C24.5009 29.8338 24.8403 29.7204 25.1088 29.3232C25.2185 29.1611 25.3573 28.968 25.5926 28.9476C25.6656 29.0499 25.5987 29.137 25.5905 29.2304C25.5778 29.3789 25.3032 29.4665 25.5053 29.6622C25.837 29.9833 25.8304 29.9718 26.1152 29.914C26.5122 29.8332 26.92 29.7005 27.3135 29.7304C27.9167 29.7761 28.2362 29.5053 28.4373 28.9748C28.4853 28.8489 28.5741 28.7393 28.6751 28.5703C28.792 28.8552 28.8578 29.1548 29.1977 29.1559L29.1911 29.1401ZM22.286 32.0307C22.2329 32.0857 22.1799 32.1403 22.1268 32.1954C21.7685 32.7159 21.3235 33.1776 21.0714 33.7695C20.8106 34.3823 21.0106 34.8682 21.5429 34.8897C22.6484 34.9353 23.543 34.2443 24.5208 33.8734C24.8771 33.738 25.2256 33.3481 25.6395 33.2852C26.2923 33.1855 26.5934 32.7589 26.8358 32.218C26.9404 31.9845 27.0532 31.7547 27.1701 31.528C27.5962 30.7021 27.5202 30.5767 26.6271 30.5883C26.351 30.5919 26.0488 30.7404 25.8003 30.5578C25.466 30.3123 25.4242 30.2971 25.2864 30.6607C25.2027 30.8811 25.1552 31.1156 25.0822 31.3402C24.9465 31.7578 24.6571 31.9902 24.2351 32.0411C23.8227 32.091 23.7022 31.8223 23.6573 31.4692C23.6272 31.2326 23.5068 31.4309 23.4272 31.4189C22.8969 31.3381 22.7545 32.0044 22.286 32.0307ZM28.1132 32.3344C28.8058 32.1067 29.335 31.8848 29.8168 31.5595C29.9275 31.4844 30.1296 31.4115 29.9796 31.2053C29.7867 30.9409 28.8685 30.9771 28.7062 31.2567C28.5225 31.5736 28.3521 31.899 28.1132 32.3344ZM33.7842 32.9604C34.6901 32.9137 34.6901 32.9137 34.6968 32.0669C34.3278 32.2725 34.0384 32.5344 33.7842 32.9604Z" fill="#F2F4F4"/>
<path d="M45.2556 37.7392C45.3746 37.8121 45.3577 37.9375 45.2526 37.9464C44.339 38.023 43.4219 38.0566 42.5099 38.1484C41.9205 38.2077 41.3387 38.3447 40.7528 38.4428C40.5476 38.4769 40.49 38.6621 40.3935 38.8027C39.5484 40.0352 38.7456 41.3008 37.8535 42.496C37.1819 43.3953 37.1962 43.3397 36.5164 42.846C36.2234 42.6335 36.2234 42.4063 36.3587 42.0857C36.8496 40.9214 37.5208 39.8621 38.2352 38.6799C36.6618 38.8982 35.192 38.6453 33.7212 38.7534C33.1853 38.7927 32.9909 39.2272 32.7459 39.6522C33.196 39.6921 33.6232 39.6643 34.0565 39.5835C34.5709 39.4874 35.1007 39.4119 35.5595 39.7802C35.7146 39.9046 35.9708 39.9612 35.9274 40.253C35.8886 40.5137 35.6697 40.6071 35.4814 40.6701C34.5699 40.9776 33.6298 41.2976 32.677 41.2079C31.8017 41.1255 31.3123 41.5248 30.877 42.1765C30.6366 42.5359 30.3748 42.8801 30.1227 43.2316C29.9456 43.4788 29.77 43.6902 29.5087 43.3103C29.4603 43.24 29.3546 43.1981 29.2673 43.1702C28.5631 42.9467 28.4743 42.7641 28.8739 42.1502C29.7389 40.8212 30.6882 39.5457 31.4731 38.1699C31.7257 37.7266 31.9998 37.4994 32.3938 37.2911C32.6908 37.1337 32.9602 37.2906 33.2415 37.2895C35.2063 37.2795 37.1727 37.2759 39.1273 37.0413C40.7436 36.8472 42.3645 36.8913 43.9844 36.8771C44.3835 36.8734 44.7825 36.9401 45.1811 36.9736C44.9336 37.4857 44.9397 37.5456 45.2556 37.7392Z" fill="#F2F4F4"/>
<path d="M44.8142 29.8613C44.5917 29.9263 44.3692 29.9914 44.1451 30.057C44.6754 30.5234 44.9193 30.4925 45.32 29.9279C45.4639 29.7249 45.6349 29.4184 45.8972 29.5627C46.1381 29.6949 46.1228 30.0391 46.0406 30.3078C45.9538 30.5895 45.8359 30.8613 45.7191 31.1321C45.5614 31.4978 45.7277 31.7795 46.1222 31.7979C46.4509 31.8136 46.7224 31.6667 46.9699 31.4673C47.6992 30.8797 48.4142 30.2726 49.1573 29.7044C49.6028 29.3639 49.9892 28.899 50.6026 28.8512L50.5858 28.8418C49.9917 29.2306 50.1321 29.8954 50.053 30.4589C50.032 30.6074 50.0101 30.7076 49.9172 30.7842C48.1861 32.2187 46.7561 33.9397 45.444 35.7688C45.2174 36.0846 44.9362 35.9991 44.6647 35.9839C44.4391 35.9713 44.2171 35.8858 43.9599 35.8249C44.3906 34.9455 44.9239 34.1291 45.4736 33.2985C43.8895 32.8357 44.4815 31.6851 44.6922 30.5413C42.5896 31.5256 40.735 32.6684 39.1519 34.4492C40.6732 34.2435 42.1063 34.0971 43.5945 34.1832C43.4107 34.3951 43.1693 34.3972 43.0305 34.3678C42.6013 34.2755 42.7718 34.7608 42.5447 34.8348C42.6166 34.9954 42.8259 34.8416 42.9193 35.019C41.5245 35.1906 40.1445 35.3495 38.7926 35.678C38.8109 35.6192 38.8278 35.561 38.8451 35.5027C38.8824 35.4959 38.9202 35.4891 38.9574 35.4823C38.9477 35.4655 38.9385 35.4482 38.9288 35.4314C38.9003 35.4545 38.8717 35.4776 38.8431 35.5007C38.4471 35.5647 37.9592 35.3952 37.7571 35.9519C37.4468 36.0584 37.14 36.1775 36.8252 36.2672C36.5072 36.3575 36.2229 36.3375 36.0351 35.9813C35.8545 35.6381 35.9402 35.3857 36.2036 35.1444C37.5131 33.9434 38.9186 32.8636 40.2879 31.7381C40.3905 31.6541 40.489 31.5649 40.6309 31.4427C40.0174 31.152 39.331 31.5245 38.7966 31.0906C38.8349 30.8729 39.1207 30.9558 39.1667 30.7496C38.9523 30.6305 38.7201 30.7485 38.3481 30.6667C40.1113 29.9987 41.823 29.8744 43.5373 29.7642C43.5368 29.7642 43.546 29.7642 43.546 29.7642C43.9231 29.7395 44.3003 29.7144 44.6769 29.6897C44.7234 29.7464 44.7688 29.8036 44.8142 29.8613Z" fill="#F2F4F4"/>
<path d="M26.8873 40.7028C27.4002 40.3077 27.6406 39.8707 27.9422 39.4924C28.5776 38.6948 29.235 37.9157 29.8795 37.1271C30.2628 36.6585 30.7252 36.9282 30.9293 37.0457C31.2616 37.2367 31.2141 37.7635 30.9793 38.1067C29.8581 39.7468 28.841 41.4715 27.3793 42.8415C26.9685 43.2266 26.281 43.2581 25.4992 42.9112C24.95 42.6678 24.8567 42.237 24.9138 41.6966C24.9592 41.2669 25.1067 40.8471 25.0235 40.2427C24.3933 41.0371 23.8028 41.7207 23.2817 42.4569C22.8438 43.0755 21.8833 43.1641 21.3531 42.5854C21.1959 42.4138 21.2173 42.2827 21.3291 42.1184C22.4019 40.5381 23.5399 39.0123 24.9715 37.7509C25.4073 37.3668 26.6475 37.5667 27.0471 38.0238C27.2002 38.1995 27.1466 38.4021 27.1293 38.5873C27.0655 39.2526 26.9787 39.9163 26.8873 40.7028Z" fill="#F2F4F4"/>
<path d="M41.6446 44.4604C41.685 44.6812 41.4997 44.751 41.3808 44.8544C39.1863 46.7595 36.6835 47.4799 33.8475 46.918C32.79 46.7087 31.7305 46.5082 30.7578 46.0008C30.7726 45.8833 30.7951 45.7658 30.8007 45.6477C30.8446 44.6503 30.8441 44.6655 31.7959 44.6414C32.4547 44.6246 33.109 44.9168 33.7214 44.8533C35.0274 44.718 36.3324 44.6671 37.6404 44.6199C38.7418 44.5805 39.3261 44.4126 39.861 43.9923C39.5762 44.028 39.2919 44.0831 39.0066 44.0952C38.5596 44.1135 38.7969 43.6502 38.6254 43.4356C38.4059 44.4609 38.4029 44.4656 37.3965 44.4656C37.1454 44.4656 36.8902 44.4724 36.6452 44.4283C36.3635 44.378 36.1594 44.2368 36.3676 43.8947C37.2903 44.2998 37.7644 44.1744 38.4156 43.3354C38.5749 43.1303 38.6989 42.9513 39.0168 42.9954C40.9414 43.2635 42.5041 42.4555 43.9152 41.2146C44.0856 41.0651 44.2112 40.851 44.5098 40.7676C44.398 41.2309 44.152 41.5767 43.9346 41.9329C43.4309 42.7588 42.8281 43.5044 42.1341 44.1671C42.0019 44.2935 41.9054 44.5349 41.6472 44.4598C41.3058 43.9908 41.2399 43.5768 41.8988 43.2557C41.5645 43.4477 41.1139 43.1334 41.0026 43.3097C40.8255 43.5904 40.528 43.6245 40.357 43.8496C40.3203 43.8837 40.2121 43.8024 40.2335 43.9299C40.2733 43.9016 40.3131 43.8732 40.3534 43.8449C40.6474 43.8187 40.9245 43.8155 41.1419 44.0889C41.2716 44.2526 41.4078 44.4367 41.6446 44.4604Z" fill="#F2F4F4"/>
<path d="M32.3477 23.8291C32.9703 23.6066 33.5128 23.2535 34.0721 22.8925C34.704 22.4854 35.3899 22.0431 36.1998 22.0137L36.187 22.0205C36.1819 22.1517 36.2274 22.2435 36.3646 22.265C36.7515 23.243 36.6132 24.2898 36.7346 25.3024C36.7862 25.7316 36.7326 26.1734 36.7627 26.6068C36.7903 27.0077 36.6999 27.3367 36.4101 27.6189C36.0941 27.9269 35.7558 28.2087 35.4409 28.5183C35.0495 28.9034 34.7478 28.7607 34.5508 28.237C34.0155 26.8156 33.3791 25.4462 32.5304 24.1896C32.4548 24.0768 32.3497 23.9807 32.3477 23.8291Z" fill="#0675BC"/>
<path d="M25.6053 25.7061C25.9957 25.5455 26.405 25.5907 26.8061 25.6137C27.1659 25.6347 27.4461 25.8168 27.4706 26.224C27.4961 26.6453 27.2129 26.8803 26.8628 26.8767C25.4797 26.8609 24.2773 27.4423 23.0663 28.009C22.8785 27.649 23.2311 27.4386 23.2913 27.1469L23.2934 27.1495C23.3322 27.1096 23.3704 27.0698 23.4092 27.0299L23.4051 27.022C23.9558 27.1495 24.2539 26.6306 24.6387 26.4165C24.9535 26.2423 25.5333 26.2743 25.6053 25.7061Z" fill="#0675BC"/>
<path d="M29.1797 26.1173C29.3073 26.0853 29.4803 26.0963 29.5553 26.0134C29.9238 25.6078 30.2958 25.4415 30.8169 25.761C30.9649 25.8518 30.9276 25.5763 30.9751 25.4688C31.4232 26.27 31.6523 27.1441 31.7764 28.0502C31.8019 28.2354 31.8544 28.4705 31.6003 28.5539C31.4007 28.6195 31.2226 28.556 31.0756 28.395C30.4091 27.6651 29.7324 26.9458 29.1797 26.1173Z" fill="#0675BC"/>
<path d="M33.7793 43.0165C34.3366 42.792 34.7806 42.3706 35.3756 42.0254C34.9424 43.0664 35.8355 43.3303 36.2519 43.8618C36.2167 44.6184 35.6487 44.5596 35.17 44.5749C33.5818 44.6258 33.5675 44.6 33.7793 43.0165Z" fill="#F2F4F4"/>
<path d="M41.2037 27.4552C42.0325 27.4473 42.7389 27.7931 43.4079 28.2407C43.5263 28.3199 43.706 28.4164 43.6427 28.6027C43.5876 28.7638 43.4074 28.6909 43.2824 28.7035C42.5179 28.7811 41.7529 28.7622 40.9904 28.6704C40.8199 28.6499 40.6464 28.6195 40.4846 28.5628C40.2468 28.4794 40.0947 28.3052 40.1039 28.0318C40.1131 27.758 40.2866 27.5859 40.5188 27.5229C40.7378 27.4631 40.9746 27.4746 41.2037 27.4552Z" fill="#0675BC"/>
<path d="M33.7803 43.0156C33.5685 44.5991 33.5828 44.6248 35.1716 44.574C35.6503 44.5587 36.2183 44.6175 36.2535 43.8609C36.2928 43.8724 36.3311 43.884 36.3688 43.8945C36.1601 44.2366 36.3642 44.3772 36.6454 44.4276C36.8904 44.4716 37.1461 44.4648 37.3967 44.4648C38.4031 44.4648 38.4062 44.4601 38.6256 43.4349C38.7971 43.6495 38.5598 44.1128 39.0068 44.0944C39.2926 44.0828 39.5764 44.0272 39.8612 43.9915C39.3268 44.4124 38.742 44.5797 37.6406 44.6191C36.3326 44.6658 35.0276 44.7172 33.7216 44.8526C33.1092 44.9161 32.4549 44.6238 31.7961 44.6406C30.8443 44.6647 30.8448 44.6495 30.8009 45.6469C30.7958 45.765 30.7733 45.8825 30.758 46.0001C30.7203 45.988 30.683 45.9759 30.6452 45.9639C30.5524 45.4355 30.8984 44.8263 30.3691 44.3782C30.5059 44.2418 30.6432 44.1059 30.78 43.9695C31.0862 44.5015 31.6159 44.5608 32.1283 44.6018C33.6119 44.7198 33.7191 44.5991 33.6288 43.0681C33.6793 43.0508 33.7298 43.0329 33.7803 43.0156Z" fill="#4ADEB2"/>
<path d="M33.6281 43.0684C33.7189 44.5994 33.6112 44.7201 32.1276 44.602C31.6153 44.5611 31.0855 44.5013 30.7793 43.9698C30.939 43.4818 31.2315 43.2934 31.7643 43.3249C32.3879 43.3617 33.0146 43.2205 33.6281 43.0684Z" fill="#F2F4F4"/>
<path d="M30.3683 44.3781C30.8975 44.8262 30.5515 45.4353 30.6444 45.9637C29.7702 45.662 28.9582 45.2359 28.209 44.684C28.3029 44.4552 28.3968 44.2254 28.4902 43.9961C29.0929 44.2453 29.6757 44.5969 30.3683 44.3781Z" fill="#F2F4F4"/>
<path d="M14.6016 28.584C15.0542 28.1946 15.6376 28.0184 16.077 27.5955C16.2903 27.3898 16.4404 27.6768 16.5924 27.808C16.4169 28.1941 16.3046 28.6296 15.9698 28.9077C15.2538 29.5032 15.1206 29.4634 14.6016 28.584Z" fill="#26AAB9"/>
<path d="M25.6039 25.707C25.5325 26.2753 24.9522 26.2433 24.6378 26.418C24.253 26.6321 23.9545 27.151 23.4043 27.0235C23.9106 26.184 24.7327 25.9022 25.6039 25.707Z" fill="#26AAB9"/>
<path d="M28.0796 44.587C27.8382 44.4427 27.5963 44.2979 27.2324 44.0801C27.6581 44.0728 27.6657 43.4825 28.1107 43.7139C27.9862 44.0009 28.0699 44.2953 28.0796 44.587Z" fill="#F2F4F4"/>
<path d="M31.1168 49.8956C30.5222 49.7203 29.9455 49.5052 29.4551 49.0996C30.0726 49.2245 30.6503 49.437 31.1168 49.8956Z" fill="#F2F4F4"/>
<path d="M38.8469 35.5026C38.8295 35.5609 38.8127 35.6191 38.7943 35.6779C38.4478 35.7697 38.1023 35.8605 37.7578 35.9512C37.9609 35.3945 38.4488 35.564 38.8449 35.5L38.8469 35.5026Z" fill="#4ADEB2"/>
<path d="M45.2555 37.7396C44.9396 37.5465 44.9335 37.4862 45.181 36.9746C45.255 37.2013 45.429 37.2879 45.7199 37.3067C45.5367 37.4867 45.3035 37.5229 45.2555 37.7396Z" fill="#4ADEB2"/>
<path d="M28.0794 44.5879C28.0702 44.2962 27.986 44.0018 28.11 43.7148C28.2713 43.761 28.3902 43.866 28.4913 43.9966C28.3974 44.2259 28.304 44.4552 28.2095 44.6839C28.1412 44.6871 28.086 44.6724 28.0794 44.5879Z" fill="#4ADEB2"/>
<path d="M23.0038 28.0379C22.8583 28.2541 22.6333 28.3485 22.3516 28.498C22.3863 28.1953 22.446 27.9812 22.6726 27.8438C22.7833 27.9083 22.8936 27.9728 23.0038 28.0379Z" fill="#0675BC"/>
<path d="M23.005 28.0369C22.8948 27.9723 22.7846 27.9073 22.6738 27.8422C22.8683 27.5998 22.8688 27.1753 23.2914 27.1465C23.2311 27.4377 22.8785 27.6486 23.0663 28.0086C23.05 28.0269 23.0295 28.0364 23.005 28.0369Z" fill="#26AAB9"/>
<path d="M44.8135 29.861C44.7681 29.8038 44.7226 29.7461 44.6777 29.6889C44.8421 29.6779 45.0059 29.6674 45.2054 29.6543C45.0942 29.84 44.9543 29.8516 44.8135 29.861Z" fill="#4ADEB2"/>
<path d="M30.8439 25.1268C30.751 25.0791 30.7224 24.9962 30.727 24.8965C30.8179 24.9453 30.8521 25.025 30.8439 25.1268Z" fill="#0675BC"/>
<path d="M30.7234 24.8891C30.6315 24.8361 30.6096 24.7501 30.6193 24.6504C30.704 24.7076 30.729 24.791 30.7234 24.8891Z" fill="#0675BC"/>
<path d="M36.3636 22.2656C36.2263 22.2441 36.1804 22.1523 36.186 22.0211C36.3748 22.0028 36.3529 22.147 36.3636 22.2656Z" fill="#26AAB9"/>
<path d="M43.5478 29.7645C43.5478 29.7645 43.5386 29.7645 43.5391 29.7645C43.5396 29.7645 43.5447 29.7383 43.5447 29.7383L43.5478 29.7645Z" fill="#4ADEB2"/>
<path d="M29.1971 29.1563C29.2124 29.1542 29.2283 29.1506 29.2436 29.1511C29.2477 29.1511 29.2517 29.1642 29.2558 29.171C29.2344 29.1621 29.2135 29.1532 29.1915 29.1427C29.1905 29.1411 29.1971 29.1563 29.1971 29.1563Z" fill="#F2F4F4"/>
<path d="M50.6025 28.8511C50.5877 28.8254 50.5734 28.7997 50.5586 28.7745C50.5846 28.7672 50.6107 28.7593 50.6372 28.752C50.6193 28.7813 50.6015 28.8112 50.5846 28.8412C50.5862 28.8422 50.6025 28.8511 50.6025 28.8511Z" fill="#F2F4F4"/>
<path d="M23.409 27.0303C23.3702 27.0702 23.3319 27.1101 23.2931 27.15C23.2763 27.0534 23.311 27.0099 23.409 27.0303Z" fill="#26AAB9"/>
<path d="M30.9428 25.3629C30.9168 25.3109 30.8908 25.2595 30.8652 25.207C30.8913 25.259 30.9173 25.3109 30.9428 25.3629Z" fill="#0675BC"/>
<path d="M48.6719 40.5916C48.7091 40.5759 48.7464 40.5607 48.7831 40.5449C48.7673 40.5822 48.7515 40.6194 48.7357 40.6572C48.7147 40.6357 48.6933 40.6137 48.6719 40.5916Z" fill="#05102B"/>
<path d="M22.2846 32.0321C22.7531 32.0058 22.8955 31.3395 23.4263 31.4203C23.5059 31.4324 23.6263 31.2346 23.6565 31.4707C23.7014 31.8238 23.8218 32.0919 24.2342 32.0426C24.6562 31.9917 24.9456 31.7592 25.0814 31.3416C25.1543 31.1165 25.2023 30.8825 25.2855 30.6621C25.4233 30.2985 25.4651 30.3132 25.7994 30.5593C26.048 30.7419 26.3496 30.5934 26.6262 30.5897C27.5193 30.5782 27.5953 30.7036 27.1692 31.5294C27.0523 31.7566 26.9395 31.9864 26.8349 32.2194C26.592 32.7604 26.2909 33.1869 25.6387 33.2866C25.2253 33.3496 24.8762 33.7394 24.52 33.8748C23.5421 34.2458 22.6475 34.9362 21.5421 34.8911C21.0103 34.8691 20.8102 34.3832 21.0705 33.7709C21.3221 33.1796 21.7671 32.7173 22.1259 32.1968C22.1463 32.295 22.2009 32.3243 22.2775 32.2593C22.3566 32.1921 22.3984 32.1118 22.2846 32.0321Z" fill="#05102B"/>
<path d="M28.1133 32.3342C28.3521 31.8987 28.5221 31.5734 28.7063 31.2565C28.8686 30.9768 29.7867 30.9406 29.9796 31.205C30.1297 31.4112 29.9281 31.4842 29.8168 31.5592C29.3351 31.8845 28.8058 32.1065 28.1133 32.3342Z" fill="#05102B"/>
<path d="M33.7832 32.9619C34.0374 32.5359 34.3267 32.274 34.6957 32.0684C34.6891 32.9152 34.6891 32.9152 33.7832 32.9619Z" fill="#05102B"/>
<path d="M22.2862 32.0312C22.4 32.111 22.3581 32.1908 22.2785 32.2584C22.202 32.3235 22.1474 32.2941 22.127 32.196C22.18 32.1409 22.2331 32.0863 22.2862 32.0312Z" fill="#FDFDFD"/>
<path d="M38.8457 35.5009C38.8743 35.4778 38.9029 35.4547 38.9314 35.4316C38.9411 35.4484 38.9503 35.4657 38.96 35.4825C38.9228 35.4894 38.885 35.4962 38.8477 35.503C38.8472 35.5035 38.8457 35.5009 38.8457 35.5009Z" fill="#4ADEB2"/>
<path d="M41.6452 44.4605C41.4079 44.4369 41.2716 44.2527 41.142 44.089C40.9251 43.8157 40.6475 43.8188 40.3535 43.845L40.3576 43.8498C40.5286 43.6252 40.8261 43.5906 41.0032 43.3099C41.1144 43.1336 41.5646 43.4479 41.8994 43.2558C41.24 43.5769 41.3063 43.9909 41.6478 44.46L41.6452 44.4605Z" fill="#4ADEB2"/>
<path d="M40.3531 43.8457C40.3133 43.874 40.2735 43.9024 40.2331 43.9307C40.2122 43.8027 40.3199 43.8845 40.3566 43.8504L40.3531 43.8457Z" fill="#4ADEB2"/>
</g>
<defs>
<clipPath id="clip0_13447_117371">
<path d="M0 32C0 14.3269 14.3269 0 32 0C49.6731 0 64 14.3269 64 32C64 49.6731 49.6731 64 32 64C14.3269 64 0 49.6731 0 32Z" fill="white"/>
</clipPath>
</defs>
</svg>
