<svg width="12" height="18" viewBox="0 0 12 18" fill="none" xmlns="http://www.w3.org/2000/svg">
<path d="M7.15794 18H3.91494C3.66954 18 3.47214 17.8026 3.47214 17.5572V10.1556H1.36614C1.12194 10.1556 0.92334 9.9564 0.92334 9.7134V6.2358C0.92334 5.9922 1.12194 5.793 1.36614 5.793H3.47214V4.8816C3.47214 2.2356 5.46534 0 7.82514 0H10.6355C10.8791 0 11.0777 0.1986 11.0777 0.4428V3.9192C11.0777 4.1622 10.8791 4.362 10.6355 4.362H7.82994C7.77834 4.3746 7.60134 4.5234 7.60134 4.8504V5.7918H10.6355C10.8791 5.7918 11.0777 5.991 11.0777 6.2346V9.7122C11.0777 9.9552 10.8791 10.1544 10.6355 10.1544H7.60134V17.556C7.60074 17.8026 7.40274 18 7.15794 18ZM4.35774 17.1138H6.71514V9.7128C6.71514 9.4668 6.91314 9.27 7.15794 9.27H10.1921V6.678H7.15794C6.91314 6.678 6.71514 6.4812 6.71514 6.2358V4.851C6.71514 4.029 7.28874 3.4764 7.82514 3.4764H10.1921V0.8862H7.82514C5.97774 0.8862 4.35834 2.7534 4.35834 4.8816V6.2358C4.35834 6.4812 4.15974 6.678 3.91554 6.678H1.80954V9.27H3.91554C4.16034 9.27 4.35834 9.4668 4.35834 9.7128V17.1138H4.35774Z" fill="white"/>
</svg>
