<svg width="44" height="48" viewBox="0 0 44 48" fill="none" xmlns="http://www.w3.org/2000/svg">
<path d="M1.05371 39.8762V8.14268C1.05973 6.43699 2.43974 5.05713 4.13761 5.05713C5.83876 5.05713 7.22152 6.43989 7.22152 8.14103V17.9059V20.3018L8.92479 18.6169L25.4407 2.2786L25.443 2.27632C25.539 2.18068 25.6394 2.09302 25.7433 2.01317L25.7992 1.97013L25.8486 1.91965L25.8621 1.90596C25.8625 1.90556 25.8629 1.90515 25.8633 1.90475C27.0609 0.703212 29.0139 0.696506 30.2246 1.89617C30.2248 1.89635 30.2249 1.89652 30.2251 1.8967L42.0939 13.7101C42.094 13.7101 42.094 13.7101 42.0941 13.7102C43.2969 14.9079 43.3038 16.8621 42.1032 18.0731C40.908 19.2787 38.9555 19.2834 37.7424 18.0815C37.7421 18.0813 37.7419 18.081 37.7417 18.0808L28.7126 9.09394L28.0092 8.39383L27.3038 9.09189L12.9595 23.2864L12.241 23.9973L12.9596 24.7081L27.3316 38.9256L28.037 39.6234L28.7403 38.9234L37.7431 29.9627L37.7432 29.9626C38.9449 28.7661 40.8981 28.7682 42.1049 29.9735C43.3038 31.1847 43.2963 33.1376 42.0941 34.3347C42.094 34.3348 42.094 34.3348 42.0939 34.3348L30.2251 46.1482C30.225 46.1483 30.225 46.1484 30.2249 46.1484C29.0141 47.3485 27.0606 47.3418 25.8629 46.1398C25.8109 46.0873 25.7613 46.0335 25.714 45.9786L25.6654 45.9223L25.6091 45.8737C25.5525 45.8249 25.4971 45.7736 25.443 45.7198L25.4407 45.7175L8.92479 29.3793L7.22152 27.6943V30.0902V39.8762C7.22152 41.5774 5.83876 42.9601 4.13761 42.9601C2.43647 42.9601 1.05371 41.5774 1.05371 39.8762ZM31.191 24.0257C31.191 25.748 29.7948 27.1442 28.0724 27.1442C26.3501 27.1442 24.9538 25.748 24.9538 24.0257C24.9538 22.3033 26.3501 20.9071 28.0724 20.9071C29.7948 20.9071 31.191 22.3033 31.191 24.0257Z" stroke="white" stroke-width="2"/>
</svg>
