<svg width="24" height="24" viewBox="0 0 24 24" fill="none" xmlns="http://www.w3.org/2000/svg">
<g clip-path="url(#clip0_123_13893)">
<mask id="path-1-inside-1_123_13893" fill="white">
<path d="M9.40338 11.8107L9.1951 11.6016C9.16008 11.5664 9.11538 11.5423 9.06668 11.5325C9.01797 11.5227 8.96745 11.5276 8.92153 11.5466C8.87561 11.5656 8.83637 11.5977 8.80877 11.639C8.78117 11.6803 8.76647 11.7289 8.76652 11.7786V14.7664C8.76658 14.7993 8.77314 14.832 8.78581 14.8624C8.79849 14.8928 8.81704 14.9204 8.84041 14.9437C8.86378 14.9669 8.8915 14.9853 8.92199 14.9979C8.95248 15.0104 8.98514 15.0168 9.0181 15.0167H12.0065C12.0564 15.017 12.1052 15.0025 12.1467 14.975C12.1882 14.9474 12.2205 14.9081 12.2395 14.862C12.2585 14.8159 12.2633 14.7652 12.2532 14.7164C12.2432 14.6676 12.2187 14.6229 12.1831 14.5881C12.1364 14.5411 12.1102 14.4776 12.1102 14.4113C12.1102 14.3451 12.1364 14.2815 12.1831 14.2346L15.3622 11.0471C15.3855 11.0238 15.4039 10.9962 15.4165 10.9659C15.4291 10.9355 15.4356 10.903 15.4356 10.8701C15.4356 10.8372 15.4291 10.8047 15.4165 10.7743C15.4039 10.7439 15.3855 10.7163 15.3622 10.6931L15.0725 10.4047C15.0371 10.3698 15.0128 10.3251 15.0029 10.2763C14.993 10.2275 14.9978 10.1769 15.0168 10.1309C15.0358 10.0849 15.0681 10.0456 15.1096 10.018C15.151 9.99047 15.1997 9.97589 15.2495 9.97616H18.2367C18.3031 9.97616 18.3669 10.0025 18.4139 10.0494C18.461 10.0963 18.4876 10.16 18.4878 10.2264V13.2142C18.4877 13.2638 18.4728 13.3122 18.4452 13.3534C18.4176 13.3946 18.3784 13.4267 18.3325 13.4456C18.2867 13.4645 18.2363 13.4694 18.1877 13.4598C18.139 13.4501 18.0943 13.4262 18.0592 13.3912L17.8574 13.1902C17.8346 13.1664 17.8072 13.1474 17.7768 13.1344C17.7465 13.1214 17.7138 13.1147 17.6808 13.1147C17.6478 13.1147 17.6151 13.1214 17.5848 13.1344C17.5544 13.1474 17.527 13.1664 17.5042 13.1902L12.1471 18.547C12.0999 18.5935 12.0362 18.6196 11.9699 18.6196C11.9036 18.6196 11.8399 18.5935 11.7927 18.547L5.23552 11.9903C5.2121 11.9671 5.1935 11.9394 5.18081 11.909C5.16812 11.8785 5.16159 11.8459 5.16159 11.8129C5.16159 11.7799 5.16812 11.7472 5.18081 11.7168C5.1935 11.6863 5.2121 11.6587 5.23552 11.6355L14.314 2.56154C14.3605 2.51432 14.3866 2.45066 14.3866 2.38434C14.3866 2.31802 14.3605 2.25437 14.314 2.20714L12.1771 0.0730073C12.13 0.0262426 12.0663 0 11.9999 0C11.9335 0 11.8698 0.0262426 11.8227 0.0730073L0.0725242 11.8236C0.0257561 11.8707 -0.000488281 11.9344 -0.000488281 12.0008C-0.000488281 12.0672 0.0257561 12.1309 0.0725242 12.178L11.8227 23.9273C11.8698 23.9741 11.9335 24.0003 11.9999 24.0003C12.0663 24.0003 12.13 23.9741 12.1771 23.9273L23.9268 12.178C23.9735 12.131 23.9997 12.0675 23.9997 12.0012C23.9997 11.935 23.9735 11.8714 23.9268 11.8245L17.014 4.91209C16.9669 4.86535 16.9033 4.83912 16.837 4.83912C16.7706 4.83912 16.707 4.86535 16.66 4.91209L9.75995 11.8116C9.73672 11.835 9.70909 11.8536 9.67863 11.8663C9.64818 11.879 9.61552 11.8855 9.58252 11.8855C9.54953 11.8855 9.51687 11.879 9.48641 11.8663C9.45596 11.8536 9.42832 11.835 9.4051 11.8116L9.40338 11.8107Z"/>
</mask>
<path d="M9.40338 11.8107L8.69485 12.5164L8.81022 12.6323L8.95647 12.7053L9.40338 11.8107ZM9.1951 11.6016L8.48572 12.3064L8.48656 12.3073L9.1951 11.6016ZM8.76652 11.7786H9.76652L9.76652 11.7774L8.76652 11.7786ZM8.76652 14.7664H7.76652L7.76653 14.7681L8.76652 14.7664ZM9.0181 15.0167V14.0166L9.01468 14.0167L9.0181 15.0167ZM12.0065 15.0167L12.0144 14.0167H12.0065V15.0167ZM12.1831 14.5881L11.474 15.2933L11.4791 15.2984L11.4843 15.3034L12.1831 14.5881ZM12.1102 14.4113H11.1102H12.1102ZM12.1831 14.2346L11.4751 13.5284L11.474 13.5294L12.1831 14.2346ZM15.3622 11.0471L14.6552 10.3399L14.6542 10.3409L15.3622 11.0471ZM15.4356 10.8701H16.4356H15.4356ZM15.3622 10.6931L16.0692 9.98589L16.0677 9.98441L15.3622 10.6931ZM15.0725 10.4047L15.778 9.69599L15.7743 9.69233L15.0725 10.4047ZM15.2495 9.97616L15.2442 10.9762H15.2495V9.97616ZM18.2367 9.97616V10.9762H18.2367L18.2367 9.97616ZM18.4878 10.2264H19.4878L19.4878 10.223L18.4878 10.2264ZM18.4878 13.2142L19.4878 13.2172V13.2142H18.4878ZM18.0592 13.3912L18.7657 12.6834L18.7648 12.6826L18.0592 13.3912ZM17.8574 13.1902L17.1346 13.8813L17.1431 13.8902L17.1518 13.8989L17.8574 13.1902ZM17.5042 13.1902L18.2113 13.8973L18.2193 13.8894L18.227 13.8813L17.5042 13.1902ZM12.1471 18.547L12.8491 19.2592L12.8542 19.2541L12.1471 18.547ZM11.7927 18.547L11.0856 19.2541L11.0907 19.2591L11.7927 18.547ZM5.23552 11.9903L5.94261 11.2832L5.93958 11.2802L5.23552 11.9903ZM5.16159 11.8129H4.16159H5.16159ZM5.23552 11.6355L5.93958 12.3456L5.94246 12.3427L5.23552 11.6355ZM14.314 2.56154L15.0209 3.26885L15.0261 3.26361L14.314 2.56154ZM14.314 2.20714L15.0261 1.50506L15.0206 1.49958L14.314 2.20714ZM12.1771 0.0730073L12.8838 -0.634554L12.8815 -0.636792L12.1771 0.0730073ZM11.9999 0V1V0ZM11.8227 0.0730073L11.1183 -0.636797L11.1155 -0.634086L11.8227 0.0730073ZM0.0725242 11.8236L-0.634601 11.1165L-0.637225 11.1191L0.0725242 11.8236ZM-0.000488281 12.0008H-1.00049H-0.000488281ZM0.0725242 12.178L-0.63723 12.8825L-0.634557 12.8851L0.0725242 12.178ZM11.8227 23.9273L11.1156 24.6344L11.1183 24.6371L11.8227 23.9273ZM12.1771 23.9273L12.8815 24.6371L12.8842 24.6344L12.1771 23.9273ZM23.9268 12.178L24.6339 12.8851L24.6359 12.8832L23.9268 12.178ZM23.9268 11.8245L24.6359 11.1193L24.6339 11.1173L23.9268 11.8245ZM17.014 4.91209L17.721 4.20495L17.7187 4.20264L17.014 4.91209ZM16.837 4.83912V5.83912V4.83912ZM16.66 4.91209L15.9552 4.20263L15.9529 4.20496L16.66 4.91209ZM9.75995 11.8116L9.05287 11.1045L9.04986 11.1075L9.75995 11.8116ZM9.4051 11.8116L10.1152 11.1075L9.99928 10.9906L9.85201 10.917L9.4051 11.8116ZM10.1119 11.1051L9.90363 10.8959L8.48656 12.3073L8.69485 12.5164L10.1119 11.1051ZM9.90447 10.8968C9.72979 10.721 9.50681 10.601 9.26386 10.5522L8.8695 12.5129C8.72395 12.4836 8.59037 12.4118 8.48572 12.3064L9.90447 10.8968ZM9.26386 10.5522C9.02089 10.5033 8.76889 10.5277 8.53983 10.6223L9.30324 12.4709C9.16601 12.5275 9.01505 12.5422 8.8695 12.5129L9.26386 10.5522ZM8.53983 10.6223C8.31077 10.7169 8.11497 10.8774 7.97728 11.0835L9.64026 12.1946C9.55777 12.318 9.44046 12.4142 9.30324 12.4709L8.53983 10.6223ZM7.97728 11.0835C7.83959 11.2896 7.76623 11.5319 7.76652 11.7798L9.76652 11.7774C9.7667 11.9259 9.72275 12.0711 9.64026 12.1946L7.97728 11.0835ZM7.76652 11.7786V14.7664H9.76652V11.7786H7.76652ZM7.76653 14.7681C7.76681 14.9325 7.79951 15.0953 7.86276 15.2471L9.70887 14.4777C9.74676 14.5686 9.76635 14.6662 9.76652 14.7647L7.76653 14.7681ZM7.86276 15.2471C7.92601 15.3988 8.01857 15.5367 8.13514 15.6526L9.54568 14.2347C9.61552 14.3042 9.67097 14.3868 9.70887 14.4777L7.86276 15.2471ZM8.13514 15.6526C8.25171 15.7686 8.38999 15.8604 8.54209 15.9229L9.30188 14.0728C9.393 14.1103 9.47585 14.1653 9.54568 14.2347L8.13514 15.6526ZM8.54209 15.9229C8.69418 15.9853 8.8571 16.0172 9.02151 16.0166L9.01468 14.0167C9.11317 14.0163 9.21077 14.0354 9.30188 14.0728L8.54209 15.9229ZM9.0181 16.0167H12.0065V14.0167H9.0181V16.0167ZM11.9987 16.0166C12.2479 16.0186 12.4921 15.946 12.6997 15.8081L11.5936 14.1418C11.7183 14.0591 11.8648 14.0155 12.0144 14.0167L11.9987 16.0166ZM12.6997 15.8081C12.9074 15.6703 13.0691 15.4734 13.1641 15.243L11.3149 14.481C11.3719 14.3427 11.469 14.2246 11.5936 14.1418L12.6997 15.8081ZM13.1641 15.243C13.2591 15.0125 13.2829 14.7588 13.2326 14.5147L11.2738 14.9182C11.2436 14.7716 11.2579 14.6194 11.3149 14.481L13.1641 15.243ZM13.2326 14.5147C13.1824 14.2705 13.0602 14.047 12.8819 13.8728L11.4843 15.3034C11.3773 15.1989 11.304 15.0647 11.2738 14.9182L13.2326 14.5147ZM12.8921 13.883C13.0318 14.0234 13.1102 14.2133 13.1102 14.4113H11.1102C11.1102 14.7419 11.241 15.0589 11.474 15.2933L12.8921 13.883ZM13.1102 14.4113C13.1102 14.6094 13.0318 14.7993 12.8921 14.9397L11.474 13.5294C11.241 13.7638 11.1102 14.0808 11.1102 14.4113H13.1102ZM12.8911 14.9407L16.0703 11.7533L14.6542 10.3409L11.4751 13.5284L12.8911 14.9407ZM16.0692 11.7543C16.1854 11.6382 16.2775 11.5004 16.3404 11.3486L14.4927 10.5831C14.5304 10.4921 14.5856 10.4095 14.6552 10.3399L16.0692 11.7543ZM16.3404 11.3486C16.4032 11.1969 16.4356 11.0343 16.4356 10.8701H14.4356C14.4356 10.7716 14.455 10.6741 14.4927 10.5831L16.3404 11.3486ZM16.4356 10.8701C16.4356 10.7059 16.4032 10.5433 16.3404 10.3915L14.4927 11.1571C14.455 11.0661 14.4356 10.9686 14.4356 10.8701H16.4356ZM16.3404 10.3915C16.2775 10.2398 16.1854 10.102 16.0692 9.98589L14.6552 11.4003C14.5856 11.3307 14.5304 11.2481 14.4927 11.1571L16.3404 10.3915ZM16.0677 9.98441L15.778 9.696L14.367 11.1134L14.6567 11.4018L16.0677 9.98441ZM15.7743 9.69233C15.8805 9.79696 15.9531 9.93089 15.9829 10.077L14.023 10.4755C14.0725 10.7192 14.1936 10.9426 14.3707 11.1171L15.7743 9.69233ZM15.9829 10.077C16.0126 10.2232 15.998 10.3748 15.9411 10.5126L14.0926 9.74914C13.9977 9.97895 13.9734 10.2319 14.023 10.4755L15.9829 10.077ZM15.9411 10.5126C15.8842 10.6504 15.7875 10.7682 15.6633 10.8507L14.5558 9.18534C14.3488 9.32303 14.1875 9.51932 14.0926 9.74914L15.9411 10.5126ZM15.6633 10.8507C15.5392 10.9333 15.3933 10.9769 15.2442 10.9761L15.2549 8.97617C15.0062 8.97484 14.7629 9.04767 14.5558 9.18534L15.6633 10.8507ZM15.2495 10.9762H18.2367V8.97616H15.2495V10.9762ZM18.2367 10.9762C18.0385 10.9762 17.8484 10.8976 17.7081 10.7577L19.1198 9.34107C18.8853 9.10737 18.5677 8.97616 18.2367 8.97616L18.2367 10.9762ZM17.7081 10.7577C17.5677 10.6179 17.4885 10.428 17.4878 10.2298L19.4878 10.223C19.4867 9.89191 19.3543 9.57477 19.1198 9.34107L17.7081 10.7577ZM17.4878 10.2264V13.2142H19.4878V10.2264H17.4878ZM17.4878 13.2113C17.4883 13.0634 17.5325 12.9189 17.6149 12.7962L19.2755 13.9107C19.4132 13.7055 19.4871 13.4642 19.4878 13.2172L17.4878 13.2113ZM17.6149 12.7962C17.6973 12.6734 17.8142 12.5777 17.9508 12.5213L18.7142 14.3699C18.9426 14.2756 19.1379 14.1158 19.2755 13.9107L17.6149 12.7962ZM17.9508 12.5213C18.0875 12.4649 18.2378 12.4501 18.3828 12.479L17.9925 14.4405C18.2348 14.4887 18.4859 14.4642 18.7142 14.3699L17.9508 12.5213ZM18.3828 12.479C18.5278 12.5079 18.661 12.579 18.7657 12.6835L17.3528 14.0989C17.5276 14.2735 17.7502 14.3923 17.9925 14.4405L18.3828 12.479ZM18.7648 12.6826L18.563 12.4816L17.1518 13.8989L17.3537 14.0998L18.7648 12.6826ZM18.5802 12.4991C18.464 12.3776 18.3244 12.2809 18.1698 12.2149L17.3838 14.0539C17.2899 14.0138 17.2052 13.9551 17.1346 13.8813L18.5802 12.4991ZM18.1698 12.2149C18.0153 12.1488 17.8489 12.1147 17.6808 12.1147V14.1147C17.5787 14.1147 17.4777 14.0941 17.3838 14.0539L18.1698 12.2149ZM17.6808 12.1147C17.5127 12.1147 17.3464 12.1488 17.1918 12.2149L17.9778 14.0539C17.8839 14.0941 17.7829 14.1147 17.6808 14.1147V12.1147ZM17.1918 12.2149C17.0372 12.2809 16.8976 12.3776 16.7815 12.4991L18.227 13.8813C18.1565 13.9551 18.0717 14.0138 17.9778 14.0539L17.1918 12.2149ZM16.7972 12.4831L11.44 17.8398L12.8542 19.2541L18.2113 13.8973L16.7972 12.4831ZM11.4451 17.8348C11.585 17.6969 11.7735 17.6196 11.9699 17.6196V19.6196C12.2989 19.6196 12.6148 19.4901 12.8491 19.2591L11.4451 17.8348ZM11.9699 17.6196C12.1663 17.6196 12.3548 17.6969 12.4947 17.8348L11.0907 19.2591C11.325 19.4901 11.6408 19.6196 11.9699 19.6196V17.6196ZM12.4997 17.8398L5.94261 11.2832L4.52844 12.6974L11.0856 19.2541L12.4997 17.8398ZM5.93958 11.2802C6.00992 11.3499 6.06576 11.4329 6.10386 11.5243L4.25776 12.2937C4.32125 12.446 4.41427 12.5843 4.53147 12.7004L5.93958 11.2802ZM6.10386 11.5243C6.14197 11.6157 6.16159 11.7138 6.16159 11.8129H4.16159C4.16159 11.9779 4.19427 12.1413 4.25776 12.2937L6.10386 11.5243ZM6.16159 11.8129C6.16159 11.912 6.14196 12.01 6.10386 12.1015L4.25776 11.3321C4.19428 11.4844 4.16159 11.6478 4.16159 11.8129H6.16159ZM6.10386 12.1015C6.06576 12.1929 6.00992 12.2759 5.93958 12.3456L4.53147 10.9253C4.41427 11.0415 4.32125 11.1798 4.25776 11.3321L6.10386 12.1015ZM5.94246 12.3427L15.0209 3.26883L13.607 1.85426L4.52859 10.9282L5.94246 12.3427ZM15.0261 3.26361C15.2571 3.02927 15.3866 2.71343 15.3866 2.38434H13.3866C13.3866 2.1879 13.4639 1.99936 13.6018 1.85948L15.0261 3.26361ZM15.3866 2.38434C15.3866 2.05526 15.2571 1.73941 15.0261 1.50508L13.6018 2.9092C13.4639 2.76933 13.3866 2.58079 13.3866 2.38434H15.3866ZM15.0206 1.49958L12.8838 -0.63455L11.4704 0.780565L13.6073 2.9147L15.0206 1.49958ZM12.8815 -0.636792C12.6471 -0.869454 12.3302 -1 11.9999 -1V1C11.8024 1 11.6129 0.921939 11.4727 0.782807L12.8815 -0.636792ZM11.9999 -1C11.6696 -1 11.3527 -0.869454 11.1183 -0.636792L12.5271 0.782807C12.3869 0.921939 12.1974 1 11.9999 1V-1ZM11.1155 -0.634086L-0.634596 11.1165L0.779644 12.5307L12.5298 0.780101L11.1155 -0.634086ZM-0.637225 11.1191C-0.869906 11.3536 -1.00049 11.6705 -1.00049 12.0008H0.999512C0.999512 12.1983 0.921418 12.3879 0.782273 12.5281L-0.637225 11.1191ZM-1.00049 12.0008C-1.00049 12.3311 -0.869906 12.648 -0.637225 12.8825L0.782273 11.4735C0.921418 11.6137 0.999512 11.8033 0.999512 12.0008H-1.00049ZM-0.634557 12.8851L11.1156 24.6344L12.5297 23.2202L0.779606 11.4709L-0.634557 12.8851ZM11.1183 24.6371C11.3527 24.8698 11.6696 25.0003 11.9999 25.0003V23.0003C12.1974 23.0003 12.3869 23.0784 12.5271 23.2175L11.1183 24.6371ZM11.9999 25.0003C12.3301 25.0003 12.6471 24.8698 12.8815 24.6371L11.4727 23.2175C11.6129 23.0784 11.8024 23.0003 11.9999 23.0003V25.0003ZM12.8842 24.6344L24.6339 12.8851L23.2197 11.4709L11.47 23.2202L12.8842 24.6344ZM24.6359 12.8832C24.8689 12.6488 24.9997 12.3318 24.9997 12.0012H22.9997C22.9997 11.8032 23.0781 11.6132 23.2178 11.4728L24.6359 12.8832ZM24.9997 12.0012C24.9997 11.6707 24.8689 11.3536 24.6359 11.1193L23.2178 12.5296C23.0781 12.3892 22.9997 12.1993 22.9997 12.0012H24.9997ZM24.6339 11.1173L17.721 4.20496L16.3069 5.61922L23.2197 12.5316L24.6339 11.1173ZM17.7187 4.20264C17.4843 3.96979 17.1673 3.83912 16.837 3.83912V5.83912C16.6392 5.83912 16.4495 5.76091 16.3092 5.62154L17.7187 4.20264ZM16.837 3.83912C16.5066 3.83912 16.1896 3.96979 15.9552 4.20264L17.3647 5.62154C17.2244 5.76091 17.0347 5.83912 16.837 5.83912V3.83912ZM15.9529 4.20496L9.05287 11.1045L10.467 12.5187L17.367 5.61922L15.9529 4.20496ZM9.04986 11.1075C9.11961 11.0372 9.20259 10.9813 9.294 10.9432L10.0633 12.7894C10.2156 12.7259 10.3538 12.6329 10.47 12.5157L9.04986 11.1075ZM9.294 10.9432C9.38541 10.9051 9.48347 10.8855 9.58252 10.8855V12.8855C9.74756 12.8855 9.91095 12.8528 10.0633 12.7894L9.294 10.9432ZM9.58252 10.8855C9.68158 10.8855 9.77964 10.9051 9.87105 10.9432L9.10178 12.7894C9.2541 12.8528 9.41749 12.8855 9.58252 12.8855V10.8855ZM9.87105 10.9432C9.96247 10.9813 10.0454 11.0372 10.1152 11.1075L8.695 12.5157C8.8112 12.6329 8.94945 12.7259 9.10178 12.7894L9.87105 10.9432ZM9.85201 10.917L9.8503 10.9162L8.95647 12.7053L8.95818 12.7062L9.85201 10.917Z" fill="white" mask="url(#path-1-inside-1_123_13893)"/>
</g>
<defs>
<clipPath id="clip0_123_13893">
<rect width="24" height="24" fill="white"/>
</clipPath>
</defs>
</svg>
