<svg width="16" height="16" viewBox="0 0 16 16" fill="none" xmlns="http://www.w3.org/2000/svg">
<path d="M8.06683 11.883C8.24461 11.883 8.39461 11.8219 8.51683 11.6997C8.63905 11.5775 8.70016 11.4275 8.70016 11.2497C8.70016 11.0719 8.63905 10.9219 8.51683 10.7997C8.39461 10.6775 8.24461 10.6163 8.06683 10.6163C7.88905 10.6163 7.73905 10.6775 7.61683 10.7997C7.49461 10.9219 7.4335 11.0719 7.4335 11.2497C7.4335 11.4275 7.49461 11.5775 7.61683 11.6997C7.73905 11.8219 7.88905 11.883 8.06683 11.883ZM7.4835 9.44967H8.46683C8.46683 9.16079 8.50294 8.8969 8.57516 8.65801C8.64739 8.41912 8.87239 8.14412 9.25016 7.83301C9.59461 7.54412 9.83905 7.26079 9.9835 6.98301C10.1279 6.70523 10.2002 6.39967 10.2002 6.06634C10.2002 5.47745 10.0085 5.00523 9.62516 4.64967C9.24183 4.29412 8.7335 4.11634 8.10016 4.11634C7.55572 4.11634 7.07516 4.25245 6.6585 4.52467C6.24183 4.7969 5.93905 5.1719 5.75016 5.64967L6.6335 5.98301C6.75572 5.6719 6.93905 5.43023 7.1835 5.25801C7.42794 5.08579 7.71683 4.99967 8.05016 4.99967C8.42794 4.99967 8.7335 5.10245 8.96683 5.30801C9.20016 5.51356 9.31683 5.77745 9.31683 6.09967C9.31683 6.34412 9.24461 6.57467 9.10016 6.79134C8.95572 7.00801 8.74461 7.23301 8.46683 7.46634C8.1335 7.75523 7.88627 8.04134 7.72516 8.32467C7.56405 8.60801 7.4835 8.98301 7.4835 9.44967ZM8.00016 14.6663C7.08905 14.6663 6.22794 14.4913 5.41683 14.1413C4.60572 13.7913 3.89739 13.3136 3.29183 12.708C2.68627 12.1025 2.2085 11.3941 1.8585 10.583C1.5085 9.7719 1.3335 8.91079 1.3335 7.99967C1.3335 7.07745 1.5085 6.21079 1.8585 5.39967C2.2085 4.58856 2.68627 3.88301 3.29183 3.28301C3.89739 2.68301 4.60572 2.20801 5.41683 1.85801C6.22794 1.50801 7.08905 1.33301 8.00016 1.33301C8.92239 1.33301 9.78905 1.50801 10.6002 1.85801C11.4113 2.20801 12.1168 2.68301 12.7168 3.28301C13.3168 3.88301 13.7918 4.58856 14.1418 5.39967C14.4918 6.21079 14.6668 7.07745 14.6668 7.99967C14.6668 8.91079 14.4918 9.7719 14.1418 10.583C13.7918 11.3941 13.3168 12.1025 12.7168 12.708C12.1168 13.3136 11.4113 13.7913 10.6002 14.1413C9.78905 14.4913 8.92239 14.6663 8.00016 14.6663ZM8.00016 13.6663C9.57794 13.6663 10.9168 13.1136 12.0168 12.008C13.1168 10.9025 13.6668 9.56634 13.6668 7.99967C13.6668 6.4219 13.1168 5.08301 12.0168 3.98301C10.9168 2.88301 9.57794 2.33301 8.00016 2.33301C6.4335 2.33301 5.09739 2.88301 3.99183 3.98301C2.88627 5.08301 2.3335 6.4219 2.3335 7.99967C2.3335 9.56634 2.88627 10.9025 3.99183 12.008C5.09739 13.1136 6.4335 13.6663 8.00016 13.6663Z" fill="#858585"/>
</svg>
