<svg width="28" height="14" viewBox="0 0 28 14" fill="none" xmlns="http://www.w3.org/2000/svg">
<path d="M27.1251 7C27.1251 8.21141 26.7659 9.39562 26.0928 10.4029C25.4198 11.4101 24.4632 12.1952 23.344 12.6588C22.2248 13.1224 20.9933 13.2436 19.8052 13.0073C18.617 12.771 17.5257 12.1876 16.6691 11.331C16.6566 11.3185 16.6445 11.3056 16.6328 11.2924L10.0757 3.88853C9.4618 3.28175 8.68218 2.8701 7.8349 2.7054C6.98763 2.54069 6.11057 2.63028 5.3141 2.9629C4.51763 3.29552 3.83734 3.85629 3.35885 4.57466C2.88036 5.29302 2.62505 6.13687 2.62505 7C2.62505 7.86314 2.88036 8.70699 3.35885 9.42535C3.83734 10.1437 4.51763 10.7045 5.3141 11.0371C6.11057 11.3697 6.98763 11.4593 7.8349 11.2946C8.68218 11.1299 9.4618 10.7183 10.0757 10.1115L11.0074 9.05938C11.0836 8.9732 11.1759 8.90288 11.2793 8.85243C11.3826 8.80198 11.4949 8.77239 11.6097 8.76536C11.7245 8.75833 11.8395 8.774 11.9482 8.81147C12.0569 8.84893 12.1572 8.90746 12.2433 8.9837C12.3294 9.05995 12.3996 9.15242 12.4499 9.25582C12.5002 9.35922 12.5297 9.47153 12.5366 9.58632C12.5435 9.70111 12.5277 9.81613 12.4901 9.92481C12.4525 10.0335 12.3938 10.1337 12.3175 10.2197L11.3674 11.2924C11.3557 11.3056 11.3436 11.3185 11.3311 11.331C10.4745 12.1876 9.3831 12.771 8.19496 13.0073C7.00683 13.2436 5.77529 13.1224 4.65609 12.6588C3.53688 12.1952 2.58028 11.4101 1.90726 10.4029C1.23423 9.39563 0.875 8.21142 0.875 7C0.875 5.78859 1.23423 4.60438 1.90726 3.59712C2.58028 2.58987 3.53688 1.80482 4.65609 1.34123C5.77529 0.877647 7.00683 0.756358 8.19496 0.9927C9.3831 1.22904 10.4745 1.8124 11.3311 2.66901C11.3436 2.68151 11.3557 2.69436 11.3674 2.70757L17.9245 10.1115C18.5383 10.7183 19.318 11.1299 20.1652 11.2946C21.0125 11.4593 21.8896 11.3697 22.686 11.0371C23.4825 10.7045 24.1628 10.1437 24.6413 9.42535C25.1198 8.70699 25.3751 7.86314 25.3751 7C25.3751 6.13687 25.1198 5.29302 24.6413 4.57466C24.1628 3.85629 23.4825 3.29552 22.686 2.9629C21.8896 2.63028 21.0125 2.54069 20.1652 2.7054C19.318 2.8701 18.5383 3.28175 17.9245 3.88853L16.9927 4.94062C16.8387 5.11394 16.6223 5.21906 16.3909 5.23291C16.1594 5.24677 15.932 5.16821 15.7584 5.0145C15.5849 4.86079 15.4794 4.64449 15.4652 4.41309C15.451 4.18169 15.5292 3.95412 15.6827 3.78033L16.6328 2.70757C16.6445 2.69438 16.6566 2.68153 16.6691 2.66901C17.5257 1.81243 18.617 1.22909 19.8052 0.992758C20.9933 0.756428 22.2248 0.877724 23.344 1.3413C24.4632 1.80489 25.4198 2.58993 26.0928 3.59717C26.7658 4.60441 27.1251 5.7886 27.1251 7Z" fill="white"/>
</svg>
