<svg width="22" height="24" viewBox="0 0 22 24" fill="none" xmlns="http://www.w3.org/2000/svg">
<path d="M0.526855 19.9381V4.07134C0.529863 3.21849 1.21987 2.52856 2.06881 2.52856C2.91938 2.52856 3.61076 3.21994 3.61076 4.07052V8.95297V10.1509L4.46239 9.30843L12.7204 1.1393L12.7215 1.13816C12.7695 1.09034 12.8197 1.04651 12.8716 1.00659L12.8996 0.985067L12.9243 0.959826L12.931 0.95298C12.9312 0.952778 12.9314 0.952576 12.9317 0.952374C13.5305 0.351606 14.5069 0.348253 15.1123 0.948083C15.1124 0.948173 15.1125 0.948262 15.1126 0.948352L21.047 6.85503C21.047 6.85505 21.047 6.85507 21.047 6.85509C21.6484 7.45394 21.6519 8.43103 21.0516 9.03655C20.454 9.63937 19.4777 9.64168 18.8712 9.04074C18.8711 9.04063 18.871 9.04052 18.8708 9.04041L14.3563 4.54697L14.0046 4.19692L13.6519 4.54595L6.47973 11.6432L6.12051 11.9986L6.47978 12.354L13.6658 19.4628L14.0185 19.8117L14.3702 19.4617L18.8716 14.9813L18.8716 14.9813C19.4724 14.3831 20.4491 14.3841 21.0524 14.9868C21.6519 15.5923 21.6482 16.5688 21.047 17.1674C21.047 17.1674 21.047 17.1674 21.047 17.1674L15.1126 23.0741C15.1125 23.0741 15.1125 23.0742 15.1124 23.0742C14.507 23.6743 13.5303 23.6709 12.9315 23.0699C12.9055 23.0436 12.8807 23.0168 12.857 22.9893L12.8327 22.9611L12.8045 22.9368C12.7762 22.9125 12.7485 22.8868 12.7215 22.8599L12.7203 22.8588L4.46239 14.6896L3.61076 13.8472V15.0451V19.9381C3.61076 20.7887 2.91938 21.4801 2.06881 21.4801C1.21824 21.4801 0.526855 20.7887 0.526855 19.9381ZM15.5955 12.0128C15.5955 12.874 14.8974 13.5721 14.0362 13.5721C13.175 13.5721 12.4769 12.874 12.4769 12.0128C12.4769 11.1517 13.175 10.4535 14.0362 10.4535C14.8974 10.4535 15.5955 11.1517 15.5955 12.0128Z" stroke="white"/>
</svg>
