<svg width="16" height="16" viewBox="0 0 16 16" fill="none" xmlns="http://www.w3.org/2000/svg">
<path d="M3.6665 14.667C3.38873 14.667 3.15261 14.5698 2.95817 14.3753C2.76373 14.1809 2.6665 13.9448 2.6665 13.667V6.43366C2.6665 6.15588 2.76373 5.91977 2.95817 5.72533C3.15261 5.53088 3.38873 5.43366 3.6665 5.43366H4.83317V3.83366C4.83317 2.95588 5.1415 2.20866 5.75817 1.59199C6.37484 0.975326 7.12206 0.666992 7.99984 0.666992C8.87761 0.666992 9.62484 0.975326 10.2415 1.59199C10.8582 2.20866 11.1665 2.95588 11.1665 3.83366V5.43366H12.3332C12.6109 5.43366 12.8471 5.53088 13.0415 5.72533C13.2359 5.91977 13.3332 6.15588 13.3332 6.43366V13.667C13.3332 13.9448 13.2359 14.1809 13.0415 14.3753C12.8471 14.5698 12.6109 14.667 12.3332 14.667H3.6665ZM3.6665 13.667H12.3332V6.43366H3.6665V13.667ZM7.99984 11.3337C8.35539 11.3337 8.65817 11.2114 8.90817 10.967C9.15817 10.7225 9.28317 10.4281 9.28317 10.0837C9.28317 9.75033 9.15817 9.44755 8.90817 9.17533C8.65817 8.9031 8.35539 8.76699 7.99984 8.76699C7.64428 8.76699 7.3415 8.9031 7.0915 9.17533C6.8415 9.44755 6.7165 9.75033 6.7165 10.0837C6.7165 10.4281 6.8415 10.7225 7.0915 10.967C7.3415 11.2114 7.64428 11.3337 7.99984 11.3337ZM5.83317 5.43366H10.1665V3.83366C10.1665 3.23366 9.95539 2.72255 9.53317 2.30033C9.11095 1.8781 8.59984 1.66699 7.99984 1.66699C7.39984 1.66699 6.88873 1.8781 6.4665 2.30033C6.04428 2.72255 5.83317 3.23366 5.83317 3.83366V5.43366ZM3.6665 13.667V6.43366V13.667Z" fill="#858585"/>
</svg>
