<svg width="32" height="32" viewBox="0 0 32 32" fill="none" xmlns="http://www.w3.org/2000/svg">
<g clip-path="url(#clip0_122_13230)">
<path d="M31.9999 15.9779L31.9834 15.2929V2.34387L28.4034 5.92387C25.4739 2.33737 21.0164 0.046875 16.0249 0.046875C10.8249 0.046875 6.2139 2.52687 3.2959 6.36687L9.1639 12.2969C9.73848 11.2354 10.5523 10.3223 11.5409 9.62988C12.5659 8.82987 14.0169 8.17688 16.0249 8.17688C16.2674 8.17688 16.4549 8.20537 16.5924 8.25838C19.0804 8.45487 21.2364 9.82837 22.5064 11.8204L18.3529 15.9739L31.9999 15.9769" fill="#1C3AA9"/>
<path d="M15.931 0.046875L15.246 0.063375H2.297L5.877 3.64338C2.29 6.57338 0 11.0299 0 16.0229C0 21.2229 2.48 25.8339 6.32 28.7519L12.25 22.8839C11.1885 22.3093 10.2754 21.4955 9.583 20.5069C8.783 19.4819 8.13 18.0309 8.13 16.0229C8.13 15.7804 8.1585 15.5929 8.2115 15.4554C8.408 12.9674 9.7815 10.8114 11.7735 9.54138L15.927 13.6949L15.93 0.047375" fill="#4285F4"/>
<path d="M0.000488281 16.0225L0.0169883 16.7075V29.6565L3.59699 26.0765C6.52699 29.663 10.984 31.9535 15.977 31.9535C21.177 31.9535 25.788 29.4735 28.706 25.6335L22.838 19.7035C22.2634 20.7649 21.4496 21.678 20.461 22.3705C19.436 23.1705 17.985 23.8235 15.977 23.8235C15.7345 23.8235 15.547 23.795 15.4095 23.742C12.9215 23.5455 10.7655 22.172 9.49549 20.18L13.649 16.0265C8.38799 16.0465 2.44899 16.0595 0.00148828 16.024" fill="#ABABAB"/>
</g>
<defs>
<clipPath id="clip0_122_13230">
<rect width="32" height="32" fill="white"/>
</clipPath>
</defs>
</svg>
