<svg width="34" height="34" viewBox="0 0 34 34" fill="none" xmlns="http://www.w3.org/2000/svg">
<circle cx="17" cy="17" r="16" stroke="white" stroke-width="0.5"/>
<path d="M17 23.6669C17.8333 23.6669 18.6139 23.5114 19.3417 23.2003C20.0694 22.8891 20.7056 22.4614 21.25 21.9169C21.7944 21.3725 22.2222 20.7364 22.5333 20.0086C22.8444 19.2808 23 18.5003 23 17.6669H22C22 19.0558 21.5139 20.2364 20.5417 21.2086C19.5694 22.1808 18.3889 22.6669 17 22.6669C15.6111 22.6669 14.4306 22.1808 13.4583 21.2086C12.4861 20.2364 12 19.0558 12 17.6669C12 16.278 12.4722 15.0975 13.4167 14.1253C14.3611 13.153 15.5278 12.6669 16.9167 12.6669H17.3L16.0833 13.8836L16.7667 14.5836L19.2167 12.1336L16.7667 9.68359L16.0833 10.3669L17.3833 11.6669H17C16.1667 11.6669 15.3861 11.8225 14.6583 12.1336C13.9306 12.4447 13.2944 12.8725 12.75 13.4169C12.2056 13.9614 11.7778 14.5975 11.4667 15.3253C11.1556 16.053 11 16.8336 11 17.6669C11 18.5003 11.1556 19.2808 11.4667 20.0086C11.7778 20.7364 12.2056 21.3725 12.75 21.9169C13.2944 22.4614 13.9306 22.8891 14.6583 23.2003C15.3861 23.5114 16.1667 23.6669 17 23.6669Z" fill="white"/>
</svg>
