<svg width="22" height="24" viewBox="0 0 22 24" fill="none" xmlns="http://www.w3.org/2000/svg">
<path d="M11 0.333008C14.7781 0.333008 17.8572 3.32618 17.9952 7.07058L18 7.33301H19.1667C20.3968 7.33301 21.4045 8.28486 21.4936 9.4922L21.5 9.66634V21.333C21.5 22.5631 20.5482 23.5709 19.3408 23.6599L19.1667 23.6663H2.83333C1.60324 23.6663 0.595474 22.7145 0.5064 21.5072L0.5 21.333V9.66634C0.5 8.43625 1.45186 7.42848 2.65919 7.33941L2.83333 7.33301H4C4 3.46701 7.134 0.333008 11 0.333008ZM19.1667 9.66634H2.83333V21.333H19.1667V9.66634ZM11 11.9997C12.2887 11.9997 13.3333 13.0443 13.3333 14.333C13.3333 15.1303 12.9335 15.8341 12.3235 16.2549L12.1667 16.3541V17.833C12.1667 18.4774 11.6444 18.9997 11 18.9997C10.4017 18.9997 9.90857 18.5493 9.84118 17.9691L9.83333 17.833V16.3541C9.1359 15.9507 8.66667 15.1967 8.66667 14.333C8.66667 13.0443 9.7113 11.9997 11 11.9997ZM11 2.66634C8.42267 2.66634 6.33333 4.75568 6.33333 7.33301H15.6667C15.6667 4.75568 13.5773 2.66634 11 2.66634Z" fill="white"/>
</svg>
