<svg width="181" height="26" viewBox="0 0 181 26" fill="none" xmlns="http://www.w3.org/2000/svg">
<mask id="path-1-outside-1_122_12226" maskUnits="userSpaceOnUse" x="0" y="0" width="181" height="26" fill="black">
<rect fill="white" width="181" height="26"/>
<path d="M3 23.7486L7.37284 2.29333H14.5237L11.1283 19.0552H21.7775L20.8 23.7486H3Z"/>
<path d="M19.0509 23.7486L23.4237 2.29333H42.407L41.4296 6.98667H29.5972L28.8769 10.6743H39.7319L38.7544 15.3676H27.8995L27.1792 19.0552H38.9602L37.9827 23.7486H19.0509Z"/>
<path d="M39.4232 6.98667L40.4007 2.29333H63.2938L62.3163 6.98667H54.3938L50.9984 23.7486H43.9504L47.3458 6.98667H39.4232Z"/>
<path d="M74.0973 8.9981C74.1744 8.30667 73.9687 7.7654 73.4799 7.37429C72.9912 6.97619 72.1681 6.77714 71.0106 6.77714C70.2732 6.77714 69.6558 6.84698 69.1585 6.98667C68.6698 7.12635 68.2883 7.31841 68.0139 7.56286C67.7481 7.8073 67.5809 8.09016 67.5123 8.41143C67.4351 8.66286 67.4394 8.89333 67.5252 9.10286C67.6195 9.3054 67.7952 9.49048 68.0525 9.6581C68.3183 9.82572 68.6655 9.97587 69.0942 10.1086C69.5315 10.2413 70.0503 10.36 70.6505 10.4648L72.7083 10.8419C74.1144 11.0933 75.2934 11.4251 76.2451 11.8371C77.2054 12.2422 77.96 12.7241 78.5087 13.2829C79.0575 13.8416 79.4176 14.4667 79.5891 15.1581C79.7691 15.8495 79.7734 16.6038 79.6019 17.421C79.3104 18.8317 78.6373 20.026 77.5827 21.0038C76.5281 21.9816 75.1519 22.7254 73.4542 23.2352C71.7565 23.7451 69.793 24 67.5637 24C65.283 24 63.3452 23.7241 61.7504 23.1724C60.1642 22.6137 59.0153 21.7616 58.3036 20.6162C57.6005 19.4638 57.429 17.9937 57.7891 16.2057H64.5799C64.477 16.8622 64.5628 17.414 64.8371 17.861C65.1115 18.3079 65.5531 18.6467 66.1619 18.8771C66.7706 19.1076 67.5294 19.2229 68.4383 19.2229C69.21 19.2229 69.8702 19.146 70.4189 18.9924C70.9677 18.8387 71.4007 18.6257 71.7179 18.3533C72.0352 18.081 72.2281 17.7702 72.2967 17.421C72.3653 17.0997 72.2967 16.8133 72.0909 16.5619C71.8851 16.3105 71.5122 16.0835 70.972 15.881C70.4318 15.6784 69.6901 15.4933 68.747 15.3257L66.2262 14.8648C63.9883 14.4457 62.2992 13.7543 61.1588 12.7905C60.0184 11.8267 59.6155 10.5067 59.9498 8.83048C60.2242 7.46159 60.9144 6.2673 62.0205 5.24762C63.1352 4.22095 64.5499 3.42476 66.2647 2.85905C67.9882 2.28635 69.8959 2 71.988 2C74.1144 2 75.8936 2.28984 77.3255 2.86952C78.7659 3.44921 79.7991 4.26286 80.425 5.31048C81.0595 6.3581 81.231 7.5873 80.9395 8.9981H74.0973Z"/>
<path d="M93.4407 8.9981C93.5178 8.30667 93.3121 7.7654 92.8233 7.37429C92.3346 6.97619 91.5115 6.77714 90.354 6.77714C89.6166 6.77714 88.9992 6.84698 88.5019 6.98667C88.0132 7.12635 87.6317 7.31841 87.3573 7.56286C87.0915 7.8073 86.9243 8.09016 86.8557 8.41143C86.7785 8.66286 86.7828 8.89333 86.8686 9.10286C86.9629 9.3054 87.1386 9.49048 87.3959 9.6581C87.6617 9.82572 88.0089 9.97587 88.4376 10.1086C88.8749 10.2413 89.3937 10.36 89.9939 10.4648L92.0517 10.8419C93.4578 11.0933 94.6368 11.4251 95.5885 11.8371C96.5488 12.2422 97.3034 12.7241 97.8521 13.2829C98.4009 13.8416 98.761 14.4667 98.9324 15.1581C99.1125 15.8495 99.1168 16.6038 98.9453 17.421C98.6538 18.8317 97.9807 20.026 96.9261 21.0038C95.8715 21.9816 94.4953 22.7254 92.7976 23.2352C91.0999 23.7451 89.1364 24 86.9071 24C84.6264 24 82.6886 23.7241 81.0938 23.1724C79.5076 22.6137 78.3587 21.7616 77.647 20.6162C76.9439 19.4638 76.7724 17.9937 77.1325 16.2057H83.9233C83.8204 16.8622 83.9062 17.414 84.1805 17.861C84.4549 18.3079 84.8965 18.6467 85.5053 18.8771C86.114 19.1076 86.8728 19.2229 87.7817 19.2229C88.5534 19.2229 89.2136 19.146 89.7623 18.9924C90.3111 18.8387 90.7441 18.6257 91.0613 18.3533C91.3786 18.081 91.5715 17.7702 91.6401 17.421C91.7087 17.0997 91.6401 16.8133 91.4343 16.5619C91.2285 16.3105 90.8556 16.0835 90.3154 15.881C89.7752 15.6784 89.0335 15.4933 88.0904 15.3257L85.5696 14.8648C83.3317 14.4457 81.6426 13.7543 80.5022 12.7905C79.3618 11.8267 78.9588 10.5067 79.2932 8.83048C79.5676 7.46159 80.2578 6.2673 81.3639 5.24762C82.4786 4.22095 83.8933 3.42476 85.6081 2.85905C87.3316 2.28635 89.2393 2 91.3314 2C93.4578 2 95.237 2.28984 96.6689 2.86952C98.1093 3.44921 99.1425 4.26286 99.7684 5.31048C100.403 6.3581 100.574 7.5873 100.283 8.9981H93.4407Z"/>
<path d="M102.289 23.7486L98.8939 2.29333H106.868L107.794 15.4933H108L114.945 2.29333H121.221L122.816 15.5352H123.022L129.298 2.29333H137.272L125.131 23.7486H118.289L116.282 11.7638H116.077L109.131 23.7486H102.289Z"/>
<path d="M137.426 23.7486H129.71L142.777 2.29333H152.551L156.873 23.7486H149.156L146.584 8.20191H146.378L137.426 23.7486ZM137.735 15.2838H152.243L151.317 19.6419H136.809L137.735 15.2838Z"/>
<path d="M154.866 23.7486L159.239 2.29333H170.608C172.563 2.29333 174.21 2.60762 175.547 3.23619C176.885 3.86476 177.845 4.74825 178.428 5.88667C179.011 7.02508 179.148 8.35556 178.84 9.8781C178.531 11.4286 177.845 12.766 176.782 13.8905C175.727 15.0079 174.381 15.8705 172.743 16.4781C171.114 17.0787 169.288 17.379 167.265 17.379H160.474L161.4 12.8533H166.75C167.608 12.8533 168.362 12.7346 169.014 12.4971C169.665 12.2527 170.193 11.9105 170.596 11.4705C170.999 11.0235 171.26 10.4927 171.38 9.8781C171.5 9.26349 171.444 8.73968 171.213 8.30667C170.99 7.86667 170.604 7.53143 170.055 7.30095C169.515 7.06349 168.825 6.94476 167.985 6.94476H165.464L162.017 23.7486H154.866Z"/>
</mask>
<path d="M3 23.7486L7.37284 2.29333H14.5237L11.1283 19.0552H21.7775L20.8 23.7486H3Z" stroke="url(#paint0_linear_122_12226)" stroke-width="4" mask="url(#path-1-outside-1_122_12226)"/>
<path d="M19.0509 23.7486L23.4237 2.29333H42.407L41.4296 6.98667H29.5972L28.8769 10.6743H39.7319L38.7544 15.3676H27.8995L27.1792 19.0552H38.9602L37.9827 23.7486H19.0509Z" stroke="url(#paint1_linear_122_12226)" stroke-width="4" mask="url(#path-1-outside-1_122_12226)"/>
<path d="M39.4232 6.98667L40.4007 2.29333H63.2938L62.3163 6.98667H54.3938L50.9984 23.7486H43.9504L47.3458 6.98667H39.4232Z" stroke="url(#paint2_linear_122_12226)" stroke-width="4" mask="url(#path-1-outside-1_122_12226)"/>
<path d="M74.0973 8.9981C74.1744 8.30667 73.9687 7.7654 73.4799 7.37429C72.9912 6.97619 72.1681 6.77714 71.0106 6.77714C70.2732 6.77714 69.6558 6.84698 69.1585 6.98667C68.6698 7.12635 68.2883 7.31841 68.0139 7.56286C67.7481 7.8073 67.5809 8.09016 67.5123 8.41143C67.4351 8.66286 67.4394 8.89333 67.5252 9.10286C67.6195 9.3054 67.7952 9.49048 68.0525 9.6581C68.3183 9.82572 68.6655 9.97587 69.0942 10.1086C69.5315 10.2413 70.0503 10.36 70.6505 10.4648L72.7083 10.8419C74.1144 11.0933 75.2934 11.4251 76.2451 11.8371C77.2054 12.2422 77.96 12.7241 78.5087 13.2829C79.0575 13.8416 79.4176 14.4667 79.5891 15.1581C79.7691 15.8495 79.7734 16.6038 79.6019 17.421C79.3104 18.8317 78.6373 20.026 77.5827 21.0038C76.5281 21.9816 75.1519 22.7254 73.4542 23.2352C71.7565 23.7451 69.793 24 67.5637 24C65.283 24 63.3452 23.7241 61.7504 23.1724C60.1642 22.6137 59.0153 21.7616 58.3036 20.6162C57.6005 19.4638 57.429 17.9937 57.7891 16.2057H64.5799C64.477 16.8622 64.5628 17.414 64.8371 17.861C65.1115 18.3079 65.5531 18.6467 66.1619 18.8771C66.7706 19.1076 67.5294 19.2229 68.4383 19.2229C69.21 19.2229 69.8702 19.146 70.4189 18.9924C70.9677 18.8387 71.4007 18.6257 71.7179 18.3533C72.0352 18.081 72.2281 17.7702 72.2967 17.421C72.3653 17.0997 72.2967 16.8133 72.0909 16.5619C71.8851 16.3105 71.5122 16.0835 70.972 15.881C70.4318 15.6784 69.6901 15.4933 68.747 15.3257L66.2262 14.8648C63.9883 14.4457 62.2992 13.7543 61.1588 12.7905C60.0184 11.8267 59.6155 10.5067 59.9498 8.83048C60.2242 7.46159 60.9144 6.2673 62.0205 5.24762C63.1352 4.22095 64.5499 3.42476 66.2647 2.85905C67.9882 2.28635 69.8959 2 71.988 2C74.1144 2 75.8936 2.28984 77.3255 2.86952C78.7659 3.44921 79.7991 4.26286 80.425 5.31048C81.0595 6.3581 81.231 7.5873 80.9395 8.9981H74.0973Z" stroke="url(#paint3_linear_122_12226)" stroke-width="4" mask="url(#path-1-outside-1_122_12226)"/>
<path d="M93.4407 8.9981C93.5178 8.30667 93.3121 7.7654 92.8233 7.37429C92.3346 6.97619 91.5115 6.77714 90.354 6.77714C89.6166 6.77714 88.9992 6.84698 88.5019 6.98667C88.0132 7.12635 87.6317 7.31841 87.3573 7.56286C87.0915 7.8073 86.9243 8.09016 86.8557 8.41143C86.7785 8.66286 86.7828 8.89333 86.8686 9.10286C86.9629 9.3054 87.1386 9.49048 87.3959 9.6581C87.6617 9.82572 88.0089 9.97587 88.4376 10.1086C88.8749 10.2413 89.3937 10.36 89.9939 10.4648L92.0517 10.8419C93.4578 11.0933 94.6368 11.4251 95.5885 11.8371C96.5488 12.2422 97.3034 12.7241 97.8521 13.2829C98.4009 13.8416 98.761 14.4667 98.9324 15.1581C99.1125 15.8495 99.1168 16.6038 98.9453 17.421C98.6538 18.8317 97.9807 20.026 96.9261 21.0038C95.8715 21.9816 94.4953 22.7254 92.7976 23.2352C91.0999 23.7451 89.1364 24 86.9071 24C84.6264 24 82.6886 23.7241 81.0938 23.1724C79.5076 22.6137 78.3587 21.7616 77.647 20.6162C76.9439 19.4638 76.7724 17.9937 77.1325 16.2057H83.9233C83.8204 16.8622 83.9062 17.414 84.1805 17.861C84.4549 18.3079 84.8965 18.6467 85.5053 18.8771C86.114 19.1076 86.8728 19.2229 87.7817 19.2229C88.5534 19.2229 89.2136 19.146 89.7623 18.9924C90.3111 18.8387 90.7441 18.6257 91.0613 18.3533C91.3786 18.081 91.5715 17.7702 91.6401 17.421C91.7087 17.0997 91.6401 16.8133 91.4343 16.5619C91.2285 16.3105 90.8556 16.0835 90.3154 15.881C89.7752 15.6784 89.0335 15.4933 88.0904 15.3257L85.5696 14.8648C83.3317 14.4457 81.6426 13.7543 80.5022 12.7905C79.3618 11.8267 78.9588 10.5067 79.2932 8.83048C79.5676 7.46159 80.2578 6.2673 81.3639 5.24762C82.4786 4.22095 83.8933 3.42476 85.6081 2.85905C87.3316 2.28635 89.2393 2 91.3314 2C93.4578 2 95.237 2.28984 96.6689 2.86952C98.1093 3.44921 99.1425 4.26286 99.7684 5.31048C100.403 6.3581 100.574 7.5873 100.283 8.9981H93.4407Z" stroke="url(#paint4_linear_122_12226)" stroke-width="4" mask="url(#path-1-outside-1_122_12226)"/>
<path d="M102.289 23.7486L98.8939 2.29333H106.868L107.794 15.4933H108L114.945 2.29333H121.221L122.816 15.5352H123.022L129.298 2.29333H137.272L125.131 23.7486H118.289L116.282 11.7638H116.077L109.131 23.7486H102.289Z" stroke="url(#paint5_linear_122_12226)" stroke-width="4" mask="url(#path-1-outside-1_122_12226)"/>
<path d="M137.426 23.7486H129.71L142.777 2.29333H152.551L156.873 23.7486H149.156L146.584 8.20191H146.378L137.426 23.7486ZM137.735 15.2838H152.243L151.317 19.6419H136.809L137.735 15.2838Z" stroke="url(#paint6_linear_122_12226)" stroke-width="4" mask="url(#path-1-outside-1_122_12226)"/>
<path d="M154.866 23.7486L159.239 2.29333H170.608C172.563 2.29333 174.21 2.60762 175.547 3.23619C176.885 3.86476 177.845 4.74825 178.428 5.88667C179.011 7.02508 179.148 8.35556 178.84 9.8781C178.531 11.4286 177.845 12.766 176.782 13.8905C175.727 15.0079 174.381 15.8705 172.743 16.4781C171.114 17.0787 169.288 17.379 167.265 17.379H160.474L161.4 12.8533H166.75C167.608 12.8533 168.362 12.7346 169.014 12.4971C169.665 12.2527 170.193 11.9105 170.596 11.4705C170.999 11.0235 171.26 10.4927 171.38 9.8781C171.5 9.26349 171.444 8.73968 171.213 8.30667C170.99 7.86667 170.604 7.53143 170.055 7.30095C169.515 7.06349 168.825 6.94476 167.985 6.94476H165.464L162.017 23.7486H154.866Z" stroke="url(#paint7_linear_122_12226)" stroke-width="4" mask="url(#path-1-outside-1_122_12226)"/>
<defs>
<linearGradient id="paint0_linear_122_12226" x1="2.94856" y1="14.1943" x2="66.3251" y2="99.9814" gradientUnits="userSpaceOnUse">
<stop stop-color="#04FFF0"/>
<stop offset="0.951042" stop-color="#E700FF"/>
</linearGradient>
<linearGradient id="paint1_linear_122_12226" x1="2.94856" y1="14.1943" x2="66.3251" y2="99.9814" gradientUnits="userSpaceOnUse">
<stop stop-color="#04FFF0"/>
<stop offset="0.951042" stop-color="#E700FF"/>
</linearGradient>
<linearGradient id="paint2_linear_122_12226" x1="2.94856" y1="14.1943" x2="66.3251" y2="99.9814" gradientUnits="userSpaceOnUse">
<stop stop-color="#04FFF0"/>
<stop offset="0.951042" stop-color="#E700FF"/>
</linearGradient>
<linearGradient id="paint3_linear_122_12226" x1="2.94856" y1="14.1943" x2="66.3251" y2="99.9814" gradientUnits="userSpaceOnUse">
<stop stop-color="#04FFF0"/>
<stop offset="0.951042" stop-color="#E700FF"/>
</linearGradient>
<linearGradient id="paint4_linear_122_12226" x1="2.94856" y1="14.1943" x2="66.3251" y2="99.9814" gradientUnits="userSpaceOnUse">
<stop stop-color="#04FFF0"/>
<stop offset="0.951042" stop-color="#E700FF"/>
</linearGradient>
<linearGradient id="paint5_linear_122_12226" x1="2.94856" y1="14.1943" x2="66.3251" y2="99.9814" gradientUnits="userSpaceOnUse">
<stop stop-color="#04FFF0"/>
<stop offset="0.951042" stop-color="#E700FF"/>
</linearGradient>
<linearGradient id="paint6_linear_122_12226" x1="2.94856" y1="14.1943" x2="66.3251" y2="99.9814" gradientUnits="userSpaceOnUse">
<stop stop-color="#04FFF0"/>
<stop offset="0.951042" stop-color="#E700FF"/>
</linearGradient>
<linearGradient id="paint7_linear_122_12226" x1="2.94856" y1="14.1943" x2="66.3251" y2="99.9814" gradientUnits="userSpaceOnUse">
<stop stop-color="#04FFF0"/>
<stop offset="0.951042" stop-color="#E700FF"/>
</linearGradient>
</defs>
</svg>
