<svg width="64" height="64" viewBox="0 0 64 64" fill="none" xmlns="http://www.w3.org/2000/svg">
<path d="M32 64C49.6731 64 64 49.6731 64 32C64 14.3269 49.6731 0 32 0C14.3269 0 0 14.3269 0 32C0 49.6731 14.3269 64 32 64Z" fill="#103F68"/>
<path d="M29.7575 24.9266C26.1661 24.9266 22.5748 24.9266 19 24.9266C18.0356 24.9266 17.0546 24.9266 16.0903 24.9266C15.4252 24.9266 14.943 24.5608 14.7933 23.9456C14.677 23.4801 14.81 23.0811 15.1425 22.7319C15.9406 21.9172 16.7387 21.1191 17.5534 20.3044C18.1852 19.6725 18.817 19.0407 19.4489 18.3923C19.7315 18.093 20.0807 17.96 20.4964 17.96C29.6412 17.96 38.786 17.96 47.9307 17.96C48.7621 17.96 49.3273 18.5419 49.2774 19.34C49.2608 19.6725 49.0945 19.9552 48.8618 20.188C48.1468 20.9196 47.4152 21.6345 46.7003 22.3661C46.002 23.0644 45.3036 23.7628 44.6219 24.4611C44.3226 24.777 43.9569 24.91 43.5246 24.91C38.919 24.9266 34.3465 24.9266 29.7575 24.9266Z" fill="white"/>
<path d="M34.1126 39.1758C38.7016 39.1758 43.274 39.1758 47.863 39.1758C48.5447 39.1758 49.0269 39.5084 49.2098 40.0903C49.3594 40.5891 49.2264 41.0214 48.8606 41.3872C48.1955 42.0523 47.5305 42.7174 46.8654 43.3824C46.1006 44.1473 45.3358 44.9121 44.5876 45.677C44.2883 45.9762 43.9391 46.1259 43.5068 46.1259C34.3787 46.1259 25.2505 46.1259 16.1057 46.1259C15.424 46.1259 14.9252 45.7601 14.7755 45.1283C14.6592 44.6627 14.7922 44.2637 15.1414 43.9145C16.0392 43 16.9537 42.1022 17.8515 41.1877C18.3337 40.7055 18.8325 40.2233 19.2981 39.7245C19.6639 39.3255 20.0962 39.1592 20.6282 39.1592C24.3028 39.1758 27.9773 39.1592 31.6684 39.1592C32.4832 39.1758 33.2979 39.1758 34.1126 39.1758Z" fill="white"/>
<path d="M29.8231 28.585C34.3789 28.585 38.9346 28.585 43.4904 28.585C43.9393 28.585 44.3051 28.7346 44.621 29.0505C46.0177 30.4804 47.431 31.8937 48.8443 33.307C49.3764 33.839 49.3597 34.5873 48.9773 35.0694C48.7112 35.402 48.3455 35.535 47.9298 35.535C45.3859 35.535 42.8254 35.535 40.2815 35.535C33.7138 35.535 27.1462 35.535 20.5786 35.535C20.0964 35.535 19.714 35.3854 19.3648 35.0362C17.9848 33.6229 16.5881 32.2262 15.1914 30.8296C14.9587 30.5968 14.8091 30.3474 14.7592 30.0148C14.6595 29.2999 15.2414 28.6016 15.9729 28.6016C17.1867 28.6016 18.4004 28.6016 19.6142 28.6016C23.0061 28.5849 26.4146 28.585 29.8231 28.585Z" fill="white"/>
<path d="M32 63C14.8792 63 1 49.1208 1 32H-1C-1 50.2254 13.7746 65 32 65V63ZM63 32C63 49.1208 49.1208 63 32 63V65C50.2254 65 65 50.2254 65 32H63ZM32 1C49.1208 1 63 14.8792 63 32H65C65 13.7746 50.2254 -1 32 -1V1ZM32 -1C13.7746 -1 -1 13.7746 -1 32H1C1 14.8792 14.8792 1 32 1V-1Z" fill="black" fill-opacity="0.08"/>
</svg>
